<?xml version="1.0" encoding="utf-8"?>
<!-- Generator: Adobe Illustrator 26.5.0, SVG Export Plug-In . SVG Version: 6.00 Build 0)  -->
<svg version="1.1" id="Layer_1" xmlns="http://www.w3.org/2000/svg" xmlns:xlink="http://www.w3.org/1999/xlink" x="0px" y="0px"
	 viewBox="0 0 308.5 80.6" style="enable-background:new 0 0 308.5 80.6;" xml:space="preserve">
<style type="text/css">
	.st0{fill:#143156;}
	.st1{fill:#B2A268;}
</style>
<path class="st0" d="M150.5,45.6h27.3c0.2,0,0.5,0.1,0.5,0.4v0.1v8.1c0,0.2-0.1,0.5-0.4,0.5h-0.1h-4.4c-0.2,0-0.5-0.1-0.5-0.4v-0.1
	v-3c0-0.1-0.1-0.3-0.2-0.3c0,0,0,0-0.1,0h-5.2c-0.1,0-0.3,0.1-0.3,0.2c0,0,0,0,0,0.1v23.6c0,0.1,0.1,0.3,0.2,0.3c0,0,0,0,0.1,0h2.6
	c0.2,0,0.5,0.1,0.5,0.4v0.1v4c0,0.2-0.1,0.5-0.4,0.5H170h-11.9c-0.2,0-0.5-0.1-0.5-0.4v-0.1v-4c0-0.2,0.1-0.5,0.4-0.5h0.1h2.6
	c0.1,0,0.3-0.1,0.3-0.2c0,0,0,0,0-0.1V51.2c0-0.1-0.1-0.3-0.2-0.3c0,0,0,0-0.1,0h-5.2c-0.1,0-0.3,0.1-0.3,0.2v0.1v3
	c0,0.2-0.1,0.5-0.4,0.5h-0.1h-4.4c-0.2,0-0.5-0.1-0.5-0.4v-0.1v-8.1c0-0.2,0.1-0.5,0.4-0.5C150.4,45.6,150.5,45.6,150.5,45.6z"/>
<path class="st0" d="M186.7,55.1c2.3-0.1,4.5,0.6,6.4,1.8c1.7,1.2,3,2.9,3.6,4.9c0.6,2.4,0.9,4.9,0.8,7.3c0,0.3-0.2,0.5-0.6,0.5h-15
	c-0.1,0-0.3,0.1-0.3,0.2v0.1c0,0.6,0.1,1.3,0.4,1.9c0.8,2.5,2.7,3.7,5.5,3.7c2.1,0.1,4.2-0.8,5.7-2.3c0.3-0.3,0.5-0.3,0.8-0.1l3,2.6
	c0.2,0.1,0.3,0.4,0.1,0.6c0,0,0,0-0.1,0.1c-2.4,2.8-5.7,4.2-10,4.2c-2.3,0.1-4.6-0.6-6.5-1.8c-1.8-1.2-3.1-3-3.7-5
	c-0.6-1.9-0.9-4-0.9-6s0.2-4.1,0.8-6c0.6-2,1.9-3.8,3.7-5C182.3,55.6,184.5,55,186.7,55.1z M186.7,59.9c-2.5,0-4.1,1-4.8,3.2
	c-0.2,0.7-0.3,1.4-0.3,2.1c0,0.1,0.1,0.3,0.2,0.3h0.1h9.6c0.2,0,0.3-0.1,0.3-0.2c0,0,0,0,0-0.1c0-0.7-0.1-1.4-0.3-2.1
	c-0.3-0.9-0.9-1.8-1.8-2.3C188.8,60.1,187.8,59.9,186.7,59.9L186.7,59.9z"/>
<path class="st0" d="M211.9,55.1c2.9-0.1,5.8,0.6,8.4,1.9c0.3,0.1,0.4,0.4,0.4,0.7v5.6c0,0.2-0.1,0.5-0.4,0.5h-0.1h-4.3
	c-0.2,0-0.5-0.1-0.5-0.4v-0.1V61c0-0.1-0.1-0.2-0.3-0.4c-1-0.4-2-0.6-3.1-0.5c-2.6,0-4.3,1.1-5,3.2c-0.4,1.5-0.6,3-0.5,4.5
	c-0.1,1.5,0.1,3.1,0.5,4.6c0.7,2.1,2.4,3.1,5,3.1c1.1,0.1,2.1-0.1,3.1-0.5c0.2,0,0.3-0.2,0.3-0.3v-2.3c0-0.2,0.1-0.5,0.4-0.5h0.1
	h4.3c0.2,0,0.5,0.1,0.5,0.4v0.1V78c0,0.3-0.1,0.5-0.4,0.7c-2.6,1.3-5.5,1.9-8.4,1.9c-5.5,0-9-2.2-10.4-6.6c-0.6-2-0.8-4.1-0.8-6.2
	c-0.1-2,0.2-4.1,0.8-6c0.6-2.1,2-3.8,3.8-5C207.3,55.6,209.5,55,211.9,55.1z"/>
<path class="st0" d="M224.3,45.6h7.7c0.2,0,0.5,0.1,0.5,0.4v0.1v11.8l0,0c1.3-1.9,3.4-2.8,6.3-2.8c2.3-0.1,4.5,0.8,6.1,2.5
	c1.6,1.8,2.4,4.1,2.3,6.5v10.6c0,0.1,0.1,0.3,0.2,0.3c0,0,0,0,0.1,0h2.1c0.2,0,0.5,0.1,0.5,0.4v0.1v4c0,0.2-0.1,0.5-0.4,0.5h-0.1
	h-10.5c-0.2,0-0.5-0.1-0.5-0.4v-0.1v-4c0-0.2,0.1-0.5,0.4-0.5h0.1h2.2c0.1,0,0.3-0.1,0.3-0.2v-0.1v-9.3c0.1-1.4-0.3-2.8-1.2-3.9
	c-1.8-1.9-4.8-1.9-6.6-0.1l-0.1,0.1c-0.8,1.1-1.3,2.5-1.2,3.9v9.3c0,0.1,0.1,0.3,0.2,0.3c0,0,0,0,0.1,0h2.2c0.2,0,0.5,0.1,0.5,0.4
	v0.1v4c0,0.2-0.1,0.5-0.4,0.5H235h-10.6c-0.2,0-0.5-0.1-0.5-0.4v-0.1v-4c0-0.2,0.1-0.5,0.4-0.5h0.1h2.2c0.1,0,0.3-0.1,0.3-0.2
	c0,0,0,0,0-0.1V50.9c0-0.2-0.1-0.3-0.3-0.3h-2.2c-0.2,0-0.5-0.1-0.5-0.4v-0.1v-4C223.8,45.8,224,45.6,224.3,45.6L224.3,45.6z"/>
<path class="st0" d="M256.5,75.1L256.5,75.1c-1.4,0-2.5,1.1-2.5,2.5s1.1,2.5,2.5,2.5s2.5-1.1,2.5-2.5l0,0
	C259,76.2,257.9,75.1,256.5,75.1L256.5,75.1L256.5,75.1z M256.5,79.7c-1.2-0.1-2-1.1-2-2.3c0.1-1.1,0.9-1.9,2-2l0,0
	c1.2,0.1,2,1.1,2,2.3C258.4,78.8,257.5,79.6,256.5,79.7z"/>
<path class="st0" d="M256.9,77.7L256.9,77.7c0.3-0.1,0.5-0.4,0.5-0.7c0-0.2-0.1-0.4-0.3-0.6c-0.3-0.2-0.6-0.2-0.9-0.2
	c-0.3,0-0.5,0-0.8,0.1V79h0.5v-1.2h0.3c0.3,0,0.5,0.2,0.6,0.4l0,0c0,0.2,0.1,0.5,0.2,0.7h0.5c-0.1-0.2-0.2-0.5-0.2-0.7
	C257.3,77.9,257.2,77.7,256.9,77.7z M256.3,77.5H256v-0.9h0.3c0.5,0,0.7,0.2,0.7,0.5S256.7,77.5,256.3,77.5z"/>
<path class="st0" d="M157.8,0.9c2,0,4.1,0.3,6,0.9c1.7,0.5,3.2,1.3,4.6,2.4c0.2,0.2,0.3,0.4,0.4,0.7V11c0,0.2-0.1,0.5-0.4,0.5h-0.1
	h-4.6c-0.2,0-0.5-0.1-0.5-0.4V11V8c0-0.2-0.1-0.3-0.2-0.4c-1.6-1-3.5-1.4-5.3-1.4c-3.7,0-6.1,1.5-7.1,4.6c-0.6,2.6-0.9,5.2-0.8,7.9
	c-0.1,2.6,0.1,5.2,0.7,7.8c0.4,1.4,1.3,2.5,2.4,3.4c1.4,0.8,3,1.2,4.6,1.1c2,0.1,3.9-0.3,5.6-1.2c0.3-0.2,0.5-0.5,0.5-0.8v-6.7
	c0-0.1-0.1-0.3-0.2-0.3c0,0,0,0-0.1,0h-5.5c-0.2,0-0.5-0.1-0.5-0.4v-0.1v-4.1c0-0.2,0.1-0.5,0.4-0.5h0.1h11c0.2,0,0.5,0.1,0.5,0.4
	v0.1V32c0,0.5-0.2,1-0.7,1.2c-3.3,2.3-7.3,3.4-11.4,3.2c-6.8,0-11.1-2.7-12.8-8.1c-0.6-1.7-0.9-4.9-0.9-9.6c0-4.4,0.3-7.6,1-9.5
	C146.4,3.7,150.8,0.9,157.8,0.9z"/>
<path class="st0" d="M184.6,10.9c2.3-0.1,4.5,0.6,6.4,1.8c1.7,1.2,3,2.9,3.6,4.9c0.6,2.4,0.9,4.9,0.8,7.4c0,0.3-0.2,0.5-0.6,0.5h-15
	c-0.1,0-0.3,0.1-0.3,0.2c0,0,0,0,0,0.1c0,0.6,0.1,1.3,0.4,1.9c0.8,2.5,2.7,3.7,5.5,3.7c2.2,0.1,4.3-0.8,5.7-2.4
	c0.3-0.3,0.5-0.3,0.8-0.1l3,2.6c0.2,0.2,0.3,0.4,0.1,0.7c0,0,0,0,0,0.1c-2.4,2.8-5.7,4.2-10,4.2c-2.3,0.1-4.6-0.6-6.5-1.8
	c-1.8-1.2-3.1-3-3.7-5c-0.6-1.9-0.9-4-0.9-6s0.2-4.1,0.8-6c0.6-2,1.9-3.8,3.7-5C180.2,11.4,182.3,10.8,184.6,10.9z M184.6,15.7
	c-2.5,0-4.1,1-4.8,3.1c-0.2,0.7-0.3,1.4-0.3,2.1c0,0.1,0.1,0.3,0.2,0.3h0.1h9.6c0.1,0,0.3-0.1,0.3-0.2v-0.1c0-0.7-0.1-1.4-0.3-2.1
	c-0.3-0.9-0.9-1.8-1.8-2.3S185.7,15.7,184.6,15.7L184.6,15.7z"/>
<path class="st0" d="M210.2,10.9c2.2-0.1,4.5,0.6,6.4,1.8c1.8,1.2,3.1,3,3.7,5c0.6,1.9,0.9,4,0.8,6c0,2-0.2,4.1-0.8,6
	c-0.6,2-1.9,3.8-3.7,5c-3.9,2.4-8.8,2.4-12.8,0c-1.8-1.2-3.1-3-3.7-5c-0.6-1.9-0.9-4-0.8-6c0-2,0.2-4.1,0.8-6c0.6-2,1.9-3.8,3.7-5
	C205.7,11.5,207.9,10.8,210.2,10.9z M210.2,16c-2.1-0.2-4.1,1.1-4.6,3.2c-0.4,1.5-0.6,3-0.5,4.5c-0.1,1.5,0.1,3,0.5,4.5
	c0.9,2.5,3.8,3.8,6.3,2.9c1.3-0.5,2.4-1.5,2.9-2.9c0.4-1.5,0.6-3,0.5-4.5c0.1-1.5-0.1-3-0.5-4.5C214.2,17.2,212.3,15.8,210.2,16z"/>
<path class="st0" d="M238.9,11.1c0.8,0,1.6,0.1,2.4,0.3c0.3,0.1,0.5,0.2,0.5,0.5v4.4c0,0.4-0.2,0.6-0.6,0.5c-1-0.2-2-0.3-3-0.4
	c-3.6,0-5.5,2.1-5.5,6.3v8c0,0.1,0.1,0.3,0.2,0.3h0.1h2.4c0.2,0,0.5,0.1,0.5,0.4v0.1v4c0,0.2-0.1,0.5-0.4,0.5h-0.1h-10.8
	c-0.2,0-0.5-0.1-0.5-0.4v-0.1v-4c0-0.2,0.1-0.5,0.4-0.5h0.1h2.2c0.1,0,0.3-0.1,0.3-0.2c0,0,0,0,0-0.1v-14c0-0.2-0.1-0.3-0.3-0.3
	h-2.2c-0.2,0-0.5-0.1-0.5-0.4v-0.1V12c0-0.2,0.1-0.5,0.4-0.5h0.1h7.7c0.2,0,0.5,0.1,0.5,0.4V12v2.5l0,0
	C234,12.3,236.3,11,238.9,11.1z"/>
<path class="st0" d="M253,10.9c3,0,5.1,1,6.3,2.9l0,0V12c0-0.2,0.1-0.5,0.4-0.5h0.1h7.6c0.2,0,0.5,0.1,0.5,0.4V12v4
	c0,0.2-0.1,0.5-0.4,0.5h-0.1h-2.2c-0.1,0-0.3,0.1-0.3,0.2v0.1v17.6c0,3.5-1,6.3-2.9,8.3s-4.8,2.9-8.5,2.9c-1.7,0-3.4-0.3-5-1
	c-1.5-0.5-2.8-1.5-3.8-2.7c-0.2-0.2-0.2-0.5,0-0.7c0,0,0,0,0.1,0l3-3c0.1-0.2,0.4-0.3,0.6-0.1l0.1,0.1c1.4,1.4,3.3,2.3,5.3,2.3
	c3.6,0,5.5-1.9,5.5-5.8v-2.3l0,0c-1.2,1.9-3.3,2.8-6.3,2.8c-1.9,0.1-3.7-0.5-5.2-1.5c-1.5-1.1-2.6-2.6-3.1-4.4
	c-0.6-2-0.9-4.1-0.8-6.2c-0.1-2.1,0.2-4.2,0.8-6.2C246,12.9,248.7,10.9,253,10.9z M254.5,16c-2-0.1-3.8,1.2-4.3,3.1
	c-0.4,1.3-0.6,2.6-0.6,4s0.1,2.7,0.6,4c0.8,2.4,3.3,3.7,5.7,2.9c1.4-0.4,2.5-1.5,2.9-2.9c0.4-1.3,0.6-2.6,0.6-4s-0.2-2.7-0.6-4
	C258.3,17.1,256.5,15.8,254.5,16z"/>
<path class="st0" d="M271.3,11.5h7.6c0.2,0,0.5,0.1,0.5,0.4V12v18.7c0,0.1,0.1,0.3,0.2,0.3c0,0,0,0,0.1,0h2.2c0.2,0,0.5,0.1,0.5,0.4
	v0.1v4c0,0.2-0.1,0.5-0.4,0.5h-0.1h-10.6c-0.2,0-0.5-0.1-0.5-0.4v-0.1v-4c0-0.2,0.1-0.5,0.4-0.5h0.1h2.2c0.1,0,0.3-0.1,0.3-0.2
	c0,0,0,0,0-0.1v-14c0-0.2-0.1-0.3-0.3-0.3h-2.2c-0.2,0-0.5-0.1-0.5-0.4v-0.1V12c-0.1-0.2,0.1-0.5,0.3-0.5
	C271.2,11.5,271.2,11.5,271.3,11.5z M274.3,1.5h4.7c0.2,0,0.5,0.1,0.5,0.4V2v4.4c0,0.2-0.1,0.5-0.4,0.5H279h-4.7
	c-0.2,0-0.5-0.1-0.5-0.4V6.4V1.9c0-0.2,0.1-0.5,0.4-0.5C274.2,1.4,274.2,1.4,274.3,1.5L274.3,1.5z"/>
<path class="st0" d="M295.4,10.9c3.7,0,6.3,0.7,7.8,2s2.3,3.5,2.3,6.5v11.2c0,0.1,0.1,0.3,0.2,0.3c0,0,0,0,0.1,0h2.2
	c0.2,0,0.5,0.1,0.5,0.4v0.1v4c0,0.2-0.1,0.5-0.4,0.5H308h-7.2c-0.2,0-0.5-0.1-0.5-0.4v-0.1v-1.8l0,0c-1.3,1.9-3.6,2.8-6.8,2.8
	c-2.1,0.1-4.2-0.6-5.9-1.9c-1.6-1.4-2.5-3.4-2.4-5.6c-0.2-2.3,0.8-4.4,2.6-5.9c2.1-1.4,4.6-2.1,7.2-2h4.9c0.1,0,0.3-0.1,0.3-0.2
	c0,0,0,0,0-0.1v-1c0.1-1.2-0.3-2.4-1.1-3.2c-0.7-0.7-2-1-3.9-1c-0.9,0-1.8,0.1-2.6,0.3c-0.2,0-0.2,0.2-0.2,0.3v2.2
	c0,0.2-0.1,0.5-0.4,0.5h-0.1h-4.4c-0.2,0-0.5-0.1-0.5-0.4v-0.1v-5.1c0-0.3,0.2-0.5,0.4-0.7C289.7,11.4,292.6,10.8,295.4,10.9z
	 M299.8,25.4h-4c-3.5,0-5.2,1.1-5.2,3.3c0,2.1,1.4,3.1,4.2,3.1c3.6,0,5.3-1.4,5.3-4.2v-2C300.1,25.5,300,25.4,299.8,25.4L299.8,25.4
	L299.8,25.4z"/>
<path class="st1" d="M112.2,75.5L112.2,75.5c-1.3,0-2.3,1-2.3,2.2c0,1.3,1,2.3,2.2,2.3c1.3,0,2.3-1,2.3-2.2l0,0
	C114.4,76.5,113.4,75.5,112.2,75.5L112.2,75.5L112.2,75.5z M112.2,79.7c-1.1-0.1-1.9-1-1.8-2.1c0.1-1,0.8-1.7,1.8-1.8l0,0
	c1.1,0.1,1.9,1,1.8,2.1C113.9,78.8,113.2,79.6,112.2,79.7z"/>
<path class="st1" d="M112.6,77.8L112.6,77.8c0.3-0.1,0.5-0.3,0.5-0.6c0-0.2-0.1-0.4-0.2-0.5c-0.2-0.1-0.5-0.2-0.8-0.2
	c-0.2,0-0.5,0-0.7,0.1v2.5h0.4V78h0.3c0.3,0,0.5,0.1,0.5,0.4c0,0,0,0,0,0.1c0,0.2,0.1,0.4,0.2,0.6h0.4c-0.1-0.2-0.1-0.4-0.2-0.6
	C112.9,78.1,112.8,77.8,112.6,77.8z M112,77.6h-0.3v-0.9h0.3c0.4,0,0.6,0.2,0.6,0.4S112.3,77.7,112,77.6L112,77.6z"/>
<path class="st1" d="M40.2,1.4L40.2,1.4z"/>
<path class="st1" d="M50.7,26.2V46h10.6l1.1-6h4.8C65.4,49.2,56.4,55.4,45,55.4c-0.8,0-1.6,0-2.4-0.1C36.8,55,31.1,53,26.3,49.6
	c-4.5-3.1-7.1-8.3-7.1-13.7c0-5.8,2.6-11.4,7-15.2c4.5-3.9,10.1-6.1,16.1-6.3c0.4,0,0.8,0,1.2,0c7.5,0.1,14.7,2.8,20.5,7.5
	c0.3,0.2,0.4,0.3,0.4,0.3c0.1,0.1,0.3,0.2,0.4,0.3l0.2,0.1h12.2V1.4H64.8v6.1C57.4,3,48.9,0.7,40.2,0.8H40
	c-11.3,0-22.2,4.6-30.2,12.7C3.4,20-0.1,28,0,36c0.1,8.6,4.3,16.6,11.7,22.6c7.5,5.9,16.8,9,26.4,9c1.2,0,2.4,0,3.6-0.1
	c9.6-0.8,18-3,24-6.2v2.6h13.1V40.1h4.5v27.5h-6.8V80H107V67.6h-6.8V40.1h15.5l1.1,6h10.7V26.2H50.7z M40.2,1.4L40.2,1.4z"/>
</svg>
