<?xml version="1.0" encoding="utf-8"?>
<!-- Generator: Adobe Illustrator 26.5.0, SVG Export Plug-In . SVG Version: 6.00 Build 0)  -->
<svg version="1.1" id="Layer_1" xmlns="http://www.w3.org/2000/svg" xmlns:xlink="http://www.w3.org/1999/xlink" x="0px" y="0px"
	 viewBox="0 0 310 82" style="enable-background:new 0 0 310 82;" xml:space="preserve">
<style type="text/css">
	.st0{fill:#FFFFFF;}
	.st1{fill:#AA985D;}
</style>
<path class="st0" d="M151.6,46h27.3c0.2,0,0.5,0.1,0.5,0.4c0,0,0,0.1,0,0.1v8.1c0,0.2-0.1,0.5-0.4,0.5c0,0-0.1,0-0.1,0h-4.4
	c-0.2,0-0.5-0.1-0.5-0.4c0,0,0-0.1,0-0.1v-3c0-0.1-0.1-0.3-0.2-0.3c0,0,0,0-0.1,0h-5.2c-0.1,0-0.3,0.1-0.3,0.2c0,0,0,0,0,0.1v23.6
	c0,0.1,0.1,0.3,0.2,0.3c0,0,0,0,0.1,0h2.6c0.2,0,0.5,0.1,0.5,0.4c0,0,0,0.1,0,0.1v4c0,0.2-0.1,0.5-0.4,0.5c0,0-0.1,0-0.1,0h-11.9
	c-0.2,0-0.5-0.1-0.5-0.4c0,0,0-0.1,0-0.1v-4c0-0.2,0.1-0.5,0.4-0.5c0,0,0.1,0,0.1,0h2.6c0.1,0,0.3-0.1,0.3-0.2c0,0,0,0,0-0.1V51.6
	c0-0.1-0.1-0.3-0.2-0.3c0,0,0,0-0.1,0h-5.2c-0.1,0-0.3,0.1-0.3,0.2c0,0,0,0.1,0,0.1v3c0,0.2-0.1,0.5-0.4,0.5c0,0-0.1,0-0.1,0h-4.4
	c-0.2,0-0.5-0.1-0.5-0.4c0,0,0-0.1,0-0.1v-8.1c0-0.2,0.1-0.5,0.4-0.5C151.5,46,151.6,46,151.6,46z"/>
<path class="st0" d="M187.8,55.5c2.3-0.1,4.5,0.6,6.4,1.8c1.7,1.2,3,2.9,3.6,4.9c0.6,2.4,0.9,4.9,0.8,7.3c0,0.3-0.2,0.5-0.6,0.5h-15
	c-0.1,0-0.3,0.1-0.3,0.2c0,0,0,0.1,0,0.1c0,0.6,0.1,1.3,0.4,1.9c0.8,2.5,2.7,3.7,5.5,3.7c2.1,0.1,4.2-0.8,5.7-2.3
	c0.3-0.3,0.5-0.3,0.8-0.1l3,2.6c0.2,0.1,0.3,0.4,0.1,0.6c0,0,0,0-0.1,0.1c-2.4,2.8-5.7,4.2-10,4.2c-2.3,0.1-4.6-0.6-6.5-1.8
	c-1.8-1.2-3.1-3-3.7-5c-0.6-1.9-0.9-4-0.9-6c0-2,0.2-4.1,0.8-6c0.6-2,1.9-3.8,3.7-5C183.4,56,185.6,55.4,187.8,55.5z M187.8,60.3
	c-2.5,0-4.1,1-4.8,3.2c-0.2,0.7-0.3,1.4-0.3,2.1c0,0.1,0.1,0.3,0.2,0.3c0,0,0.1,0,0.1,0h9.6c0.2,0,0.3-0.1,0.3-0.2c0,0,0,0,0-0.1
	c0-0.7-0.1-1.4-0.3-2.1c-0.3-0.9-0.9-1.8-1.8-2.3C190,60.6,188.9,60.3,187.8,60.3L187.8,60.3z"/>
<path class="st0" d="M213,55.5c2.9-0.1,5.8,0.6,8.4,1.9c0.3,0.1,0.4,0.4,0.4,0.7v5.6c0,0.2-0.1,0.5-0.4,0.5c0,0-0.1,0-0.1,0H217
	c-0.2,0-0.5-0.1-0.5-0.4c0,0,0-0.1,0-0.1v-2.2c0-0.1-0.1-0.2-0.3-0.4c-1-0.4-2-0.6-3.1-0.5c-2.6,0-4.3,1.1-5,3.2
	c-0.4,1.5-0.6,3-0.5,4.5c-0.1,1.5,0.1,3.1,0.5,4.6c0.7,2.1,2.4,3.1,5,3.1c1.1,0.1,2.1-0.1,3.1-0.5c0.2,0,0.3-0.2,0.3-0.3v-2.3
	c0-0.2,0.1-0.5,0.4-0.5c0,0,0.1,0,0.1,0h4.3c0.2,0,0.5,0.1,0.5,0.4c0,0,0,0.1,0,0.1v5.6c0,0.3-0.1,0.5-0.4,0.7
	c-2.6,1.3-5.5,1.9-8.4,1.9c-5.5,0-9-2.2-10.4-6.6c-0.6-2-0.8-4.1-0.8-6.2c-0.1-2,0.2-4.1,0.8-6c0.6-2.1,2-3.8,3.8-5
	C208.4,56,210.7,55.4,213,55.5z"/>
<path class="st0" d="M225.5,46h7.7c0.2,0,0.5,0.1,0.5,0.4c0,0,0,0.1,0,0.1v11.8h0c1.3-1.9,3.4-2.8,6.3-2.8c2.3-0.1,4.5,0.8,6.1,2.5
	c1.6,1.8,2.4,4.1,2.3,6.5v10.6c0,0.1,0.1,0.3,0.2,0.3c0,0,0,0,0.1,0h2.1c0.2,0,0.5,0.1,0.5,0.4c0,0,0,0.1,0,0.1v4
	c0,0.2-0.1,0.5-0.4,0.5c0,0-0.1,0-0.1,0h-10.5c-0.2,0-0.5-0.1-0.5-0.4c0,0,0-0.1,0-0.1v-4c0-0.2,0.1-0.5,0.4-0.5c0,0,0.1,0,0.1,0
	h2.2c0.1,0,0.3-0.1,0.3-0.2c0,0,0-0.1,0-0.1v-9.3c0.1-1.4-0.3-2.8-1.2-3.9c-1.8-1.9-4.8-1.9-6.6-0.1c0,0-0.1,0.1-0.1,0.1
	c-0.8,1.1-1.3,2.5-1.2,3.9v9.3c0,0.1,0.1,0.3,0.2,0.3c0,0,0,0,0.1,0h2.2c0.2,0,0.5,0.1,0.5,0.4c0,0,0,0.1,0,0.1v4
	c0,0.2-0.1,0.5-0.4,0.5c0,0-0.1,0-0.1,0h-10.6c-0.2,0-0.5-0.1-0.5-0.4c0,0,0-0.1,0-0.1v-4c0-0.2,0.1-0.5,0.4-0.5c0,0,0.1,0,0.1,0
	h2.2c0.1,0,0.3-0.1,0.3-0.2c0,0,0,0,0-0.1V51.3c0-0.2-0.1-0.3-0.3-0.3h-2.2c-0.2,0-0.5-0.1-0.5-0.4c0,0,0-0.1,0-0.1v-4
	C224.9,46.2,225.1,46,225.5,46C225.4,46,225.4,46,225.5,46z"/>
<path class="st0" d="M257.6,75.5L257.6,75.5c-1.4,0-2.5,1.1-2.5,2.5c0,1.4,1.1,2.5,2.5,2.5c1.4,0,2.5-1.1,2.5-2.5c0,0,0,0,0,0
	C260.1,76.6,259,75.5,257.6,75.5C257.6,75.5,257.6,75.5,257.6,75.5L257.6,75.5z M257.6,80.1c-1.2-0.1-2-1.1-2-2.3
	c0.1-1.1,0.9-1.9,2-2l0,0c1.2,0.1,2,1.1,2,2.3C259.5,79.2,258.7,80,257.6,80.1z"/>
<path class="st0" d="M258.1,78.1L258.1,78.1c0.3-0.1,0.5-0.4,0.5-0.7c0-0.2-0.1-0.4-0.3-0.6c-0.3-0.2-0.6-0.2-0.9-0.2
	c-0.3,0-0.5,0-0.8,0.1v2.7h0.5v-1.2h0.3c0.3,0,0.5,0.2,0.6,0.4c0,0,0,0,0,0c0,0.2,0.1,0.5,0.2,0.7h0.5c-0.1-0.2-0.2-0.5-0.2-0.7
	C258.5,78.3,258.3,78.1,258.1,78.1z M257.5,77.9h-0.3v-0.9h0.3c0.5,0,0.7,0.2,0.7,0.5S257.8,77.9,257.5,77.9z"/>
<path class="st0" d="M159,1.3c2,0,4.1,0.3,6,0.9c1.7,0.5,3.2,1.3,4.6,2.4c0.2,0.2,0.3,0.4,0.4,0.7v6.1c0,0.2-0.1,0.5-0.4,0.5
	c0,0-0.1,0-0.1,0h-4.6c-0.2,0-0.5-0.1-0.5-0.4c0,0,0-0.1,0-0.1v-3c0-0.2-0.1-0.3-0.2-0.4c-1.6-1-3.5-1.4-5.3-1.4
	c-3.7,0-6.1,1.5-7.1,4.6c-0.6,2.6-0.9,5.2-0.8,7.9c-0.1,2.6,0.1,5.2,0.7,7.8c0.4,1.4,1.3,2.5,2.4,3.4c1.4,0.8,3,1.2,4.6,1.1
	c2,0.1,3.9-0.3,5.6-1.2c0.3-0.2,0.5-0.5,0.5-0.8v-6.7c0-0.1-0.1-0.3-0.2-0.3c0,0,0,0-0.1,0h-5.5c-0.2,0-0.5-0.1-0.5-0.4
	c0,0,0-0.1,0-0.1v-4.1c0-0.2,0.1-0.5,0.4-0.5c0,0,0.1,0,0.1,0h11c0.2,0,0.5,0.1,0.5,0.4c0,0,0,0.1,0,0.1v14.6c0,0.5-0.2,1-0.7,1.2
	c-3.3,2.3-7.3,3.4-11.4,3.2c-6.8,0-11.1-2.7-12.8-8.1c-0.6-1.7-0.9-4.9-0.9-9.6c0-4.4,0.3-7.6,1-9.5C147.5,4.1,151.9,1.3,159,1.3z"
	/>
<path class="st0" d="M185.7,11.3c2.3-0.1,4.5,0.6,6.4,1.8c1.7,1.2,3,2.9,3.6,4.9c0.6,2.4,0.9,4.9,0.8,7.4c0,0.3-0.2,0.5-0.6,0.5h-15
	c-0.1,0-0.3,0.1-0.3,0.2c0,0,0,0,0,0.1c0,0.6,0.1,1.3,0.4,1.9c0.8,2.5,2.7,3.7,5.5,3.7c2.2,0.1,4.3-0.8,5.7-2.4
	c0.3-0.3,0.5-0.3,0.8-0.1l3,2.6c0.2,0.2,0.3,0.4,0.1,0.7c0,0,0,0,0,0.1c-2.4,2.8-5.7,4.2-10,4.2c-2.3,0.1-4.6-0.6-6.5-1.8
	c-1.8-1.2-3.1-3-3.7-5c-0.6-1.9-0.9-4-0.9-6c0-2,0.2-4.1,0.8-6c0.6-2,1.9-3.8,3.7-5C181.3,11.8,183.5,11.3,185.7,11.3z M185.7,16.1
	c-2.5,0-4.1,1-4.8,3.1c-0.2,0.7-0.3,1.4-0.3,2.1c0,0.1,0.1,0.3,0.2,0.3c0,0,0.1,0,0.1,0h9.6c0.1,0,0.3-0.1,0.3-0.2c0,0,0-0.1,0-0.1
	c0-0.7-0.1-1.4-0.3-2.1c-0.3-0.9-0.9-1.8-1.8-2.3C187.8,16.4,186.8,16.1,185.7,16.1L185.7,16.1z"/>
<path class="st0" d="M211.3,11.3c2.2-0.1,4.5,0.6,6.4,1.8c1.8,1.2,3.1,3,3.7,5c0.6,1.9,0.9,4,0.8,6c0,2-0.2,4.1-0.8,6
	c-0.6,2-1.9,3.8-3.7,5c-3.9,2.4-8.8,2.4-12.8,0c-1.8-1.2-3.1-3-3.7-5c-0.6-1.9-0.9-4-0.8-6c0-2,0.2-4.1,0.8-6c0.6-2,1.9-3.8,3.7-5
	C206.8,11.9,209.1,11.3,211.3,11.3z M211.3,16.4c-2.1-0.2-4.1,1.1-4.6,3.2c-0.4,1.5-0.6,3-0.5,4.5c-0.1,1.5,0.1,3,0.5,4.5
	c0.9,2.5,3.8,3.8,6.3,2.9c1.3-0.5,2.4-1.5,2.9-2.9c0.4-1.5,0.6-3,0.5-4.5c0.1-1.5-0.1-3-0.5-4.5C215.3,17.6,213.4,16.2,211.3,16.4z"
	/>
<path class="st0" d="M240,11.5c0.8,0,1.6,0.1,2.4,0.3c0.3,0.1,0.5,0.2,0.5,0.5v4.4c0,0.4-0.2,0.6-0.6,0.5c-1-0.2-2-0.3-3-0.4
	c-3.6,0-5.5,2.1-5.5,6.3v8c0,0.1,0.1,0.3,0.2,0.3c0,0,0.1,0,0.1,0h2.4c0.2,0,0.5,0.1,0.5,0.4c0,0,0,0.1,0,0.1v4
	c0,0.2-0.1,0.5-0.4,0.5c0,0-0.1,0-0.1,0h-10.8c-0.2,0-0.5-0.1-0.5-0.4c0,0,0-0.1,0-0.1v-4c0-0.2,0.1-0.5,0.4-0.5c0,0,0.1,0,0.1,0
	h2.2c0.1,0,0.3-0.1,0.3-0.2c0,0,0,0,0-0.1V17.1c0-0.2-0.1-0.3-0.3-0.3h-2.2c-0.2,0-0.5-0.1-0.5-0.4c0,0,0-0.1,0-0.1v-3.9
	c0-0.2,0.1-0.5,0.4-0.5c0,0,0.1,0,0.1,0h7.7c0.2,0,0.5,0.1,0.5,0.4c0,0,0,0.1,0,0.1v2.5l0,0C235.1,12.7,237.5,11.4,240,11.5z"/>
<path class="st0" d="M254.1,11.3c3,0,5.1,1,6.3,2.9h0v-1.8c0-0.2,0.1-0.5,0.4-0.5c0,0,0.1,0,0.1,0h7.6c0.2,0,0.5,0.1,0.5,0.4
	c0,0,0,0.1,0,0.1v4c0,0.2-0.1,0.5-0.4,0.5c0,0-0.1,0-0.1,0h-2.2c-0.1,0-0.3,0.1-0.3,0.2c0,0,0,0.1,0,0.1v17.6c0,3.5-1,6.3-2.9,8.3
	c-1.9,2-4.8,2.9-8.5,2.9c-1.7,0-3.4-0.3-5-1c-1.5-0.5-2.8-1.5-3.8-2.7c-0.2-0.2-0.2-0.5,0-0.7c0,0,0,0,0.1,0l3-3
	c0.1-0.2,0.4-0.3,0.6-0.1c0,0,0.1,0.1,0.1,0.1c1.4,1.4,3.3,2.3,5.3,2.3c3.6,0,5.5-1.9,5.5-5.8v-2.3h0c-1.2,1.9-3.3,2.8-6.3,2.8
	c-1.9,0.1-3.7-0.5-5.2-1.5c-1.5-1.1-2.6-2.6-3.1-4.4c-0.6-2-0.9-4.1-0.8-6.2c-0.1-2.1,0.2-4.2,0.8-6.2
	C247.1,13.3,249.8,11.4,254.1,11.3z M255.6,16.4c-2-0.1-3.8,1.2-4.3,3.1c-0.4,1.3-0.6,2.6-0.6,4c0,1.4,0.1,2.7,0.6,4
	c0.8,2.4,3.3,3.7,5.7,2.9c1.4-0.4,2.5-1.5,2.9-2.9c0.4-1.3,0.6-2.6,0.6-4c0-1.4-0.2-2.7-0.6-4C259.4,17.6,257.6,16.3,255.6,16.4z"/>
<path class="st0" d="M272.4,11.9h7.6c0.2,0,0.5,0.1,0.5,0.4c0,0,0,0.1,0,0.1V31c0,0.1,0.1,0.3,0.2,0.3c0,0,0,0,0.1,0h2.2
	c0.2,0,0.5,0.1,0.5,0.4c0,0,0,0.1,0,0.1v4c0,0.2-0.1,0.5-0.4,0.5c0,0-0.1,0-0.1,0h-10.6c-0.2,0-0.5-0.1-0.5-0.4c0,0,0-0.1,0-0.1v-4
	c0-0.2,0.1-0.5,0.4-0.5c0,0,0.1,0,0.1,0h2.2c0.1,0,0.3-0.1,0.3-0.2c0,0,0,0,0-0.1V17.1c0-0.2-0.1-0.3-0.3-0.3h-2.2
	c-0.2,0-0.5-0.1-0.5-0.4c0,0,0-0.1,0-0.1v-3.9c-0.1-0.2,0.1-0.5,0.3-0.5C272.3,11.9,272.3,11.9,272.4,11.9z M275.4,1.9h4.7
	c0.2,0,0.5,0.1,0.5,0.4c0,0,0,0.1,0,0.1v4.4c0,0.2-0.1,0.5-0.4,0.5c0,0-0.1,0-0.1,0h-4.7c-0.2,0-0.5-0.1-0.5-0.4c0,0,0-0.1,0-0.1
	V2.3c0-0.2,0.1-0.5,0.4-0.5C275.3,1.8,275.3,1.8,275.4,1.9L275.4,1.9z"/>
<path class="st0" d="M296.5,11.3c3.7,0,6.3,0.7,7.8,2s2.3,3.5,2.3,6.5V31c0,0.1,0.1,0.3,0.2,0.3c0,0,0,0,0.1,0h2.2
	c0.2,0,0.5,0.1,0.5,0.4c0,0,0,0.1,0,0.1v4c0,0.2-0.1,0.5-0.4,0.5c0,0-0.1,0-0.1,0h-7.2c-0.2,0-0.5-0.1-0.5-0.4c0,0,0-0.1,0-0.1V34h0
	c-1.3,1.9-3.6,2.8-6.8,2.8c-2.1,0.1-4.2-0.6-5.9-1.9c-1.6-1.4-2.5-3.4-2.4-5.6c-0.2-2.3,0.8-4.4,2.6-5.9c2.1-1.4,4.6-2.1,7.2-2h4.9
	c0.1,0,0.3-0.1,0.3-0.2c0,0,0,0,0-0.1v-1c0.1-1.2-0.3-2.4-1.1-3.2c-0.7-0.7-2-1-3.9-1c-0.9,0-1.8,0.1-2.6,0.3
	c-0.2,0-0.2,0.2-0.2,0.3v2.2c0,0.2-0.1,0.5-0.4,0.5c0,0-0.1,0-0.1,0h-4.4c-0.2,0-0.5-0.1-0.5-0.4c0,0,0-0.1,0-0.1v-5.1
	c0-0.3,0.2-0.5,0.4-0.7C290.9,11.9,293.7,11.3,296.5,11.3z M301,25.8h-4c-3.5,0-5.2,1.1-5.2,3.3c0,2.1,1.4,3.1,4.2,3.1
	c3.6,0,5.3-1.4,5.3-4.2v-2C301.2,25.9,301.1,25.8,301,25.8C301,25.8,301,25.8,301,25.8L301,25.8z"/>
<path class="st1" d="M113.3,75.9L113.3,75.9c-1.3,0-2.3,1-2.3,2.2c0,1.3,1,2.3,2.2,2.3c1.3,0,2.3-1,2.3-2.2c0,0,0,0,0,0
	C115.6,76.9,114.6,75.9,113.3,75.9C113.3,75.9,113.3,75.9,113.3,75.9L113.3,75.9z M113.3,80.1c-1.1-0.1-1.9-1-1.8-2.1
	c0.1-1,0.8-1.7,1.8-1.8l0,0c1.1,0.1,1.9,1,1.8,2.1C115,79.2,114.3,80,113.3,80.1z"/>
<path class="st1" d="M113.7,78.2L113.7,78.2c0.3-0.1,0.5-0.3,0.5-0.6c0-0.2-0.1-0.4-0.2-0.5c-0.2-0.1-0.5-0.2-0.8-0.2
	c-0.2,0-0.5,0-0.7,0.1v2.5h0.4v-1.1h0.3c0.3,0,0.5,0.1,0.5,0.4c0,0,0,0,0,0.1c0,0.2,0.1,0.4,0.2,0.6h0.4c-0.1-0.2-0.1-0.4-0.2-0.6
	C114.1,78.5,113.9,78.3,113.7,78.2z M113.1,78.1h-0.3v-0.9h0.3c0.4,0,0.6,0.2,0.6,0.4S113.5,78.1,113.1,78.1L113.1,78.1z"/>
<path class="st1" d="M41.3,1.8L41.3,1.8z"/>
<path class="st1" d="M51.9,26.6v19.8h10.6l1.1-6h4.8c-1.8,9.2-10.8,15.4-22.2,15.4c-0.8,0-1.6,0-2.4-0.1c-5.9-0.3-11.6-2.3-16.4-5.7
	c-4.5-3.1-7.1-8.3-7.1-13.7c0-5.8,2.6-11.4,7-15.2c4.5-3.9,10.1-6.1,16.1-6.3c0.4,0,0.8,0,1.2,0c7.5,0.1,14.7,2.8,20.5,7.5
	c0.3,0.2,0.4,0.3,0.4,0.3c0.1,0.1,0.3,0.2,0.4,0.3l0.2,0.1h12.2V1.8H65.9v6.1C58.5,3.4,50,1.1,41.3,1.2h-0.2
	C29.8,1.2,18.9,5.8,10.9,13.9C4.5,20.4,1,28.4,1.1,36.4C1.2,45,5.4,53,12.8,59c7.5,5.9,16.8,9,26.4,9c1.2,0,2.4,0,3.6-0.1
	c9.6-0.8,18-3,24-6.2v2.6h13.1V40.5h4.5v27.5h-6.8v12.4h30.6V68.1h-6.8V40.5h15.5l1.1,6h10.7V26.6H51.9z M41.3,1.8L41.3,1.8z"/>
</svg>
