<svg id="Layer_1" data-name="Layer 1" xmlns="http://www.w3.org/2000/svg" viewBox="0 0 1284.75178 252.08454">
  <defs>
    <style>
      .cls-1 {
        fill: #000f7e;
      }
    </style>
  </defs>
  <g>
    <path class="cls-1" d="M195.39747-286.59h26.82447v125.16731H195.39747Zm116.7712,26.27722h26.27722v98.7191H312.16867v-16.07413c-4.84507,11.40579-17.636,18.49665-31.47,18.49665-24.5444,0-43.91313-18.49665-43.91313-51.69943,0-33.19137,19.19774-51.346,43.74214-51.346,14.005,0,26.62494,6.91983,31.641,18.67333Zm.86071,49.44219c0-18.49664-10.37412-29.56043-25.06886-29.56043-14.518,0-24.892,10.89278-24.892,29.56043,0,18.85006,10.374,29.74285,25.063,29.74285,14.52374,0,24.89786-11.06379,24.89786-29.74285m163.04981-51.346c-18.50236,0-30.09058,9.16566-34.75318,21.09586-5.35806-15.38442-13.65729-21.09586-29.73712-21.09586-14.005,0-25.23986,7.09085-28.69975,18.15463v-16.25082H356.61192v98.8901h26.27722v-48.7525c0-20.91918,5.7-29.73714,19.36307-29.73714,13.3153,0,18.1489,7.43285,18.1489,28.87074v49.6189h26.283v-50.65061c0-19.71076,5.529-28.01,19.36307-28.01,13.4863,0,18.66762,7.95727,18.66762,28.87074v49.78991h26.283v-52.20673c0-34.41118-10.19739-48.58718-34.91853-48.58718m150.46415,51.346c0,35.9673-25.06312,51.69943-50.99835,51.69943s-51.175-15.73213-51.175-51.69943c0-35.61388,25.23977-51.346,51.175-51.346,25.76423,0,50.99835,15.73212,50.99835,51.346m-26.10057,0c0-18.49664-10.374-29.56043-25.06877-29.56043-14.52375,0-24.89779,10.89278-24.89779,29.56043,0,18.85006,10.374,29.74285,25.06878,29.74285s24.89778-11.06379,24.89778-29.74285m62.10777-22.46958c0-6.57215,6.39542-10.37408,17.28819-10.37408,8.818,0,16.42755,3.97863,19.36307,10.71608l23.507-4.14393c-4.83933-15.39013-23.15931-24.8978-43.55975-24.8978-24.55588,0-42.19179,11.7535-42.53378,29.56043-.34772,39.59253,62.06777,23.5127,62.06777,43.22347,0,6.91985-6.74315,10.89848-18.508,10.89848-11.2291,0-19.70506-4.49733-23.3303-12.2779l-23.86034,3.97294c4.845,16.07983,22.47525,26.97261,47.01965,26.97261,27.668,0,45.12731-12.2722,45.12731-31.983,0-39.59252-62.58084-21.95658-62.58084-41.66734M137.371-286.59l49.78417,125.16732h-28.865l-9.98647-27.41722H98.77031l-9.98648,27.41722H60.08412L109.703-286.59Zm3.63094,77.69733-17.465-47.96019L106.0778-208.89264Zm-399.978,47.47h73.65031V-185.796h-46.33V-286.59H-258.976Zm129.65325,2.25152c25.94092,0,51.004-15.73213,51.004-51.69943,0-35.61388-25.24551-51.346-51.004-51.346-25.92949,0-51.175,15.73212-51.175,51.346,0,35.9673,25.24551,51.69943,51.175,51.69943m0-21.95658c-14.689,0-25.06882-10.89279-25.06882-29.74285,0-18.66765,10.37982-29.56043,24.89782-29.56043,14.6947,0,25.06882,11.06379,25.06882,29.56043,0,18.67906-10.20308,29.74285-24.89782,29.74285M-24.858-159.68984c27.668,0,45.12727-12.2722,45.12727-31.983,0-39.59252-62.58653-21.95658-62.58653-41.66734,0-6.57215,6.39546-10.37408,17.28822-10.37408,8.818,0,16.42756,3.97863,19.36308,10.71608l23.507-4.14393c-4.83364-15.39013-23.15931-24.8978-43.55975-24.8978-24.55584,0-42.19175,11.7535-42.53378,29.56043-.34769,39.59253,62.06211,23.5127,62.06211,43.22347,0,6.91985-6.73745,10.89848-18.49662,10.89848-11.2348,0-19.71077-4.49733-23.336-12.2779l-23.86038,3.97294c4.845,16.07983,22.47524,26.97261,47.02538,26.97261" transform="translate(559.6204 317.73616)"/>
    <path class="cls-1" d="M-246.95971-110.15416l-4.91913-9.45637h-.18813v34.13187h-6.9084v-44.62h8.05413l14.575,24.6755,4.92483,9.46208h.19382v-34.13758h6.90275v44.62H-232.379Zm108.30658-13.549h-13.2982v-6.39546H-118.133v6.39546h-13.29821v38.2245h-7.22195Zm39.87754,38.2245V-91.3554h6.07622v-32.86077h-6.07622v-5.88245h19.43144v5.88245h-6.13323V-91.3554h6.13323v5.87674Zm38.4354-22.31c0-15.02532,7.60955-23.07949,19.24335-23.07949s19.24335,8.05417,19.24335,23.07949S-29.463-84.70915-41.09684-84.70915s-19.24335-8.05417-19.24335-23.07949m30.75177,3.51693v-7.02815c0-8.12257-4.6-13.11011-11.50842-13.11011-6.90275,0-11.50268,4.98754-11.50268,13.11011v7.02815c0,8.11687,4.59993,13.10441,11.50268,13.10441,6.90845,0,11.50842-4.98754,11.50842-13.10441M12.723-110.15416l-4.92483-9.45637H7.60435v34.13187H.7016v-44.62H8.75578l14.575,24.6755L28.25563-95.961h.18813v-34.13758H35.3465v44.62H27.29233Zm103.29056,24.6755v-44.62h7.22194v38.23021h18.16034v6.38975Zm-287.79539,0h7.54119l-15.21341-44.62h-9.08019l-15.21342,44.62h7.35307l3.62519-11.22339h17.24265Zm-12.53439-37.968h.3249l6.669,20.543H-191.048ZM87.8895-85.47866h7.5412l-15.21342-44.62H71.14279l-15.21342,44.62h7.35307L66.90763-96.702H84.15028Zm-12.52869-37.968h.3249l6.66335,20.543H68.62336Zm115.10105,37.968v-44.62h7.2276v38.23021h18.149v6.38975Zm104.26521-44.62h19.75638c7.34736,0,11.89029,4.54294,11.89029,11.50839,0,6.709-4.09265,9.14288-7.73494,9.46208v.3819c3.64229.13111,9.33094,2.94123,9.33094,10.41969,0,7.22766-4.92483,12.8479-11.50272,12.8479H294.72707Zm7.22768,18.86145h11.18344c3.517,0,5.62594-1.91521,5.62594-5.30674v-2.04632c0-3.38582-2.109-5.30674-5.62594-5.30674H301.95475Zm0,19.55686H314.358c3.70508,0,6.0022-2.04061,6.0022-5.68864v-2.17172c0-3.64233-2.29712-5.68865-6.0022-5.68865H301.95475Zm46.36985-16.10833c0-15.02532,7.6096-23.07949,19.2434-23.07949s19.24331,8.05417,19.24331,23.07949S379.2018-84.70915,367.568-84.70915s-19.2434-8.05417-19.2434-23.07949m30.746,3.51693v-7.02815c0-8.12257-4.59424-13.11011-11.50264-13.11011-6.90275,0-11.50846,4.98754-11.50846,13.11011v7.02815c0,8.11687,4.60571,13.10441,11.50846,13.10441,6.9084,0,11.50264-4.98754,11.50264-13.10441m37.569,18.793H409.412v-44.62h19.24339c7.99717,0,12.91635,5.17564,12.91635,13.42361,0,6.33275-3.004,10.73889-8.69263,12.4033l9.65023,18.793H434.4751l-8.949-18.02354h-8.8864ZM428.148-109.57275c3.64238,0,5.81408-1.98362,5.81408-5.56325v-3.07232c0-3.57963-2.1717-5.56324-5.81408-5.56324H416.63967v14.19881Zm98.98134-14.13041H513.83113v-6.39546H547.6495v6.39546H534.35133v38.2245h-7.22195Zm38.33277,15.91452c0-15.02532,7.6096-23.07949,19.24339-23.07949s19.23766,8.05417,19.23766,23.07949-7.60386,23.07949-19.23766,23.07949-19.24339-8.05417-19.24339-23.07949m30.75177,3.51693v-7.02815c0-8.12257-4.60563-13.11011-11.50838-13.11011-6.90849,0-11.50272,4.98754-11.50272,13.11011v7.02815c0,8.11687,4.59423,13.10441,11.50272,13.10441,6.90275,0,11.50838-4.98754,11.50838-13.10441m37.569,18.793h-7.22769v-44.62h19.2434c7.99142,0,12.91625,5.17564,12.91625,13.42361,0,6.33275-3.00388,10.73889-8.69819,12.4033l9.66154,18.793h-8.05414l-8.96051-18.02354H633.783Zm11.50272-24.09409c3.648,0,5.82538-1.98362,5.82538-5.56325v-3.07232c0-3.57963-2.17735-5.56324-5.82538-5.56324H633.783v14.19881Zm46.233,24.09409V-103.0576l-15.35019-27.041h8.24792l10.87006,19.88176h.19378l10.79587-19.88176h7.93446L698.735-103.183v17.70434Zm-424.96694,0h7.53541l-15.21337-44.62h-9.07453l-15.21338,44.62h7.353L245.55851-96.702h17.254Zm-12.52869-37.968h.31346l6.67479,20.543H247.27994Zm239.97765,37.968h7.54115l-15.21346-44.62H477.254l-15.21912,44.62h7.353L473.01312-96.702h17.24261Zm-12.52869-37.968h.3192l6.6747,20.543H474.72881Z" transform="translate(559.6204 317.73616)"/>
    <path class="cls-1" d="M-478.16673-309.59651a125.73739,125.73739,0,0,1,44.58576-8.13965,125.74145,125.74145,0,0,1,96.41628,44.89926c-1.425-.18241-17.81264-1.9551-45.70867,6.71467-38.766-33.31109-72.29368-42.96127-95.29337-43.47428m39.09662,192.55328a232.10081,232.10081,0,0,1-38.40691-31.185,259.02317,259.02317,0,0,1-21.67158-24.41329c-20.54866,24.9035-28.50023,47.47-21.28968,58.30577,8.85788,13.30961,40.80664,14.16462,81.36817-2.70752m44.05566-144.87807c-42.65345-31.12227-91.94745-45.18428-113.33972-23.71789-13.42932,13.4692-15.64664,46.62066,11.79909,89.39952a305.64516,305.64516,0,0,1,45.076-35.9901c21.455-14.26722,40.419-23.59248,56.46466-29.69153m-112.72412,77.49212c-26.28291-38.88571-28.43753-70.71477-25.30251-84.63429A125.42117,125.42117,0,0,0-559.6204-191.691,125.46623,125.46623,0,0,0-537.584-120.49746c-1.04881-9.76988,3.44852-33.72717,29.84544-63.93172m177.61914-79.21924c-1.0146-.18811-15.53262-2.62772-43.06955,6.25295,2.052,1.938,4.11543,3.91593,6.196,5.985,18.78164,18.87286,26.17461,34.59359,27.041,36.1782a3.28315,3.28315,0,0,1-1.28822,4.46314,3.31919,3.31919,0,0,1-4.46312-1.28821,171.76338,171.76338,0,0,0-22.12189-26.67622c-5.20415-5.187-10.68758-10.11188-16.34773-14.76881-16.18244,6.28144-35.9331,16.15962-59.18359,31.63525a271.77936,271.77936,0,0,0-45.12727,37.2954,278.68682,278.68682,0,0,0,27.31462,31.35595A222.0069,222.0069,0,0,0-424.68889-123.604a290.33033,290.33033,0,0,0,45.09876-28.09553,15.10046,15.10046,0,0,1-2.17171-7.792,15.15052,15.15052,0,0,1,15.15071-15.15072,15.15173,15.15173,0,0,1,15.15642,15.15072A15.1566,15.1566,0,0,1-366.61113-144.335a15.17338,15.17338,0,0,1-5.83684-1.16851,380.71823,380.71823,0,0,1-41.844,28.11263c24.1055,13.3438,47.94309,19.10085,68.14974,16.43323A125.63008,125.63008,0,0,0-307.54153-191.691a125.42557,125.42557,0,0,0-22.5779-71.95738m-97.49929,153.42814C-467.37085-90.18461-495.84827-88.4233-511.341-92.533a125.43971,125.43971,0,0,0,77.76,26.88142,125.47719,125.47719,0,0,0,75.309-24.96621c-10.32279.13681-36.58859-1.60171-69.34676-19.60246" transform="translate(559.6204 317.73616)"/>
  </g>
</svg>
