<?xml version="1.0" encoding="utf-8"?>
<!-- Generator: Adobe Illustrator 26.5.0, SVG Export Plug-In . SVG Version: 6.00 Build 0)  -->
<svg version="1.1" id="Layer_1" xmlns="http://www.w3.org/2000/svg" xmlns:xlink="http://www.w3.org/1999/xlink" x="0px" y="0px"
	 viewBox="0 0 316.6 138.1" style="enable-background:new 0 0 316.6 138.1;" xml:space="preserve">
<style type="text/css">
	.st0{fill:#FFFFFF;}
</style>
<g>
	<g>
		<path class="st0" d="M9.8,132.6c0,1.3-0.1,2,1.4,2c5.2,0,4.9-2.7,5.7-2.7c0.1,0,0.2,0.1,0.2,0.5c0,1.6-1.2,3.3-2.9,3.3
			c-3.2,0-4.4-0.1-5.5-0.1c-0.6,0-1.5,0.1-2.7,0.1c-0.3,0-0.4-0.1-0.4-0.2c0-1,1.6,0.2,1.6-2.4v-9.8c0-1.8-2.4-1.2-2.4-1.9
			c0-0.2,0.2-0.4,0.7-0.4c0.8,0,2,0.1,2.8,0.1c1.8,0,2-0.1,2.4-0.1c0.4,0,0.5,0,0.5,0.3c0,0.8-1.5,0-1.5,1.6V132.6z"/>
		<path class="st0" d="M25,122.2c3.7,0,6.4,2.4,6.4,6.3c0,2.6-1.1,7.2-7.1,7.2c-3.8,0-6.3-2.5-6.3-6.3
			C18.1,125.3,20.5,122.3,25,122.2z M24.9,135c3.2-0.1,4.3-2.6,4.3-5.7c0-4.1-2.3-6.3-4.7-6.3c-3.2,0.1-4.1,2.6-4.1,5.4
			C20.4,131.1,21.5,135,24.9,135z"/>
		<path class="st0" d="M45.8,128.8c0,3.8-1.1,7-6.2,7c-3.5,0-5.4-1.6-5.4-5.3v-6.1c0-1.6-1.9-1-1.9-1.7c0-0.2,0.2-0.3,0.4-0.3
			c0.2,0,1.6,0.1,2.6,0.1c1,0,2.3-0.1,2.6-0.1c0.2,0,0.2,0.1,0.2,0.3c0,0.6-1.6-0.4-1.6,2.7v4.1c0,2.9,0.7,5.2,4.1,5.2
			c3.7,0,4.2-3,4.2-6.1v-3.7c0-2.2-2.3-1.6-2.3-2.2c0-0.3,0.3-0.2,0.6-0.2c0.5,0,1,0.1,1.6,0.1c0.6,0,1.2,0,2.1-0.1
			c0.2,0,0.3,0,0.3,0.2c0,0.5-1.3-0.2-1.3,1.9V128.8z"/>
		<path class="st0" d="M54,133.3c0,2.3,2.1,1.4,2.1,2c0,0.2-0.2,0.3-0.6,0.3c-0.7,0-1.4-0.1-2.8-0.1c-0.8,0-1.6,0.1-2.1,0.1
			c-0.2,0-0.2-0.1-0.2-0.2c0-0.7,1.3-0.2,1.3-1.9v-9c0-1.7-2.1-1.2-2.1-1.8c0-0.3,0.5-0.3,0.6-0.3c0.7,0,1.5,0.1,2.1,0.1
			c0.7,0,1.3-0.1,2.4-0.1c0.6,0,0.7,0,0.7,0.3c0,0.6-1.4,0-1.4,1.7V133.3z"/>
		<path class="st0" d="M57.5,131.8c-0.1-0.3-0.2-0.8,0.2-0.8c0.3,0,0.3,0.2,0.4,0.4c0.6,1.8,1.8,3.5,3.8,3.5c1.5,0,2.6-0.9,2.6-2.4
			c0-1.6-1.2-1.8-4.2-3.2c-1.6-0.7-2.7-1.4-2.7-3.4c0-2.2,1.5-3.7,3.7-3.7c1.5,0,2.3,0.7,2.9,0.7c0.2,0,0.7-0.3,1-0.3
			c0.3,0,0.2,0.3,0.3,0.7l0.2,2.5c0,0.4,0,0.6-0.4,0.6c-0.4,0-0.7-3.5-3.9-3.5c-1.2,0-2.1,0.7-2.1,2c0,1.3,1,1.5,3.5,2.6
			c2,0.9,3.2,1.7,3.2,4.1c0,2.5-1.7,4.1-4.2,4.1c-1.1,0-2.1-0.4-3.2-0.7c-0.5-0.1-0.4-0.3-0.5-0.7L57.5,131.8z"/>
		<path class="st0" d="M71.7,133.3c0,2.3,2.1,1.4,2.1,2c0,0.2-0.2,0.3-0.6,0.3c-0.7,0-1.4-0.1-2.8-0.1c-0.8,0-1.6,0.1-2.1,0.1
			c-0.2,0-0.2-0.1-0.2-0.2c0-0.7,1.3-0.2,1.3-1.9v-9c0-1.7-2.1-1.2-2.1-1.8c0-0.3,0.5-0.3,0.6-0.3c0.7,0,1.5,0.1,2.1,0.1
			c0.7,0,1.3-0.1,2.4-0.1c0.6,0,0.7,0,0.7,0.3c0,0.6-1.4,0-1.4,1.7V133.3z"/>
		<path class="st0" d="M78.9,131c-0.3,0-0.7,0.1-1.1,1.3c-0.1,0.4-0.4,1-0.4,1.5c0,1.3,2,1,2,1.6c0,0.4-0.6,0.3-1,0.3
			c-0.6,0-1.2-0.1-1.8-0.1c-0.6,0-1.1,0.1-1.6,0.1c-0.3,0-0.6,0-0.6-0.2c0-0.4,1-0.3,1.4-1.4l5.1-11.3c0.1-0.3,0.2-0.7,0.5-0.7
			c0.2,0,0.2,0,0.4,0.6l5.1,11.5c0.6,1.3,1.6,0.6,1.6,1.2c0,0.3-0.2,0.3-0.7,0.3c-0.7,0-1.2-0.1-2.4-0.1c-0.8,0-1.5,0.1-2.1,0.1
			c-0.3,0-0.6,0-0.6-0.2c0-0.5,1.3-0.3,1.3-1.5c0-0.4-0.1-0.7-0.3-1.3c-0.6-1.5-0.7-1.6-1.2-1.6H78.9z M82,130c0.3,0,0.6,0,0.6-0.2
			c0-0.3-0.1-0.5-0.2-0.7l-1.5-3.4c-0.1-0.2-0.1-0.2-0.1-0.2c0,0-0.1,0-0.2,0.2l-1.4,3.3c-0.1,0.2-0.2,0.4-0.2,0.7
			c0,0.2,0.3,0.2,0.6,0.2H82z"/>
		<path class="st0" d="M91,126c0-3.6-2.1-2.4-2.1-3.3c0-0.2,0.1-0.3,0.3-0.3c0.4,0,0.7,0.1,1,0.1c0.5,0,1-0.1,2-0.1
			c0.6,0,0.4,0.1,0.7,0.5l7.5,8.3c0.2,0.3,0.5,0.5,0.6,0.5c0.1,0,0.1-0.2,0.1-0.7v-6.2c0-1.7-2.3-1.4-2.3-2c0-0.1,0.1-0.3,0.3-0.3
			c0.3,0,0.8,0.1,2.1,0.1c1.2,0,1.8-0.1,2-0.1c0.4,0,0.4,0.2,0.4,0.2c0,0.6-1.6,0.1-1.6,2.1v10.5c0,0.4,0,0.6-0.2,0.6
			c-0.3,0-0.4-0.1-0.5-0.3l-9-9.7c-0.1-0.2-0.2-0.2-0.3-0.2c-0.1,0-0.1,0.1-0.1,0.3v6.4c0,3.6,2.4,2.3,2.4,3.2
			c0,0.3-0.5,0.2-0.7,0.2c-0.9,0-1.6-0.1-2.2-0.1c-0.6,0-1.1,0.1-1.6,0.1c-0.2,0-0.6,0.1-0.6-0.2c0-0.7,1.8-0.4,1.8-2.3V126z"/>
		<path class="st0" d="M109.1,131c-0.3,0-0.7,0.1-1.1,1.3c-0.1,0.4-0.4,1-0.4,1.5c0,1.3,2,1,2,1.6c0,0.4-0.6,0.3-1,0.3
			c-0.6,0-1.2-0.1-1.8-0.1c-0.6,0-1.1,0.1-1.6,0.1c-0.3,0-0.6,0-0.6-0.2c0-0.4,1-0.3,1.4-1.4l5.1-11.3c0.1-0.3,0.2-0.7,0.5-0.7
			c0.2,0,0.2,0,0.4,0.6l5.1,11.5c0.6,1.3,1.6,0.6,1.6,1.2c0,0.3-0.2,0.3-0.7,0.3c-0.7,0-1.2-0.1-2.4-0.1c-0.8,0-1.5,0.1-2.1,0.1
			c-0.3,0-0.6,0-0.6-0.2c0-0.5,1.3-0.3,1.3-1.5c0-0.4-0.1-0.7-0.3-1.3c-0.6-1.5-0.7-1.6-1.2-1.6H109.1z M112.2,130
			c0.3,0,0.6,0,0.6-0.2c0-0.3-0.1-0.5-0.2-0.7l-1.5-3.4c-0.1-0.2-0.1-0.2-0.1-0.2c0,0-0.1,0-0.2,0.2l-1.4,3.3
			c-0.1,0.2-0.2,0.4-0.2,0.7c0,0.2,0.3,0.2,0.6,0.2H112.2z"/>
		<path class="st0" d="M125.3,131.4c-0.1-0.3-0.3-0.9,0.2-0.9c0.3,0,0.4,0.2,0.5,0.5c0.7,2,2,3.9,4.3,3.9c1.6,0,2.9-1,2.9-2.7
			c0-1.8-1.3-2-4.7-3.5c-1.8-0.8-3-1.6-3-3.8c0-2.4,1.7-4.1,4.1-4.1c1.7,0,2.6,0.8,3.2,0.8c0.3,0,0.8-0.3,1.1-0.3
			c0.3,0,0.2,0.3,0.3,0.8l0.2,2.8c0,0.5,0,0.7-0.5,0.7c-0.5,0-0.8-3.9-4.4-3.9c-1.4,0-2.3,0.8-2.3,2.2c0,1.4,1.1,1.7,3.9,2.9
			c2.2,1,3.6,1.9,3.6,4.5c0,2.7-1.9,4.6-4.6,4.6c-1.3,0-2.3-0.5-3.5-0.8c-0.5-0.1-0.5-0.3-0.6-0.8L125.3,131.4z"/>
		<path class="st0" d="M141.4,124.5c0-0.9-0.2-1-1-1h-1.6c-2.1,0-1.6,2.5-2.4,2.5c-0.4,0-0.3-0.4-0.2-0.7l0.3-2.5
			c0-0.2,0-0.4,0.3-0.4c1.7,0,3,0.1,5.7,0.1c2.7,0,4-0.1,5.7-0.1c0.3,0,0.3,0.3,0.3,0.4l0.2,1.7c0,0.2,0.2,1-0.2,1
			c-0.7,0-0.1-2.1-2.3-2h-1.6c-0.8,0-1,0.1-1,1v8.5c0,2.3,2.4,1.8,2.4,2.3c0,0.4-0.4,0.4-0.9,0.4c-0.7,0-1.4-0.1-2.6-0.1
			s-1.9,0.1-2.6,0.1c-0.3,0-0.7,0-0.7-0.4c0-0.7,2.1,0.2,2.1-2.1V124.5z"/>
		<path class="st0" d="M152.2,131c-0.3,0-0.7,0.1-1.1,1.3c-0.1,0.4-0.4,1-0.4,1.5c0,1.3,2,1,2,1.6c0,0.4-0.6,0.3-1,0.3
			c-0.6,0-1.2-0.1-1.8-0.1c-0.6,0-1.1,0.1-1.6,0.1c-0.3,0-0.6,0-0.6-0.2c0-0.4,1-0.3,1.4-1.4l5.1-11.3c0.1-0.3,0.2-0.7,0.5-0.7
			c0.2,0,0.2,0,0.4,0.6l5.1,11.5c0.6,1.3,1.6,0.6,1.6,1.2c0,0.3-0.2,0.3-0.7,0.3c-0.7,0-1.2-0.1-2.4-0.1c-0.8,0-1.5,0.1-2.1,0.1
			c-0.3,0-0.6,0-0.6-0.2c0-0.5,1.3-0.3,1.3-1.5c0-0.4-0.1-0.7-0.3-1.3c-0.6-1.5-0.7-1.6-1.2-1.6H152.2z M155.4,130
			c0.3,0,0.6,0,0.6-0.2c0-0.3-0.1-0.5-0.2-0.7l-1.5-3.4c-0.1-0.2-0.1-0.2-0.1-0.2c0,0-0.1,0-0.2,0.2l-1.4,3.3
			c-0.1,0.2-0.2,0.4-0.2,0.7c0,0.2,0.3,0.2,0.6,0.2H155.4z"/>
		<path class="st0" d="M166,124.5c0-0.9-0.2-1-1-1h-1.6c-2.1,0-1.6,2.5-2.4,2.5c-0.4,0-0.3-0.4-0.2-0.7l0.3-2.5c0-0.2,0-0.4,0.3-0.4
			c1.7,0,3,0.1,5.7,0.1c2.7,0,4-0.1,5.7-0.1c0.3,0,0.3,0.3,0.3,0.4l0.2,1.7c0,0.2,0.2,1-0.2,1c-0.8,0-0.2-2.1-2.3-2h-1.6
			c-0.8,0-1,0.1-1,1v8.5c0,2.3,2.4,1.8,2.4,2.3c0,0.4-0.4,0.4-0.9,0.4c-0.7,0-1.4-0.1-2.6-0.1c-1.3,0-1.9,0.1-2.6,0.1
			c-0.3,0-0.7,0-0.7-0.4c0-0.7,2.1,0.2,2.1-2.1V124.5z"/>
		<path class="st0" d="M178.3,127.2c0,0.8,0,0.9,0.8,0.9h1.2c1.6,0,1.7-1.7,2-1.7c0.1,0,0.3,0,0.4,0.5l0.1,3.3
			c0,0.2,0.1,0.9-0.3,0.9c-0.6,0-0.1-2-2-2h-1.4c-0.9,0-0.8,0.2-0.8,1.3v2.4c0,1.2-0.1,1.8,1.3,1.8c4.6,0,4.4-2.5,5.1-2.5
			c0.1,0,0.2,0.1,0.2,0.4c0,1.5-1.1,3-2.6,3c-2.8,0-4-0.1-4.9-0.1c-0.6,0-1.4,0.1-2.4,0.1c-0.2,0-0.4-0.1-0.4-0.2
			c0-0.9,1.4,0.1,1.4-2.1v-8.8c0-1.7-2.1-1.1-2.1-1.8c0-0.2,0.2-0.3,0.4-0.3c0.8,0,2.1,0.1,5,0.1c1.3,0,2.6-0.1,4.3-0.1
			c0.2,0,0.4,0.2,0.4,0.4l0.1,1.9c0,0.2,0.1,0.9-0.3,0.9c-0.9,0,0.6-2.2-3-2.2c-2.3,0-2.3,0-2.3,1.3V127.2z"/>
		<path class="st0" d="M205.8,128.1c0,4.2-1.2,7.7-6.9,7.7c-3.9,0-6-1.8-6-5.8v-6.8c0-1.8-2.2-1.1-2.2-1.9c0-0.3,0.3-0.3,0.4-0.3
			c0.3,0,1.8,0.1,2.9,0.1c1.1,0,2.5-0.1,2.9-0.1c0.2,0,0.2,0.2,0.2,0.3c0,0.7-1.7-0.4-1.7,3v4.5c0,3.2,0.8,5.8,4.6,5.8
			c4.1,0,4.7-3.3,4.7-6.8v-4.1c0-2.4-2.6-1.7-2.6-2.5c0-0.3,0.4-0.2,0.6-0.2c0.6,0,1.2,0.1,1.7,0.1c0.7,0,1.3,0,2.4-0.1
			c0.2,0,0.4,0,0.4,0.3c0,0.6-1.5-0.2-1.5,2.2V128.1z"/>
		<path class="st0" d="M210.1,126c0-3.6-2.1-2.4-2.1-3.3c0-0.2,0.1-0.3,0.3-0.3c0.4,0,0.7,0.1,1,0.1c0.5,0,1-0.1,2-0.1
			c0.6,0,0.4,0.1,0.7,0.5l7.5,8.3c0.2,0.3,0.5,0.5,0.6,0.5c0.1,0,0.2-0.2,0.2-0.7v-6.2c0-1.7-2.3-1.4-2.3-2c0-0.1,0.1-0.3,0.3-0.3
			c0.3,0,0.8,0.1,2.1,0.1c1.2,0,1.8-0.1,2-0.1c0.4,0,0.4,0.2,0.4,0.2c0,0.6-1.6,0.1-1.6,2.1v10.5c0,0.4,0,0.6-0.2,0.6
			c-0.3,0-0.4-0.1-0.5-0.3l-9-9.7c-0.1-0.2-0.2-0.2-0.3-0.2c-0.1,0-0.2,0.1-0.2,0.3v6.4c0,3.6,2.4,2.3,2.4,3.2
			c0,0.3-0.5,0.2-0.7,0.2c-0.9,0-1.6-0.1-2.2-0.1c-0.6,0-1.1,0.1-1.6,0.1c-0.2,0-0.6,0.1-0.6-0.2c0-0.7,1.8-0.4,1.8-2.3V126z"/>
		<path class="st0" d="M228.3,133.3c0,2.3,2.1,1.4,2.1,2c0,0.2-0.2,0.3-0.6,0.3c-0.7,0-1.4-0.1-2.8-0.1c-0.8,0-1.6,0.1-2.1,0.1
			c-0.2,0-0.2-0.1-0.2-0.2c0-0.7,1.3-0.2,1.3-1.9v-9c0-1.7-2.1-1.2-2.1-1.8c0-0.3,0.5-0.3,0.6-0.3c0.7,0,1.5,0.1,2.1,0.1
			c0.7,0,1.3-0.1,2.4-0.1c0.6,0,0.7,0,0.7,0.3c0,0.6-1.4,0-1.4,1.7V133.3z"/>
		<path class="st0" d="M238.6,135.3c-0.2,0.5-0.3,0.6-0.5,0.6c-0.2,0-0.4-0.2-0.7-1l-4.7-10.9c-0.3-0.7-0.6-0.9-1.3-1.1
			c-0.1,0-0.3-0.1-0.3-0.3c0-0.4,0.6-0.3,0.9-0.3c0.6,0,1.3,0.1,1.9,0.1c1.2,0,1.7-0.1,2-0.1c0.6,0,0.7,0,0.7,0.3
			c0,0.5-1.1,0.2-1.1,1c0,0.6,0.2,1.4,0.7,2.6l2.4,6c0.1,0.1,0.2,0.4,0.3,0.4c0.1,0,0.2-0.3,0.2-0.4l2.6-5.7
			c0.6-1.3,0.6-1.9,0.6-2.2c0-1.8-1.9-1.1-1.9-1.7c0-0.4,0.5-0.3,0.8-0.3c0.5,0,1.1,0.1,1.6,0.1c0.5,0,1-0.1,1.6-0.1
			c0.4,0,0.7-0.1,0.7,0.3c0,0.4-0.8,0.3-1.3,1.4L238.6,135.3z"/>
		<path class="st0" d="M249.8,127.2c0,0.8,0,0.9,0.8,0.9h1.2c1.6,0,1.7-1.7,2-1.7c0.1,0,0.3,0,0.4,0.5l0.1,3.3
			c0,0.2,0.1,0.9-0.3,0.9c-0.6,0-0.1-2-2-2h-1.4c-0.9,0-0.8,0.2-0.8,1.3v2.4c0,1.2-0.1,1.8,1.3,1.8c4.6,0,4.4-2.5,5.1-2.5
			c0.1,0,0.2,0.1,0.2,0.4c0,1.5-1.1,3-2.6,3c-2.8,0-4-0.1-4.9-0.1c-0.6,0-1.4,0.1-2.4,0.1c-0.2,0-0.4-0.1-0.4-0.2
			c0-0.9,1.4,0.1,1.4-2.1v-8.8c0-1.7-2.1-1.1-2.1-1.8c0-0.2,0.2-0.3,0.4-0.3c0.8,0,2.1,0.1,5,0.1c1.3,0,2.6-0.1,4.3-0.1
			c0.2,0,0.4,0.2,0.4,0.4l0.1,1.9c0,0.2,0.1,0.9-0.3,0.9c-0.9,0,0.6-2.2-3-2.2c-2.3,0-2.3,0-2.3,1.3V127.2z"/>
		<path class="st0" d="M258.9,124.7c0-2.1-2-1.4-2-2.1c0-0.2,0.2-0.3,0.4-0.3c0.9,0,1,0.1,2.2,0.1c1.3,0,2.5-0.1,3.8-0.1
			c4.1,0,4.5,2.6,4.5,3.5c0,1.2-0.5,1.9-1.1,2.3c-0.5,0.4-1.1,0.6-1.1,0.8c0,0.1,1.6,2.8,2.9,5.2c0.2,0.3,0.5,0.3,0.7,0.3
			c0.2,0,0.4-0.1,0.6-0.1c0.2,0,0.3,0.1,0.3,0.3c0,0.6-1.2,1-2,1c-1.5,0-2.1-1.2-2.7-2.3l-1.6-3c-0.4-0.8-0.8-1-1.7-1
			c-1,0-0.9,0.1-0.9,0.8v3.2c0,2,1.9,1.2,1.9,1.9c0,0.2-0.2,0.3-0.6,0.3c-0.3,0-0.8-0.1-1.6-0.1c-1,0-1.9,0.1-2.9,0.1
			c-0.2,0-0.6,0.1-0.6-0.3c0-0.6,1.5,0,1.5-2.3V124.7z M261.2,128.1c0,0.5,0.7,0.5,1.3,0.5c2.8,0,3-1,3-2.2c0-1.8-1-3.2-2.9-3.2
			c-0.7,0-1.3,0-1.3,1.1V128.1z"/>
		<path class="st0" d="M271.3,131.8c-0.1-0.3-0.2-0.8,0.2-0.8c0.3,0,0.3,0.2,0.4,0.4c0.6,1.8,1.8,3.5,3.8,3.5c1.5,0,2.6-0.9,2.6-2.4
			c0-1.6-1.2-1.8-4.2-3.2c-1.6-0.7-2.7-1.4-2.7-3.4c0-2.2,1.5-3.7,3.7-3.7c1.5,0,2.3,0.7,2.9,0.7c0.2,0,0.7-0.3,1-0.3
			c0.3,0,0.2,0.3,0.3,0.7l0.2,2.5c0,0.4,0,0.6-0.4,0.6c-0.4,0-0.7-3.5-3.9-3.5c-1.2,0-2.1,0.7-2.1,2c0,1.3,1,1.5,3.5,2.6
			c2,0.9,3.2,1.7,3.2,4.1c0,2.5-1.7,4.1-4.2,4.1c-1.1,0-2.1-0.4-3.2-0.7c-0.5-0.1-0.4-0.3-0.5-0.7L271.3,131.8z"/>
		<path class="st0" d="M285.5,133.3c0,2.3,2.1,1.4,2.1,2c0,0.2-0.2,0.3-0.6,0.3c-0.7,0-1.4-0.1-2.8-0.1c-0.8,0-1.6,0.1-2.1,0.1
			c-0.2,0-0.2-0.1-0.2-0.2c0-0.7,1.3-0.2,1.3-1.9v-9c0-1.7-2.1-1.2-2.1-1.8c0-0.3,0.5-0.3,0.6-0.3c0.7,0,1.5,0.1,2.1,0.1
			c0.7,0,1.3-0.1,2.4-0.1c0.6,0,0.7,0,0.7,0.3c0,0.6-1.4,0-1.4,1.7V133.3z"/>
		<path class="st0" d="M293.6,124.5c0-0.9-0.2-1-1-1h-1.6c-2.1,0-1.6,2.5-2.4,2.5c-0.4,0-0.3-0.4-0.2-0.7l0.3-2.5
			c0-0.2,0-0.4,0.3-0.4c1.7,0,3,0.1,5.7,0.1s4-0.1,5.7-0.1c0.3,0,0.3,0.3,0.3,0.4l0.2,1.7c0,0.2,0.2,1-0.2,1c-0.8,0-0.2-2.1-2.3-2
			h-1.6c-0.8,0-1,0.1-1,1v8.5c0,2.3,2.4,1.8,2.4,2.3c0,0.4-0.4,0.4-0.9,0.4c-0.8,0-1.4-0.1-2.6-0.1c-1.3,0-1.9,0.1-2.6,0.1
			c-0.3,0-0.7,0-0.7-0.4c0-0.7,2.1,0.2,2.1-2.1V124.5z"/>
		<path class="st0" d="M303.6,124.1c-0.7-1.3-1.9-0.9-1.9-1.5c0-0.2,0.2-0.2,0.7-0.2c0.3,0,0.8,0.1,1.7,0.1c0.8,0,1.6,0,2.7-0.1
			c0.3,0,0.3,0.1,0.3,0.2c0,0.4-1,0.3-1,0.9c0,0.2,0,0.4,0.3,0.9l1.7,3.5c0.3,0.6,0.4,0.9,0.6,0.9c0.1,0,0.2-0.2,0.5-0.6l1.7-3.1
			c0.4-0.6,0.3-0.9,0.3-1c0-1.2-1.8-0.8-1.8-1.4c0-0.2,0.1-0.3,0.4-0.3c0.2,0,0.6,0.1,1.6,0.1c1.4,0,1.6-0.1,2.2-0.1
			c0.2,0,0.3,0.1,0.3,0.2c0,0.5-0.8,0.1-1.9,2.2l-2.5,4.6c-0.2,0.4-0.2,0.5-0.2,1.2v2.8c0,2.4,2.3,1.1,2.3,2c0,0.2-0.3,0.2-0.6,0.2
			c-0.1,0-0.4-0.1-2.8-0.1c-1.7,0-2.2,0.1-2.8,0.1c-0.3,0-0.5,0-0.5-0.2c0-0.8,2,0.2,2-2.2v-2.4c0-0.6-0.1-0.8-0.3-1.2L303.6,124.1z
			"/>
	</g>
	<g>
		<path class="st0" d="M202.7,76.3V39.9h-69.7V29.6c0-4.6,5-8.3,11.1-8.3h58.6V1.8h-74.3c-15.8,0-28.8,9.6-28.8,21.3v36.3h69.7v10.4
			c0,4.6-5,8.3-11.3,8.3H99.6v19.5h74.2C189.7,97.7,202.7,88.1,202.7,76.3z"/>
		<polygon class="st0" points="91.7,78.2 38.5,78.2 38.5,1.8 5.4,1.8 5.4,97.7 91.7,97.7 		"/>
		<path class="st0" d="M313.3,76.3V1.8h-33.2v68c0,4.7-5,8.4-11.3,8.4h-25.4V2.1h-32.9v95.6h74C300.4,97.7,313.3,88.1,313.3,76.3z"
			/>
	</g>
</g>
</svg>
