<?xml version="1.0" encoding="UTF-8" standalone="no"?>
<svg
   viewBox="0 0 1256.2904 316.26904"
   height="316.26904"
   width="1256.2904"
   xml:space="preserve"
   id="svg2"
   version="1.1"
   xmlns="http://www.w3.org/2000/svg"
   xmlns:svg="http://www.w3.org/2000/svg"
   xmlns:rdf="http://www.w3.org/1999/02/22-rdf-syntax-ns#"
   xmlns:cc="http://creativecommons.org/ns#"
   xmlns:dc="http://purl.org/dc/elements/1.1/"><metadata
     id="metadata8"><rdf:RDF><cc:Work
         rdf:about=""><dc:format>image/svg+xml</dc:format><dc:type
           rdf:resource="http://purl.org/dc/dcmitype/StillImage" /></cc:Work></rdf:RDF></metadata><defs
     id="defs6"><clipPath
       id="clipPath14"
       clipPathUnits="userSpaceOnUse"><path
         id="path12"
         d="M 0,0 H 1024 V 768 H 0 Z" /></clipPath><clipPath
       id="clipPath24"
       clipPathUnits="userSpaceOnUse"><path
         id="path22"
         d="M 0,0 H 1024 V 768 H 0 Z" /></clipPath><clipPath
       id="clipPath64"
       clipPathUnits="userSpaceOnUse"><path
         id="path62"
         d="M 173.4942,372.5085 H 294.8806 V 493.8949 H 173.4942 Z" /></clipPath><clipPath
       id="clipPath74"
       clipPathUnits="userSpaceOnUse"><path
         id="path72"
         d="M 180.6342,379.6485 H 287.7406 V 486.7549 H 180.6342 Z" /></clipPath><clipPath
       id="clipPath84"
       clipPathUnits="userSpaceOnUse"><path
         id="path82"
         d="m 38.27514,372.5085 h 121.3864 V 493.8949 H 38.27514 Z" /></clipPath><clipPath
       id="clipPath94"
       clipPathUnits="userSpaceOnUse"><path
         id="path92"
         d="m 45.41511,379.6485 h 107.1064 V 486.7549 H 45.41511 Z" /></clipPath><clipPath
       id="clipPath104"
       clipPathUnits="userSpaceOnUse"><path
         id="path102"
         d="M 105.8082,490.3239 H 227.1946 V 611.7103 H 105.8082 Z" /></clipPath><clipPath
       id="clipPath114"
       clipPathUnits="userSpaceOnUse"><path
         id="path112"
         d="M 112.9481,497.4638 H 220.0545 V 604.5702 H 112.9481 Z" /></clipPath><clipPath
       id="clipPath124"
       clipPathUnits="userSpaceOnUse"><path
         id="path122"
         d="M 193.9014,602.0435 V 499.9906 h -54.8 v 102.0529 z" /></clipPath><clipPath
       id="clipPath130"
       clipPathUnits="userSpaceOnUse"><path
         id="path128"
         d="M 0,0 H 1024 V 768 H 0 Z" /></clipPath><clipPath
       id="clipPath144"
       clipPathUnits="userSpaceOnUse"><path
         id="path142"
         d="m 217.37,488.7685 72.1623,-72.1623 -38.7495,-38.7494 -72.1622,72.1623 z" /></clipPath><clipPath
       id="clipPath150"
       clipPathUnits="userSpaceOnUse"><path
         id="path148"
         d="M 0,0 H 1024 V 768 H 0 Z" /></clipPath><clipPath
       id="clipPath164"
       clipPathUnits="userSpaceOnUse"><path
         id="path162"
         d="M 154.5352,450.0191 82.37289,377.8568 43.62344,416.6062 115.7857,488.7685 Z" /></clipPath><clipPath
       id="clipPath170"
       clipPathUnits="userSpaceOnUse"><path
         id="path168"
         d="M 0,0 H 1024 V 768 H 0 Z" /></clipPath></defs><g
     clip-path="url(#clipPath14)"
     transform="matrix(1.3333333,0,0,-1.3333333,-52.366852,814.28035)"
     id="g10"><g
       id="g16" /><g
       id="g18"><g
         clip-path="url(#clipPath24)"
         id="g20"><g
           transform="translate(551.4487,416.7969)"
           id="g28"><path
   id="text32"
   style="font-variant:normal;font-weight:normal;font-size:200px;font-family:LucidaGrande;-inkscape-font-specification:LucidaGrande;writing-mode:lr-tb;fill:#d5d5d5;fill-opacity:1;fill-rule:nonzero;stroke:none"
   d="m 57.81281,-154.1989 c -14.062486,9.5703 -25.228362,22.59018 -33.496583,39.06152 -8.203117,16.406236 -12.304688,33.886741 -12.304688,52.44141 0,18.619773 4.101571,36.166359 12.304688,52.637697 8.268221,16.4062333 19.434097,29.394541 33.496583,38.964844 V 15.624833 C 48.242507,5.2081765 41.406556,-5.9892751 37.304997,-17.96843 c -4.036454,-11.979154 -6.055664,-26.889016 -6.055664,-44.72754 0,-17.77342 2.01921,-32.648776 6.055664,-44.62793 4.101559,-11.97916 10.93751,-23.17807 20.507813,-33.59473 z"
   transform="scale(1,-1)" />
</g><g
           transform="translate(690.4487,416.7969)"
           id="g34"><path
   id="text38"
   style="font-variant:normal;font-weight:normal;font-size:200px;font-family:LucidaGrande;-inkscape-font-specification:LucidaGrande;writing-mode:lr-tb;fill:#d5d5d5;fill-opacity:1;fill-rule:nonzero;stroke:none"
   d="m 7.2263866,-154.1989 v 13.28027 c 9.5703024,10.41666 16.3732144,21.61557 20.4096684,33.59473 4.101558,11.979154 6.152344,26.85451 6.152344,44.62793 0,17.838524 -2.050786,32.748386 -6.152344,44.72754 C 23.599601,-5.9892751 16.796689,5.2081765 7.2263866,15.624833 V 28.906571 C 21.288873,19.336268 32.421708,6.3479603 40.624825,-10.058273 c 8.268221,-16.471338 12.402832,-34.017924 12.402832,-52.637697 0,-18.554669 -4.134611,-36.035174 -12.402832,-52.44141 -8.203117,-16.47134 -19.335952,-29.49122 -33.3984384,-39.06152 z"
   transform="scale(1,-1)" />
</g><g
           transform="translate(326.7098,424.7969)"
           id="g40"><path
   id="text44"
   style="font-variant:normal;font-weight:bold;font-size:200px;font-family:LucidaGrande;-inkscape-font-specification:LucidaGrande-Bold;writing-mode:lr-tb;fill:#5e5e5e;fill-opacity:1;fill-rule:nonzero;stroke:none"
   d="m 57.519478,-148.14421 c -14.388006,0 -25.976084,3.61328 -34.765138,10.83984 -8.723949,7.22655 -13.086914,16.79689 -13.086914,28.71094 0,8.91926 2.669765,16.731776 8.008301,23.437498 5.338536,6.640619 14.485202,13.605802 27.440919,20.897462 l 9.667969,5.371582 c 7.812492,4.427079 13.118981,8.268721 15.918457,11.523926 2.799476,3.190101 4.199707,7.127935 4.199707,11.81543 0,5.924473 -2.246098,10.611983 -6.738281,14.0625 -4.427079,3.450518 -10.51482,5.176758 -18.262208,5.176758 -11.067697,0 -24.382015,-3.255703 -39.9418953,-9.766113 V -1.2701874 C 25.324963,1.9850177 38.801553,3.6136018 50.390083,3.6136018 c 17.513004,0 31.250988,-3.80860164 41.211915,-11.4257815 9.960932,-7.6171803 14.941402,-18.1325013 14.941402,-31.5439463 0,-9.440095 -2.63672,-17.447924 -7.910151,-24.023438 -5.273433,-6.575514 -14.876806,-13.769051 -28.809083,-21.581543 l -10.352051,-5.761231 c -7.747388,-4.361975 -13.020837,-8.041344 -15.820313,-11.036132 -2.799477,-2.99479 -4.198242,-6.47738 -4.198242,-10.44873 0,-4.81771 1.984704,-8.69092 5.956054,-11.62061 4.036455,-2.99479 9.375984,-4.49267 16.016602,-4.49267 8.593742,0 20.279476,2.76742 35.058107,8.30127 v -23.14454 c -14.453111,-3.3203 -27.441419,-4.98046 -38.964845,-4.98046 z m 73.634772,40.91748 v 75.780761 c 0,10.48176 2.76742,18.750983 8.30127,24.8056643 5.53384,6.05468145 13.08643,9.0820315 22.65673,9.0820315 14.97395,0 27.14796,-7.5525873 36.52295,-22.6567388 V -1.6780743e-4 h 28.90577 V -107.22673 H 198.6352 v 67.480956 c -8.46353,12.955716 -17.25261,19.432617 -26.36718,19.432617 -8.13802,0 -12.20655,-6.086275 -12.20655,-18.260742 v -68.652831 z"
   transform="scale(1,-1)" />
</g><g
           transform="translate(588.4806,424.7969)"
           id="g46"><path
   id="text50"
   style="font-variant:normal;font-weight:bold;font-size:200px;font-family:LucidaGrande;-inkscape-font-specification:LucidaGrande-Bold;writing-mode:lr-tb;fill:#5e5e5e;fill-opacity:1;fill-rule:nonzero;stroke:none"
   d="m 83.496732,-109.66863 c -14.908839,0 -27.08432,7.55259 -36.524415,22.656741 V -107.22673 H 18.066555 V -1.6780743e-4 H 46.972317 V -67.481127 c 8.463533,-12.955716 17.285654,-19.432617 26.465333,-19.432617 8.072908,0 12.109863,6.086275 12.109863,18.260742 V -1.6780743e-4 H 114.45328 V -75.780931 c 0,-10.481761 -2.76743,-18.750984 -8.30127,-24.805669 -5.53385,-6.05468 -13.084975,-9.08203 -22.655278,-9.08203 z"
   transform="scale(1,-1)" />
</g><g
           transform="translate(735.9935,424.7969)"
           id="g52"><path
   id="text56"
   style="font-variant:normal;font-weight:bold;font-size:200px;font-family:LucidaGrande;-inkscape-font-specification:LucidaGrande-Bold;writing-mode:lr-tb;fill:#5e5e5e;fill-opacity:1;fill-rule:nonzero;stroke:none"
   d="m 83.496531,-109.66863 c -14.908839,0 -27.08432,7.55259 -36.524415,22.656741 V -107.22673 H 18.066354 V -1.6780743e-4 H 46.972116 V -67.481127 c 8.463533,-12.955716 17.285654,-19.432617 26.465333,-19.432617 8.072908,0 12.109863,6.086275 12.109863,18.260742 V -1.6780743e-4 H 114.45307 V -75.780931 c 0,-10.481761 -2.76742,-18.750984 -8.30126,-24.805669 -5.53385,-6.05468 -13.084976,-9.08203 -22.655279,-9.08203 z m 50.871099,2.4419 L 174.11323,-1.6780743e-4 149.79683,38.573564 h 29.4917 l 66.21093,-145.800294 h -21.97265 l -31.54248,71.679198 -26.56202,-71.679198 z"
   transform="scale(1,-1)" />
</g></g></g><g
       id="g58"><g
         clip-path="url(#clipPath64)"
         id="g60"><path
           id="path66"
           style="fill:#fff99b;fill-opacity:0.8599;fill-rule:nonzero;stroke:none"
           d="m 276.3969,475.4111 c 23.3116,-23.3116 23.3116,-61.1072 0,-84.4189 -23.3117,-23.3116 -61.1073,-23.3116 -84.419,0 -23.3116,23.3117 -23.3116,61.1073 0,84.4189 23.3117,23.3117 61.1073,23.3117 84.419,0 z" /></g></g><g
       id="g68"><g
         clip-path="url(#clipPath74)"
         id="g70"><path
           id="path76"
           style="fill:#9357b0;fill-opacity:1;fill-rule:nonzero;stroke:none"
           d="m 271.3481,470.3624 c 20.5234,-20.5233 20.5234,-53.7982 0,-74.3215 -20.5233,-20.5233 -53.7981,-20.5233 -74.3214,0 -20.5234,20.5233 -20.5234,53.7982 0,74.3215 20.5233,20.5233 53.7981,20.5233 74.3214,0 z" /></g></g><g
       id="g78"><g
         clip-path="url(#clipPath84)"
         id="g80"><path
           id="path86"
           style="fill:#fff99b;fill-opacity:0.8599;fill-rule:nonzero;stroke:none"
           d="m 141.1778,475.4111 c 23.3116,-23.3116 23.3116,-61.1072 0,-84.4189 -23.3117,-23.3116 -61.10729,-23.3116 -84.41893,0 -23.31164,23.3117 -23.31164,61.1073 0,84.4189 23.31164,23.3117 61.10723,23.3117 84.41893,0 z" /></g></g><g
       id="g88"><g
         clip-path="url(#clipPath94)"
         id="g90"><path
           id="path96"
           style="fill:#ca3932;fill-opacity:1;fill-rule:nonzero;stroke:none"
           d="m 136.1291,470.3624 c 20.5233,-20.5233 20.5233,-53.7982 0,-74.3215 -20.5233,-20.5233 -53.7982,-20.5233 -74.32151,0 -20.52331,20.5233 -20.52331,53.7982 0,74.3215 20.52331,20.5233 53.79821,20.5233 74.32151,0 z" /></g></g><g
       id="g98"><g
         clip-path="url(#clipPath104)"
         id="g100"><path
           id="path106"
           style="fill:#fff99b;fill-opacity:0.8599;fill-rule:nonzero;stroke:none"
           d="m 208.7108,593.2265 c 23.3117,-23.3116 23.3117,-61.1072 0,-84.4189 -23.3116,-23.3116 -61.1073,-23.3116 -84.4189,0 -23.3116,23.3117 -23.3116,61.1073 0,84.4189 23.3116,23.3117 61.1073,23.3117 84.4189,0 z" /></g></g><g
       id="g108"><g
         clip-path="url(#clipPath114)"
         id="g110"><path
           id="path116"
           style="fill:#389622;fill-opacity:1;fill-rule:nonzero;stroke:none"
           d="m 203.6621,588.1778 c 20.5233,-20.5233 20.5233,-53.7982 0,-74.3215 -20.5233,-20.5233 -53.7982,-20.5233 -74.3215,0 -20.5233,20.5233 -20.5233,53.7982 0,74.3215 20.5233,20.5233 53.7982,20.5233 74.3215,0 z" /></g></g><g
       id="g118"><g
         clip-path="url(#clipPath124)"
         id="g120"><g
           clip-path="url(#clipPath130)"
           id="g126"><g
             transform="matrix(0,-1,-1,0,166.5014,601.0435)"
             id="g132"><path
               id="path134"
               style="fill:none;stroke:#e5e5e5;stroke-width:14;stroke-linecap:butt;stroke-linejoin:miter;stroke-miterlimit:4;stroke-dasharray:none;stroke-opacity:1"
               d="m 32.6,0 h 7 60.4529" /></g><path
             id="path136"
             style="fill:#e5e5e5;fill-opacity:1;fill-rule:nonzero;stroke:none"
             d="m 192.9014,548.2435 -26.4,52.8 -26.4,-52.8 26.4,13.2 z" /></g></g></g><g
       id="g138"><g
         clip-path="url(#clipPath144)"
         id="g140"><g
           clip-path="url(#clipPath150)"
           id="g146"><g
             transform="matrix(0.7071068,-0.7071068,-0.7071068,-0.7071068,198.7024,468.6867)"
             id="g152"><path
               id="path154"
               style="fill:none;stroke:#e5e5e5;stroke-width:14;stroke-linecap:butt;stroke-linejoin:miter;stroke-miterlimit:4;stroke-dasharray:none;stroke-opacity:1"
               d="m 32.6,0 h 7 60.4529" /></g><path
             id="path156"
             style="fill:#e5e5e5;fill-opacity:1;fill-rule:nonzero;stroke:none"
             d="m 254.7052,450.0191 -56.0028,18.6676 18.6676,-56.0029 9.3338,28.0014 z" /></g></g></g><g
       id="g158"><g
         clip-path="url(#clipPath164)"
         id="g160"><g
           clip-path="url(#clipPath170)"
           id="g166"><g
             transform="matrix(-0.7071068,-0.7071068,-0.7071068,0.7071068,134.4533,468.6867)"
             id="g172"><path
               id="path174"
               style="fill:none;stroke:#e5e5e5;stroke-width:14;stroke-linecap:butt;stroke-linejoin:miter;stroke-miterlimit:4;stroke-dasharray:none;stroke-opacity:1"
               d="m 32.6,0 h 7 60.4529" /></g><path
             id="path176"
             style="fill:#e5e5e5;fill-opacity:1;fill-rule:nonzero;stroke:none"
             d="m 115.7857,412.6838 18.6676,56.0029 -56.00282,-18.6676 28.00142,-9.3339 z" /></g></g></g></g></svg>
