<?xml version="1.0" encoding="UTF-8" standalone="no"?>
<!-- Created with Inkscape (http://www.inkscape.org/) -->

<svg
   version="1.1"
   id="svg1"
   width="457.81332"
   height="102.26667"
   viewBox="0 0 457.81332 102.26667"
   xmlns="http://www.w3.org/2000/svg"
   xmlns:svg="http://www.w3.org/2000/svg">
  <defs
     id="defs1" />
  <g
     id="g1">
    <g
       id="group-R5">
      <path
         id="path2"
         d="m 3266.33,530.02 c 2.81,2.437 9.07,3.656 18.76,3.656 h 36.8 c 24.23,0 40.87,-1.172 49.94,-3.524 9.06,-2.347 15.08,-7.047 18.05,-14.089 1.87,-4.543 2.81,-9.321 2.81,-14.329 v -6.105 c 0,-4.856 1.52,-7.203 4.55,-7.047 2.72,0.156 4.47,1.367 5.27,3.625 0.8,2.262 1.6,7.922 2.4,16.969 l 0.94,13.804 c 0.78,10.301 1.41,16.54 1.88,18.723 0.46,2.188 0.7,3.981 0.7,5.387 0,4.519 -2.58,6.785 -7.75,6.785 -2.04,0 -5.17,-0.316 -9.4,-0.941 -2.03,-0.317 -7.67,-0.625 -16.91,-0.938 l -33.35,-1.644 c -14.71,-0.629 -31.62,-0.942 -50.73,-0.942 -31.47,0 -58.4,1.254 -80.79,3.758 -6.57,0.781 -11.82,1.176 -15.73,1.176 -7.05,0 -10.57,-2.149 -10.57,-6.438 0,-2.914 2.27,-4.367 6.81,-4.367 14.24,0 23.84,-3.883 28.77,-11.644 4.93,-7.762 7.4,-22.856 7.4,-45.278 V 287.855 l -0.24,-15.285 c 0,-18.82 -5.63,-29.8 -16.91,-32.941 l -8.92,-2.578 c -4.08,-1.071 -6.11,-2.91 -6.11,-5.52 0,-3.371 2.5,-5.051 7.52,-5.051 2.19,0 6.26,0.551 12.21,1.641 11.27,1.879 30.61,2.82 58.01,2.82 19.57,0 44.31,-1.41 74.22,-4.23 7.67,-0.621 13.77,-0.941 18.32,-0.941 20.98,0 38.35,8.429 52.13,25.281 11.43,14.039 17.15,26.14 17.15,36.277 0,4.215 -1.45,6.238 -4.33,6.086 -1.77,-0.156 -3.53,-1.566 -5.3,-4.226 -17.51,-27.719 -56.99,-41.567 -118.43,-41.567 -19.39,0 -31.47,1.641 -36.24,4.93 -4.77,3.301 -7.15,11.609 -7.15,24.937 v 86.586 l -0.23,7.762 c 0,4.703 1.28,7.84 3.86,9.41 2.58,1.57 7.7,2.356 15.35,2.356 h 51.8 c 13.44,0 22.97,-1.879 28.59,-5.637 5.62,-3.762 9.38,-10.887 11.25,-21.375 l 1.41,-6.574 c 0.64,-3.446 2.64,-5.168 6,-5.168 3.05,0 4.57,1.953 4.57,5.855 0,1.406 -0.16,3.672 -0.47,6.793 -0.94,9.375 -1.41,18.824 -1.41,28.352 0,12.488 0.69,26.312 2.09,41.465 0.17,2.343 0.26,4.058 0.26,5.152 0,4.058 -1.52,6.168 -4.57,6.328 -3.2,0.152 -5.2,-1.727 -6,-5.637 -2.04,-10.336 -4.31,-16.91 -6.81,-19.73 -2.51,-2.817 -7.99,-5.09 -16.44,-6.809 -9.55,-1.879 -22.55,-2.82 -38.99,-2.82 h -36.17 c -6.73,0 -10.76,0.746 -12.09,2.238 -1.33,1.492 -2,5.856 -2,13.082 v 94.758 c 0,8.328 1.41,13.711 4.22,16.145 z m -269.25,0 c 2.81,2.437 9.07,3.656 18.76,3.656 h 36.81 c 24.22,0 40.87,-1.172 49.93,-3.524 9.06,-2.347 15.08,-7.047 18.05,-14.089 1.88,-4.543 2.82,-9.321 2.82,-14.329 v -6.105 c 0,-4.856 1.51,-7.203 4.55,-7.047 2.71,0.156 4.46,1.367 5.26,3.625 0.8,2.262 1.6,7.922 2.4,16.969 l 0.94,13.804 c 0.78,10.301 1.41,16.54 1.88,18.723 0.47,2.188 0.7,3.981 0.7,5.387 0,4.519 -2.58,6.785 -7.75,6.785 -2.04,0 -5.17,-0.316 -9.39,-0.941 -2.04,-0.317 -7.68,-0.625 -16.91,-0.938 l -33.35,-1.644 c -14.72,-0.629 -31.63,-0.942 -50.73,-0.942 -31.47,0 -58.41,1.254 -80.8,3.758 -6.57,0.781 -11.82,1.176 -15.73,1.176 -7.05,0 -10.57,-2.149 -10.57,-6.438 0,-2.914 2.27,-4.367 6.81,-4.367 14.25,0 23.84,-3.883 28.77,-11.644 4.93,-7.762 7.4,-22.856 7.4,-45.278 V 287.855 l -0.23,-15.285 c 0,-18.82 -5.64,-29.8 -16.92,-32.941 l -8.92,-2.578 c -4.07,-1.071 -6.11,-2.91 -6.11,-5.52 0,-3.371 2.51,-5.051 7.52,-5.051 2.19,0 6.26,0.551 12.21,1.641 11.28,1.879 30.61,2.82 58.01,2.82 19.57,0 44.31,-1.41 74.22,-4.23 7.67,-0.621 13.78,-0.941 18.32,-0.941 20.98,0 38.36,8.429 52.14,25.281 11.42,14.039 17.14,26.14 17.14,36.277 0,4.215 -1.44,6.238 -4.33,6.086 -1.77,-0.156 -3.53,-1.566 -5.3,-4.226 -17.51,-27.719 -56.99,-41.567 -118.43,-41.567 -19.39,0 -31.47,1.641 -36.23,4.93 -4.77,3.301 -7.16,11.609 -7.16,24.937 v 86.586 l -0.23,7.762 c 0,4.703 1.29,7.84 3.87,9.41 2.57,1.57 7.69,2.356 15.35,2.356 h 51.79 c 13.44,0 22.97,-1.879 28.6,-5.637 5.62,-3.762 9.37,-10.887 11.25,-21.375 l 1.4,-6.574 c 0.64,-3.446 2.64,-5.168 6.01,-5.168 3.04,0 4.56,1.953 4.56,5.855 0,1.406 -0.16,3.672 -0.47,6.793 -0.94,9.375 -1.41,18.824 -1.41,28.352 0,12.488 0.7,26.312 2.09,41.465 0.17,2.343 0.26,4.058 0.26,5.152 0,4.058 -1.52,6.168 -4.56,6.328 -3.21,0.152 -5.21,-1.727 -6.01,-5.637 -2.03,-10.336 -4.31,-16.91 -6.81,-19.73 -2.51,-2.817 -7.98,-5.09 -16.44,-6.809 -9.55,-1.879 -22.55,-2.82 -38.99,-2.82 h -36.16 c -6.74,0 -10.77,0.746 -12.1,2.238 -1.33,1.492 -2,5.856 -2,13.082 v 94.758 c 0,8.328 1.41,13.711 4.22,16.145 z m -285.49,2.964 c -18.87,-15.957 -28.3,-36.613 -28.3,-61.953 0,-22.691 7.23,-41.152 21.69,-55.39 14.47,-14.239 39.06,-27.223 73.77,-38.957 33.62,-11.286 53.94,-19.985 60.98,-26.098 13.76,-11.91 20.64,-26.563 20.64,-43.957 0,-18.18 -7.45,-33.617 -22.37,-46.309 -14.91,-12.699 -33.14,-19.05 -54.69,-19.05 -21.23,0 -40.91,6.601 -59.02,19.789 -18.11,13.191 -29.98,29.527 -35.6,48.996 -2.24,7.539 -4.79,11.383 -7.66,11.543 -3.19,0.152 -4.79,-2.114 -4.79,-6.813 0,-5.953 2.04,-15.969 6.11,-30.066 3.6,-12.989 5.55,-20.117 5.87,-21.367 1.88,-8.774 3.29,-14.211 4.23,-16.321 0.94,-2.121 2.82,-4.109 5.63,-5.992 6.73,-4.539 17.34,-8.539 31.83,-11.98 14.48,-3.438 27.75,-5.168 39.81,-5.168 33.35,0 60.67,9.308 81.96,27.929 21.29,18.621 31.94,42.559 31.94,71.821 0,43.179 -28.92,74.238 -86.78,93.172 -29.71,9.875 -48.36,16.691 -55.94,20.457 -7.58,3.761 -14.58,9.718 -20.99,17.867 -7.35,9.562 -11.02,20.929 -11.02,34.093 0,14.891 5.65,27.313 16.97,37.262 11.32,9.953 25.41,14.934 42.26,14.934 21.23,0 40.47,-5.5 57.72,-16.496 17.25,-10.996 28.68,-24.981 34.3,-41.946 2.55,-7.543 5.1,-11.312 7.66,-11.312 3.34,0 5.02,2.426 5.02,7.281 0,1.25 -0.39,4.465 -1.17,9.629 l -3.76,24.191 c -2.04,13.153 -3.05,21.055 -3.05,23.719 0,7.828 -1.96,11.664 -5.88,11.512 -1.25,0 -2.11,-0.316 -2.58,-0.941 l -3.29,-2.817 c -1.88,-1.566 -3.76,-2.351 -5.63,-2.351 -1.41,0 -2.82,0.312 -4.23,0.941 l -16.21,6.812 c -11.59,4.852 -25.75,7.278 -42.51,7.278 -29.75,0 -54.06,-7.981 -72.92,-23.942 z m -252.95,0 c -18.86,-15.957 -28.3,-36.613 -28.3,-61.953 0,-22.691 7.23,-41.152 21.7,-55.39 14.46,-14.239 39.05,-27.223 73.77,-38.957 33.61,-11.286 53.94,-19.985 60.98,-26.098 13.76,-11.91 20.64,-26.563 20.64,-43.957 0,-18.18 -7.46,-33.617 -22.37,-46.309 -14.92,-12.699 -33.14,-19.05 -54.69,-19.05 -21.24,0 -40.91,6.601 -59.02,19.789 -18.12,13.191 -29.98,29.527 -35.6,48.996 -2.24,7.539 -4.79,11.383 -7.66,11.543 -3.2,0.152 -4.79,-2.114 -4.79,-6.813 0,-5.953 2.03,-15.969 6.1,-30.066 3.6,-12.989 5.56,-20.117 5.88,-21.367 1.87,-8.774 3.28,-14.211 4.22,-16.321 0.94,-2.121 2.82,-4.109 5.64,-5.992 6.73,-4.539 17.34,-8.539 31.82,-11.98 14.48,-3.438 27.75,-5.168 39.81,-5.168 33.35,0 60.67,9.308 81.97,27.929 21.29,18.621 31.94,42.559 31.94,71.821 0,43.179 -28.93,74.238 -86.78,93.172 -29.71,9.875 -48.36,16.691 -55.94,20.457 -7.59,3.761 -14.59,9.718 -20.99,17.867 -7.35,9.562 -11.03,20.929 -11.03,34.093 0,14.891 5.66,27.313 16.98,37.262 11.31,9.953 25.4,14.934 42.26,14.934 21.23,0 40.47,-5.5 57.71,-16.496 17.25,-10.996 28.68,-24.981 34.3,-41.946 2.55,-7.543 5.11,-11.312 7.66,-11.312 3.35,0 5.03,2.426 5.03,7.281 0,1.25 -0.4,4.465 -1.18,9.629 l -3.76,24.191 c -2.03,13.153 -3.05,21.055 -3.05,23.719 0,7.828 -1.96,11.664 -5.87,11.512 -1.26,0 -2.11,-0.316 -2.58,-0.941 l -3.29,-2.817 c -1.88,-1.566 -3.76,-2.351 -5.64,-2.351 -1.41,0 -2.82,0.312 -4.23,0.941 l -16.2,6.812 c -11.59,4.852 -25.76,7.278 -42.51,7.278 -29.75,0 -54.06,-7.981 -72.93,-23.942 z m -240.97,-2.964 c 2.81,2.437 9.06,3.656 18.75,3.656 h 36.81 c 24.22,0 40.87,-1.172 49.93,-3.524 9.07,-2.347 15.09,-7.047 18.05,-14.089 1.88,-4.543 2.82,-9.321 2.82,-14.329 v -6.105 c 0,-4.856 1.51,-7.203 4.55,-7.047 2.71,0.156 4.47,1.367 5.27,3.625 0.8,2.262 1.59,7.922 2.39,16.969 l 0.94,13.804 c 0.78,10.301 1.41,16.54 1.88,18.723 0.47,2.188 0.71,3.981 0.71,5.387 0,4.519 -2.59,6.785 -7.76,6.785 -2.03,0 -5.16,-0.316 -9.39,-0.941 -2.04,-0.317 -7.67,-0.625 -16.91,-0.938 l -33.35,-1.644 c -14.72,-0.629 -31.63,-0.942 -50.73,-0.942 -31.47,0 -58.4,1.254 -80.79,3.758 -6.58,0.781 -11.83,1.176 -15.74,1.176 -7.04,0 -10.57,-2.149 -10.57,-6.438 0,-2.914 2.27,-4.367 6.81,-4.367 14.25,0 23.84,-3.883 28.78,-11.644 4.93,-7.762 7.39,-22.856 7.39,-45.278 V 287.855 l -0.23,-15.285 c 0,-18.82 -5.64,-29.8 -16.91,-32.941 l -8.93,-2.578 c -4.07,-1.071 -6.1,-2.91 -6.1,-5.52 0,-3.371 2.5,-5.051 7.51,-5.051 2.19,0 6.26,0.551 12.22,1.641 11.27,1.879 30.6,2.82 58.01,2.82 19.57,0 44.3,-1.41 74.21,-4.23 7.67,-0.621 13.78,-0.941 18.32,-0.941 20.98,0 38.36,8.429 52.14,25.281 11.43,14.039 17.15,26.14 17.15,36.277 0,4.215 -1.45,6.238 -4.34,6.086 -1.76,-0.156 -3.53,-1.566 -5.29,-4.226 -17.52,-27.719 -56.99,-41.567 -118.44,-41.567 -19.39,0 -31.46,1.641 -36.23,4.93 -4.77,3.301 -7.15,11.609 -7.15,24.937 v 86.586 l -0.24,7.762 c 0,4.703 1.29,7.84 3.87,9.41 2.58,1.57 7.7,2.356 15.35,2.356 h 51.8 c 13.43,0 22.96,-1.879 28.59,-5.637 5.62,-3.762 9.37,-10.887 11.25,-21.375 l 1.41,-6.574 c 0.63,-3.446 2.64,-5.168 6,-5.168 3.04,0 4.56,1.953 4.56,5.855 0,1.406 -0.15,3.672 -0.47,6.793 -0.94,9.375 -1.4,18.824 -1.4,28.352 0,12.488 0.69,26.312 2.08,41.465 0.18,2.343 0.26,4.058 0.26,5.152 0,4.058 -1.52,6.168 -4.56,6.328 -3.2,0.152 -5.2,-1.727 -6,-5.637 -2.04,-10.336 -4.31,-16.91 -6.82,-19.73 -2.5,-2.817 -7.98,-5.09 -16.44,-6.809 -9.55,-1.879 -22.54,-2.82 -38.98,-2.82 h -36.17 c -6.74,0 -10.77,0.746 -12.1,2.238 -1.33,1.492 -1.99,5.856 -1.99,13.082 v 94.758 c 0,8.328 1.4,13.711 4.22,16.145 z M 2089.1,476.137 V 501.5 c 0,15.031 1.52,25.285 4.58,30.766 3.05,5.48 9.35,9.394 18.9,11.746 3.29,0.937 4.85,2.426 4.7,4.461 -0.32,3.289 -2.51,4.929 -6.58,4.929 -2.66,0 -6.5,-0.468 -11.51,-1.406 -5.79,-0.941 -13.54,-1.41 -23.25,-1.41 -18.16,0 -32.64,0.57 -43.45,1.707 -4.54,0.426 -7.83,0.641 -9.86,0.641 -4.54,0 -6.81,-1.454 -6.81,-4.36 0,-3.058 2.27,-4.976 6.81,-5.738 16.12,-2.664 27.28,-6.773 33.47,-12.332 6.18,-5.559 10.06,-14.992 11.62,-28.301 l 2.82,-54.015 -0.23,-31.708 V 300.223 c -0.16,-2.817 -1.02,-4.305 -2.59,-4.461 -0.94,-0.157 -3.13,1.722 -6.57,5.636 l -216.07,244.727 c -3.92,4.539 -7.84,6.809 -11.75,6.809 -2.03,0 -4.93,-0.079 -8.69,-0.235 l -3.76,-0.234 -15.73,0.469 -9.63,0.234 c -1.72,0.156 -2.98,0.234 -3.76,0.234 -3.44,0 -5.16,-1.453 -5.16,-4.355 0,-2.906 2.11,-4.664 6.34,-5.274 16.28,-2.191 28.73,-11.089 37.34,-26.675 8.61,-15.59 12.92,-36.942 12.92,-64.047 V 293.223 c 0,-16.922 -2.32,-29.192 -6.93,-36.793 -4.62,-7.602 -13.51,-13.668 -26.66,-18.211 -4.54,-1.528 -6.73,-3.438 -6.57,-5.739 0.31,-2.902 2.5,-4.359 6.57,-4.359 1.72,0 4.62,0.289 8.69,0.859 5.48,0.711 11.27,1.071 17.38,1.071 l 11.27,0.418 23.96,-1.168 c 11.9,-0.629 18.71,-1.102 20.43,-1.41 2.51,-0.313 4.85,-0.469 7.05,-0.469 3.29,0 4.93,1.527 4.93,4.59 0,3.367 -2.58,5.359 -7.75,5.976 -12.37,1.883 -20.67,4.774 -24.89,8.692 -4.23,3.922 -6.9,11.05 -7.99,21.398 l -0.7,16.692 0.23,9.875 v 159.402 c 0,7.055 1.49,10.582 4.46,10.582 1.25,0 2.35,-0.473 3.29,-1.41 l 2.35,-2.586 197.99,-226.403 5.16,-6.109 c 1.26,-1.25 3.06,-1.949 5.41,-2.109 3.6,-0.16 5.79,1.679 6.57,5.519 0.78,3.828 1.18,14.598 1.18,32.289 v 196.813 l 0.47,15.504 z m -340.66,0 V 501.5 c 0,15.031 1.53,25.285 4.58,30.766 3.05,5.48 9.35,9.394 18.9,11.746 3.29,0.937 4.86,2.426 4.7,4.461 -0.31,3.289 -2.5,4.929 -6.57,4.929 -2.67,0 -6.5,-0.468 -11.51,-1.406 -5.8,-0.941 -13.55,-1.41 -23.25,-1.41 -18.17,0 -32.65,0.57 -43.45,1.707 -4.55,0.426 -7.83,0.641 -9.87,0.641 -4.54,0 -6.81,-1.454 -6.81,-4.36 0,-3.058 2.27,-4.976 6.81,-5.738 16.13,-2.664 27.28,-6.773 33.47,-12.332 6.18,-5.559 10.06,-14.992 11.63,-28.301 l 2.81,-54.015 -0.23,-31.708 V 300.223 c -0.16,-2.817 -1.02,-4.305 -2.58,-4.461 -0.94,-0.157 -3.14,1.722 -6.58,5.636 l -216.07,244.727 c -3.92,4.539 -7.83,6.809 -11.74,6.809 -2.04,0 -4.94,-0.079 -8.69,-0.235 l -3.76,-0.234 -15.74,0.469 -9.63,0.234 c -1.72,0.156 -2.97,0.234 -3.76,0.234 -3.44,0 -5.16,-1.453 -5.16,-4.355 0,-2.906 2.11,-4.664 6.34,-5.274 16.28,-2.191 28.73,-11.089 37.34,-26.675 8.61,-15.59 12.92,-36.942 12.92,-64.047 V 293.223 c 0,-16.922 -2.31,-29.192 -6.93,-36.793 -4.62,-7.602 -13.5,-13.668 -26.66,-18.211 -4.54,-1.528 -6.73,-3.438 -6.57,-5.739 0.31,-2.902 2.5,-4.359 6.57,-4.359 1.73,0 4.62,0.289 8.69,0.859 5.48,0.711 11.28,1.071 17.38,1.071 l 11.28,0.418 23.95,-1.168 c 11.9,-0.629 18.71,-1.102 20.44,-1.41 2.5,-0.313 4.85,-0.469 7.04,-0.469 3.29,0 4.93,1.527 4.93,4.59 0,3.367 -2.58,5.359 -7.75,5.976 -12.37,1.883 -20.66,4.774 -24.89,8.692 -4.23,3.922 -6.89,11.05 -7.99,21.398 l -0.7,16.692 0.23,9.875 v 159.402 c 0,7.055 1.49,10.582 4.47,10.582 1.25,0 2.34,-0.473 3.28,-1.41 l 2.35,-2.586 197.99,-226.403 5.17,-6.109 c 1.25,-1.25 3.05,-1.949 5.4,-2.109 3.6,-0.16 5.79,1.679 6.57,5.519 0.79,3.828 1.18,14.598 1.18,32.289 v 196.813 l 0.47,15.504 z m -476.48,53.883 c 2.81,2.437 9.07,3.656 18.76,3.656 h 36.81 c 24.22,0 40.87,-1.172 49.93,-3.524 9.06,-2.347 15.08,-7.047 18.05,-14.089 1.88,-4.543 2.82,-9.321 2.82,-14.329 v -6.105 c 0,-4.856 1.51,-7.203 4.55,-7.047 2.71,0.156 4.46,1.367 5.26,3.625 0.8,2.262 1.6,7.922 2.4,16.969 l 0.94,13.804 c 0.78,10.301 1.41,16.54 1.88,18.723 0.47,2.188 0.7,3.981 0.7,5.387 0,4.519 -2.58,6.785 -7.75,6.785 -2.04,0 -5.17,-0.316 -9.39,-0.941 -2.04,-0.317 -7.68,-0.625 -16.91,-0.938 l -33.35,-1.644 c -14.72,-0.629 -31.63,-0.942 -50.73,-0.942 -31.48,0 -58.41,1.254 -80.8,3.758 -6.57,0.781 -11.82,1.176 -15.73,1.176 -7.05,0 -10.57,-2.149 -10.57,-6.438 0,-2.914 2.27,-4.367 6.81,-4.367 14.25,0 23.84,-3.883 28.77,-11.644 4.93,-7.762 7.4,-22.856 7.4,-45.278 V 287.855 l -0.24,-15.285 c 0,-18.82 -5.63,-29.8 -16.91,-32.941 l -8.92,-2.578 c -4.07,-1.071 -6.11,-2.91 -6.11,-5.52 0,-3.371 2.51,-5.051 7.52,-5.051 2.19,0 6.26,0.551 12.21,1.641 11.28,1.879 30.61,2.82 58.01,2.82 19.57,0 44.31,-1.41 74.22,-4.23 7.67,-0.621 13.77,-0.941 18.32,-0.941 20.98,0 38.36,8.429 52.14,25.281 11.42,14.039 17.14,26.14 17.14,36.277 0,4.215 -1.44,6.238 -4.33,6.086 -1.77,-0.156 -3.53,-1.566 -5.3,-4.226 -17.51,-27.719 -56.99,-41.567 -118.43,-41.567 -19.39,0 -31.47,1.641 -36.23,4.93 -4.78,3.301 -7.16,11.609 -7.16,24.937 v 86.586 l -0.23,7.762 c 0,4.703 1.29,7.84 3.87,9.41 2.57,1.57 7.69,2.356 15.35,2.356 h 51.79 c 13.44,0 22.97,-1.879 28.59,-5.637 5.63,-3.762 9.38,-10.887 11.26,-21.375 l 1.4,-6.574 c 0.64,-3.446 2.64,-5.168 6.01,-5.168 3.04,0 4.56,1.953 4.56,5.855 0,1.406 -0.16,3.672 -0.47,6.793 -0.94,9.375 -1.41,18.824 -1.41,28.352 0,12.488 0.7,26.312 2.09,41.465 0.17,2.343 0.26,4.058 0.26,5.152 0,4.058 -1.52,6.168 -4.57,6.328 -3.2,0.152 -5.2,-1.727 -6,-5.637 -2.04,-10.336 -4.31,-16.91 -6.81,-19.73 -2.51,-2.817 -7.98,-5.09 -16.44,-6.809 -9.55,-1.879 -22.55,-2.82 -38.99,-2.82 h -36.17 c -6.73,0 -10.76,0.746 -12.09,2.238 -1.33,1.492 -2,5.856 -2,13.082 v 94.758 c 0,8.328 1.41,13.711 4.22,16.145 z m -127.35,-8.911 c 4.54,-3.367 7.83,-10.605 9.87,-21.722 0.94,-5.016 2.82,-7.438 5.64,-7.282 3.44,0.309 5.08,2.805 4.93,7.489 -0.16,2.336 -0.63,6.156 -1.41,11.457 -0.79,4.211 -1.18,10.914 -1.18,20.121 0,9.195 -0.9,14.734 -2.7,16.605 -1.8,1.871 -7.01,2.809 -15.63,2.809 H 891.211 c -5.332,0 -8.82,-1.133 -10.461,-3.395 -1.648,-2.265 -2.469,-6.984 -2.469,-14.16 0,-7.336 -1.172,-16.621 -3.519,-27.855 -1.883,-8.738 -2.821,-14.746 -2.821,-18.024 0,-4.058 1.411,-6.168 4.231,-6.32 2.816,-0.156 4.93,2.82 6.34,8.926 3.129,14.09 7.547,23.68 13.269,28.769 5.707,5.086 14.91,7.633 27.598,7.633 h 62.23 c 5.95,0 9.75,-0.785 11.391,-2.351 1.648,-1.571 2.469,-5.18 2.469,-10.825 l 0.242,-6.117 V 273.75 c 0,-13.18 -2.121,-22.309 -6.352,-27.41 -4.218,-5.102 -12.371,-8.43 -24.418,-10 -5.171,-0.61 -7.75,-2.141 -7.75,-4.578 0,-3.371 2.348,-5.051 7.059,-5.051 1.57,0 6.82,0.469 15.77,1.41 4.55,0.469 10.109,0.707 16.71,0.707 l 18.35,0.231 17.18,-0.231 c 11.14,0 18.2,-0.238 21.18,-0.707 5.81,-0.941 9.65,-1.41 11.53,-1.41 4.4,0 6.6,1.687 6.6,5.059 0,2.601 -2.75,4.359 -8.22,5.281 -19.73,3.449 -29.99,14.347 -30.77,32.687 l -0.24,9.184 v 230.539 c 0,7.367 0.9,11.996 2.7,13.879 1.8,1.879 6.15,2.82 13.04,2.82 h 66 c 13.15,0 21.99,-1.683 26.53,-5.051 v 0"
         style="fill:#505256;fill-opacity:1;fill-rule:nonzero;stroke:none"
         transform="matrix(0.13333333,0,0,-0.13333333,0,102.26667)" />
      <path
         id="path3"
         d="m 3349.97,743.613 c 0,3.77 0.78,6.407 2.35,7.907 1.57,1.503 4.35,2.253 8.33,2.253 l 4.29,0.106 13.62,-0.106 c 15.57,0 24.78,-4.589 27.65,-13.765 0.35,-1.043 0.52,-2.258 0.52,-3.649 v -3.546 c 0,-1.95 0.74,-2.918 2.2,-2.918 2.65,0 3.98,2.871 3.98,8.613 0,1.121 -0.1,2.484 -0.31,4.097 l -1.05,7.985 c -0.07,0.699 -0.28,3.258 -0.63,7.672 -0.21,3.64 -1.15,5.461 -2.83,5.461 -1.74,0 -4.43,-0.149 -8.06,-0.442 -9.85,-0.808 -19.48,-1.211 -28.91,-1.211 l -27.54,-0.113 -18.02,-0.328 c -4.68,0 -9.11,0.172 -13.3,0.523 -2.86,0.211 -4.68,0.313 -5.45,0.313 -2.37,0 -3.56,-1.031 -3.56,-3.094 0,-1.566 0.91,-2.422 2.73,-2.558 6.7,-0.352 11.8,-2.059 15.29,-5.125 3.07,-2.653 4.61,-8.368 4.61,-17.153 v -86.062 c 0,-8.364 -0.74,-14.254 -2.2,-17.672 -1.47,-3.418 -4.3,-5.821 -8.49,-7.215 -1.95,-0.641 -2.93,-1.637 -2.93,-2.988 0,-1.848 1.15,-2.774 3.46,-2.774 1.74,0 5.16,0.352 10.26,1.051 3.77,0.488 8.27,0.73 13.51,0.73 h 11.63 c 7.61,0 12.67,-0.14 15.18,-0.417 2.66,-0.348 4.68,-0.524 6.08,-0.524 1.53,0 2.3,0.957 2.3,2.879 0,1.707 -1.11,2.668 -3.35,2.883 -7.96,0.625 -13.27,2.683 -15.92,6.168 -3.63,4.738 -5.44,12.34 -5.44,22.797 v 12.339 l -0.11,8.364 c 0,8.715 0.8,13.734 2.41,15.058 1.6,1.325 7.65,1.989 18.12,1.989 8.17,0 13.89,-1.258 17.18,-3.77 3.28,-2.516 5.62,-7.437 7.01,-14.769 0.35,-1.954 1.19,-2.899 2.52,-2.829 1.88,0.141 2.82,0.942 2.82,2.407 0,0.902 -0.07,2.402 -0.2,4.492 l -1.58,19.754 c -0.41,5.433 -0.62,10.172 -0.62,14.215 0,1.254 0.03,2.332 0.1,3.238 0.14,1.324 0.21,2.23 0.21,2.719 0,1.808 -1.05,2.718 -3.14,2.718 -0.91,0 -1.68,-0.804 -2.31,-2.41 -2.58,-6.496 -5.2,-10.859 -7.85,-13.093 -2.66,-2.235 -6.57,-3.352 -11.73,-3.352 l -11.42,-0.102 -3.98,-0.105 c -2.93,0 -4.9,0.66 -5.92,1.988 -1.01,1.328 -1.51,3.946 -1.51,7.856 v 33.515 z m -124.05,0.317 c 6.63,-6.149 11.94,-14.438 15.92,-24.875 3.98,-10.442 5.97,-21.141 5.97,-32.106 0,-18.992 -4.29,-34.16 -12.88,-45.504 -8.59,-11.347 -20.04,-17.019 -34.36,-17.019 -15.85,0 -28.73,6.859 -38.64,20.578 -9.92,13.723 -14.88,31.543 -14.88,53.469 0,18.574 3.95,33.058 11.84,43.465 7.89,10.402 18.85,15.605 32.89,15.605 13.12,0 24.5,-4.539 34.14,-13.613 v 0 z m -59.86,15.129 c -10.44,-4.231 -19.04,-10.082 -25.81,-17.555 -5.87,-6.359 -10.51,-14.238 -13.93,-23.637 -3.43,-9.398 -5.14,-18.847 -5.14,-28.351 0,-22.149 6.78,-39.844 20.32,-53.086 13.55,-13.242 31.63,-19.86 54.26,-19.86 23.67,0 42.24,7.614 55.72,22.848 13.82,15.582 20.73,34.586 20.73,57.016 0,20.613 -6.7,37.257 -20.11,49.941 -13.4,12.684 -31,19.023 -52.78,19.023 -11.73,0 -22.82,-2.113 -33.26,-6.339 z m -210.47,-76.45 c 0.32,1.329 1.21,3.075 2.67,5.235 7.4,11.652 15.54,26.023 24.41,43.117 4.96,9.559 9.06,16.047 12.3,19.465 3.25,3.418 7.49,5.758 12.73,7.012 2.51,0.57 3.77,1.601 3.77,3.097 0,1.637 -0.94,2.453 -2.83,2.453 -3.29,0 -6.05,-0.066 -8.29,-0.207 l -8.82,-0.523 c -2.8,-0.211 -5.35,-0.317 -7.66,-0.317 -4.27,0 -7.77,0.176 -10.49,0.524 l -6.93,0.945 c -1.61,0.207 -3.39,0.313 -5.35,0.313 -1.82,0 -2.73,-1.102 -2.73,-3.305 0,-1.422 1.12,-2.273 3.35,-2.559 4.4,-0.421 8.31,-1.918 11.73,-4.496 3.42,-2.582 5.13,-5.336 5.13,-8.261 0,-3.485 -3.82,-12.129 -11.47,-25.93 -3.75,-6.695 -6.08,-10.945 -6.98,-12.758 -3.62,-7.109 -6.54,-10.664 -8.76,-10.664 -2.24,0 -4.54,2.438 -6.92,7.316 -0.77,1.672 -2.83,5.719 -6.18,12.133 l -8.17,15.891 c -5.11,9.898 -7.66,16.312 -7.66,19.238 0,3.625 2.69,5.961 8.07,7.004 2.37,0.5 3.56,1.496 3.56,2.992 0,1.778 -1.46,2.664 -4.39,2.664 -1.46,0 -4.36,-0.207 -8.68,-0.625 -5.85,-0.629 -11.61,-0.945 -17.25,-0.945 -6.14,0 -12.97,0.422 -20.49,1.258 -3.7,0.418 -6.42,0.629 -8.16,0.629 -1.95,0 -2.93,-1.102 -2.93,-3.301 0,-1.777 1.29,-2.77 3.88,-2.984 8.51,-0.836 15.95,-7.25 22.31,-19.239 l 15.92,-29.91 c 4.39,-8.363 8.41,-15.547 12.04,-21.543 3.07,-5.019 4.61,-9.863 4.61,-14.535 V 651.82 c 0,-9.34 -1.38,-15.894 -4.14,-19.66 -2.76,-3.762 -8.05,-6.273 -15.87,-7.527 -1.95,-0.285 -2.93,-1.067 -2.93,-2.348 0,-2.344 0.8,-3.515 2.41,-3.515 1.32,0 3.41,0.246 6.27,0.73 4.32,0.77 13,1.152 26.04,1.152 5.44,0 9.52,-0.144 12.24,-0.437 l 14.85,-1.324 c 1.95,-0.219 3.76,-0.332 5.44,-0.332 3.14,0 4.7,1.031 4.7,3.089 0,1.848 -1.11,2.844 -3.35,2.985 -12.77,0.699 -19.76,4.988 -20.94,12.875 l -0.53,7.113 v 30.871 c 0,3.422 0.16,5.793 0.47,7.117 z m -165.03,66.922 c 2.62,1.641 9.23,2.461 19.85,2.461 7.89,0 13.91,-1.437 18.06,-4.316 4.16,-2.875 6.97,-7.574 8.43,-14.098 0.63,-2.668 1.75,-4 3.36,-4 1.88,0 2.82,1.152 2.82,3.457 0,2.235 -0.24,5.199 -0.73,8.903 -0.63,4.468 -0.98,7.296 -1.05,8.484 l -0.52,7.543 c -0.21,3.211 -2.24,4.816 -6.08,4.816 -1.04,0 -3.38,-0.07 -7.01,-0.211 -18.37,-0.906 -35.75,-1.359 -52.16,-1.359 l -25.45,0.312 -21.37,0.211 c -5.03,0 -8.9,0.106 -11.62,0.313 -1.68,0.141 -2.87,0.211 -3.57,0.211 -2.65,0 -4.12,-1.363 -4.39,-4.086 l -0.74,-6.391 -1.25,-9.32 -1.05,-9.109 c -0.63,-3.497 -0.98,-6.219 -1.05,-8.172 -0.14,-2.164 0.94,-3.246 3.25,-3.246 1.6,0 2.79,1.433 3.56,4.308 l 0.84,2.946 c 2.09,7.632 3.75,12.417 4.97,14.343 1.22,1.93 3.68,3.66 7.39,5.203 5.09,2.032 14.62,3.047 28.59,3.047 5.93,0 8.9,-2.758 8.9,-8.273 v -93.004 l 0.11,-4.922 c 0,-6.219 -1.49,-11.121 -4.46,-14.719 -2.96,-3.593 -7.17,-5.566 -12.62,-5.914 -2.09,-0.144 -3.45,-0.445 -4.08,-0.906 -0.63,-0.461 -0.98,-1.473 -1.05,-3.031 -0.07,-1.844 0.98,-2.77 3.14,-2.77 0.91,0 2.59,0.145 5.03,0.422 l 23.15,1.359 c 3.21,0.211 6.84,0.317 10.89,0.317 1.74,0 3.14,-0.035 4.19,-0.106 l 13.09,-0.836 7.86,-0.316 c 1.25,-0.066 2.13,-0.105 2.62,-0.105 2.16,0 3.24,0.816 3.24,2.449 0,2.273 -1.25,3.519 -3.77,3.73 -8.66,0.559 -14.7,3.301 -18.12,8.223 -3.42,4.922 -5.13,13.281 -5.13,25.086 v 78.863 c 0,6.496 1.31,10.563 3.93,12.203 z m -136.85,-8.523 c 0,6 0.72,9.976 2.15,11.93 1.43,1.957 4.66,3.347 9.69,4.187 1.39,0.215 2.27,0.531 2.62,0.957 0.34,0.426 0.52,1.281 0.52,2.559 0,1.707 -1.15,2.558 -3.46,2.558 -3.84,0 -9.35,-0.265 -16.55,-0.797 l -7.64,-0.597 c -5.8,-0.469 -10.65,-0.7 -14.56,-0.7 -5.93,0 -10.16,0.278 -12.67,0.836 -2.52,0.489 -4.4,0.77 -5.66,0.84 -1.67,0.067 -2.51,-0.886 -2.51,-2.871 0,-1.273 0.5,-2.18 1.52,-2.707 1.01,-0.531 3.3,-1.082 6.86,-1.648 5.93,-0.907 10.02,-2.723 12.25,-5.438 2.24,-2.722 3.35,-7.289 3.35,-13.699 v -83.344 l -0.1,-9.304 c 0,-6.067 -0.82,-10.407 -2.46,-13.02 -1.64,-2.617 -4.98,-4.828 -10.01,-6.641 l -3.03,-2.453 0.21,-0.855 c 0.42,-1.492 1.39,-2.242 2.93,-2.242 1.53,0 4.05,0.336 7.54,1 4.05,0.726 9.57,1.093 16.55,1.093 5.65,0 13.02,-0.515 22.1,-1.543 3.63,-0.367 6.42,-0.55 8.38,-0.55 4.53,0 6.8,1.031 6.8,3.089 0,2.129 -1.71,3.196 -5.13,3.196 -5.23,0 -9.48,1.429 -12.72,4.289 -3.25,2.859 -5.29,6.976 -6.13,12.351 l -0.84,10.465 v 89.059 z m -160.53,12.551 c -7.51,-7.758 -11.26,-17.399 -11.26,-28.926 0,-9.922 2.69,-17.867 8.08,-23.844 5.38,-5.973 15.59,-12.312 30.62,-19.019 l 15.95,-7.114 c 7.13,-3.136 12.15,-6.476 15.05,-10.027 2.9,-3.551 4.35,-8.074 4.35,-13.574 0,-6.965 -2.78,-13.145 -8.34,-18.539 -5.56,-5.395 -11.87,-8.09 -18.93,-8.09 -9.09,0 -17.87,4.074 -26.33,12.222 -8.46,8.149 -14.4,18.219 -17.83,30.2 -0.42,1.672 -1.12,2.507 -2.09,2.507 -2.17,0 -3.25,-1.675 -3.25,-5.027 0,-2.652 1.33,-8.73 3.98,-18.223 1.74,-6.214 2.79,-10.964 3.14,-14.246 0.35,-3.004 0.79,-4.8 1.31,-5.394 0.52,-0.594 2.39,-1.203 5.6,-1.832 2.31,-0.488 5.9,-1.535 10.79,-3.141 10.48,-3.281 18.12,-4.922 22.94,-4.922 11.8,0 22.1,4.504 30.9,13.516 8.79,9.008 13.19,19.594 13.19,31.75 0,11.035 -3.18,20.465 -9.54,28.289 -5.38,6.496 -16.36,13.133 -32.94,19.91 -13.91,5.653 -22.2,9.735 -24.85,12.246 -4.13,3.895 -6.19,8.52 -6.19,13.875 0,5.774 2.34,10.782 7.03,15.024 4.68,4.242 10.17,6.363 16.47,6.363 9.16,0 17.83,-3.551 26.01,-10.652 8.19,-7.106 13.29,-15.532 15.32,-25.282 0.56,-2.648 1.47,-3.968 2.72,-3.968 1.75,0 2.62,1.5 2.62,4.504 0,0.554 -0.07,1.253 -0.21,2.093 l -1.04,9.532 -1.37,10.261 c -0.14,1.188 -0.21,2.446 -0.21,3.774 l 0.21,8.48 c 0,2.305 -0.73,3.457 -2.2,3.457 -0.56,0 -1.12,-0.14 -1.68,-0.418 l -3.98,-1.992 c -1.05,-0.488 -2.07,-0.73 -3.05,-0.73 -1.32,0 -3.56,0.628 -6.7,1.882 l -7.01,2.934 c -6.29,2.516 -12.71,3.773 -19.27,3.773 -11.17,0 -20.51,-3.878 -28.01,-11.632 z m -143.49,-0.676 c 1.78,1.988 5.05,2.984 9.81,2.984 10.64,0 19.4,-3.437 26.3,-10.316 6.89,-6.879 10.34,-15.59 10.34,-26.129 0,-8.102 -2.56,-14.457 -7.67,-19.063 -2.59,-2.375 -5.37,-3.789 -8.34,-4.242 -2.98,-0.457 -10.69,-0.683 -23.15,-0.683 -4.33,0 -7.08,0.593 -8.23,1.781 -1.16,1.187 -1.74,4.015 -1.74,8.484 v 36.239 c 0,5.304 0.9,8.957 2.68,10.945 z m -2.68,-71.473 c 0,2.789 0.53,4.461 1.57,5.02 l 4.72,0.836 h 6.49 c 5.52,0 9.5,-1.032 11.94,-3.09 2.44,-2.059 5.55,-6.965 9.31,-14.715 9.69,-19.621 17.56,-32.957 23.62,-40.012 6.06,-7.051 12.68,-10.574 19.86,-10.574 4.42,0 9.48,1.289 15.2,3.875 5.71,2.582 8.57,4.887 8.57,6.906 0,1.606 -0.62,2.41 -1.88,2.41 -0.7,0 -1.47,-0.105 -2.31,-0.316 -1.39,-0.277 -2.89,-0.418 -4.5,-0.418 -3.91,0 -7.31,1.254 -10.21,3.766 -2.9,2.511 -6.2,7.011 -9.9,13.5 l -10.79,19.152 -9.32,16.531 c -1.25,2.301 -2.2,3.942 -2.83,4.918 -0.62,0.977 -0.97,1.817 -1.04,2.512 -0.07,0.84 0.59,1.539 1.99,2.098 6.77,2.933 12.09,7.23 15.97,12.89 3.87,5.66 5.81,11.949 5.81,18.867 0,10.973 -4.36,20.075 -13.09,27.305 -8.73,7.234 -19.73,10.852 -32.99,10.852 -4.47,0 -12.61,-0.453 -24.41,-1.36 -10.05,-0.769 -18.6,-1.152 -25.66,-1.152 -6.42,0 -12.32,0.277 -17.7,0.836 -1.74,0.211 -3,0.316 -3.77,0.316 -1.95,0 -2.93,-0.996 -2.93,-2.98 0,-1.988 1.43,-3.195 4.29,-3.621 7.75,-0.973 13.34,-3.793 16.76,-8.461 2.1,-2.856 3.14,-8.465 3.14,-16.824 v -75.649 l -0.1,-4.074 v -9.926 c 0,-5.09 -0.91,-8.867 -2.72,-11.34 -1.82,-2.472 -5.1,-4.437 -9.85,-5.902 -1.4,-0.426 -2.09,-1.422 -2.09,-2.988 0,-1.918 1.25,-2.875 3.77,-2.875 0.76,0 2.13,0.097 4.08,0.297 l 7.02,0.597 8.8,0.801 c 3.63,0.262 7.78,0.398 12.46,0.398 5.59,0 11.38,-0.246 17.39,-0.734 2.09,-0.207 3.52,-0.312 4.29,-0.312 2.37,0 3.56,0.992 3.56,2.98 0,1.988 -1.46,3.121 -4.4,3.406 -7.19,0.699 -12.01,3.399 -14.45,8.102 -2.45,4.707 -3.67,13.68 -3.67,26.926 v 21.226 z m -151.21,61.367 c 0,5.934 1.78,9.461 5.34,10.578 l 7.12,0.836 h 12.78 c 11.31,0 19.49,-1.558 24.56,-4.679 5.06,-3.121 7.59,-8.153 7.59,-15.094 0,-3.156 0.66,-4.699 1.99,-4.629 2.72,0.141 4.09,2.863 4.09,8.168 0,2.652 -0.28,7.02 -0.84,13.094 -0.42,4.117 -0.63,6.98 -0.63,8.59 0,2.3 -1.01,3.453 -3.04,3.453 -0.42,0 -0.91,-0.035 -1.46,-0.106 -5.31,-0.625 -19.38,-0.941 -42.21,-0.941 l -39.7,0.418 -10.58,0.422 c -2.16,0 -3.87,0.035 -5.13,0.101 -1.61,0.141 -2.65,0.211 -3.14,0.211 -2.3,0 -3.46,-0.816 -3.46,-2.453 0,-1.781 0.95,-2.812 2.83,-3.098 8.03,-1.117 13.32,-3.066 15.87,-5.855 2.55,-2.789 3.82,-8.09 3.82,-15.895 v -82.925 c 0,-6.348 -0.38,-11.368 -1.15,-15.059 -0.84,-4.394 -1.97,-7.441 -3.4,-9.152 -1.44,-1.707 -4.14,-3.328 -8.12,-4.864 -1.61,-0.64 -2.38,-1.601 -2.31,-2.882 0.14,-1.571 1.05,-2.352 2.73,-2.352 1.25,0 3.31,0.106 6.18,0.313 10.4,0.628 18.15,0.945 23.25,0.945 7.61,0 13.65,-0.211 18.12,-0.629 l 12.15,-1.152 c 5.44,-0.559 10.4,-0.84 14.87,-0.84 7.61,0 13.72,1.176 18.33,3.519 4.61,2.344 8.45,6.246 11.52,11.711 3.7,6.442 5.55,13.094 5.55,19.953 0,0.911 -0.3,1.661 -0.89,2.258 -0.59,0.594 -1.24,0.824 -1.94,0.684 -0.35,-0.071 -0.77,-0.524 -1.25,-1.363 -8.73,-17.247 -27.27,-25.868 -55.62,-25.868 -3.35,0 -5.83,0.555 -7.44,1.672 -1.6,1.117 -3,3.242 -4.18,6.379 -1.54,4.32 -2.31,11.399 -2.31,21.227 v 9.41 c 0,7.527 0.21,13.035 0.63,16.519 0.42,3.067 1.24,5.106 2.46,6.118 1.22,1.011 3.51,1.515 6.86,1.515 h 7.12 c 7.19,0 12.1,-0.246 14.72,-0.73 2.62,-0.492 4.83,-1.575 6.65,-3.25 3.28,-3.071 5.38,-7.575 6.28,-13.508 0.42,-2.793 1.5,-4.121 3.25,-3.981 0.84,0.067 1.4,0.313 1.68,0.735 0.21,0.347 0.31,1.015 0.31,1.992 l -0.1,5.352 c 0,3.988 -0.21,8.679 -0.63,14.066 -0.63,8.258 -0.95,13.504 -0.95,15.742 0,1.262 0.07,2.801 0.21,4.617 0.21,2.52 0.32,4.059 0.32,4.621 0,1.957 -0.77,2.903 -2.31,2.832 -1.46,-0.07 -2.51,-0.734 -3.14,-1.988 l -2.41,-5.133 c -3.77,-7.613 -9.11,-11.418 -16.02,-11.418 h -8.9 l -4.61,-0.101 -3.14,-0.106 c -3.64,0 -5.92,0.871 -6.87,2.618 -0.94,1.746 -1.41,5.867 -1.41,12.359 v 22.726 l 0.11,4.297 z m -180.08,5.453 c 0,5.094 2.58,8.094 7.75,9 2.93,0.567 4.4,1.668 4.4,3.301 0,1.918 -0.98,2.879 -2.93,2.879 -1.39,0 -4.43,-0.14 -9.1,-0.422 l -10.97,-0.523 -17.57,0.523 c -4.74,0 -8.89,0.211 -12.44,0.629 -1.53,0.141 -2.58,0.211 -3.14,0.211 -1.95,0 -2.92,-0.961 -2.92,-2.875 0,-1.773 1.39,-2.945 4.19,-3.515 4.88,-1.047 8.74,-3.625 11.57,-7.747 2.83,-4.117 6.65,-12.593 11.47,-25.429 4.05,-10.953 9.11,-23.336 15.18,-37.153 l 24.83,-56.304 2.62,-6.387 2.4,-5.336 c 0.78,-1.676 1.84,-2.512 3.19,-2.512 1.98,0 3.64,1.571 4.98,4.707 0.49,1.188 2.62,5.653 6.39,13.399 0.49,0.906 3.63,7.812 9.43,20.719 l 17.91,39.46 15.61,36.106 c 4.74,10.676 8.39,17.703 10.94,21.09 2.55,3.383 5.85,5.457 9.9,6.226 2.09,0.426 3.14,1.457 3.14,3.094 0,1.777 -0.63,2.664 -1.88,2.664 -0.98,0 -2.37,-0.137 -4.18,-0.418 -4.67,-0.836 -10.18,-1.254 -16.52,-1.254 -2.09,0 -5.61,0.137 -10.56,0.418 l -10.97,0.629 c -3,0.137 -4.95,0.207 -5.85,0.207 -1.75,0 -2.62,-0.816 -2.62,-2.457 0,-1.637 1.22,-2.597 3.67,-2.883 5.65,-0.839 10,-2.632 13.04,-5.39 3.03,-2.754 4.55,-6.293 4.55,-10.621 0,-7.602 -3.88,-19.985 -11.66,-37.145 l -23.64,-52.316 c -0.92,-2.024 -1.76,-3 -2.53,-2.93 -0.84,0.07 -1.79,1.359 -2.84,3.871 l -23.37,57.234 c -7.65,18.555 -11.47,30.973 -11.47,37.25 v 0 z m -98.69,-7.222 c 0,6 0.71,9.976 2.15,11.93 1.43,1.957 4.66,3.347 9.68,4.187 1.4,0.215 2.27,0.531 2.62,0.957 0.35,0.426 0.53,1.281 0.53,2.559 0,1.707 -1.16,2.558 -3.46,2.558 -3.84,0 -9.36,-0.265 -16.55,-0.797 l -7.64,-0.597 c -5.8,-0.469 -10.65,-0.7 -14.56,-0.7 -5.94,0 -10.16,0.278 -12.68,0.836 -2.51,0.489 -4.4,0.77 -5.65,0.84 -1.68,0.067 -2.52,-0.886 -2.52,-2.871 0,-1.273 0.51,-2.18 1.52,-2.707 1.01,-0.531 3.3,-1.082 6.86,-1.648 5.94,-0.907 10.02,-2.723 12.26,-5.438 2.23,-2.722 3.35,-7.289 3.35,-13.699 v -83.344 l -0.11,-9.304 c 0,-6.067 -0.82,-10.407 -2.46,-13.02 -1.64,-2.617 -4.97,-4.828 -10,-6.641 l -3.04,-2.453 0.21,-0.855 c 0.42,-1.492 1.4,-2.242 2.94,-2.242 1.53,0 4.04,0.336 7.54,1 4.05,0.726 9.56,1.093 16.54,1.093 5.66,0 13.03,-0.515 22.1,-1.543 3.63,-0.367 6.43,-0.55 8.38,-0.55 4.54,0 6.81,1.031 6.81,3.089 0,2.129 -1.71,3.196 -5.13,3.196 -5.24,0 -9.48,1.429 -12.73,4.289 -3.24,2.859 -5.29,6.976 -6.12,12.351 l -0.84,10.465 v 89.059 z m -185.97,3.863 -7.21,8.484 c -4.05,4.817 -6.69,7.696 -7.95,8.641 -1.25,0.942 -2.96,1.414 -5.12,1.414 -1.54,0 -3.46,-0.105 -5.78,-0.316 -6.23,-0.629 -12.07,-0.942 -17.53,-0.942 l -4.41,-0.105 -7.25,0.316 c -2.38,0 -3.57,-1 -3.57,-2.992 0,-1.633 1.08,-2.523 3.25,-2.664 15.84,-1.117 23.77,-12.402 23.77,-33.855 v -45.348 l -0.73,-24.871 c 0,-8.567 -1.17,-15.133 -3.51,-19.695 -2.34,-4.563 -6.06,-7.575 -11.16,-9.04 -2.02,-0.566 -3.03,-1.562 -3.03,-2.988 0,-1.707 0.94,-2.562 2.83,-2.562 1.12,0 2.9,0.203 5.35,0.601 5.53,0.996 11.82,1.496 18.89,1.496 7.14,0 13.64,-0.492 19.52,-1.468 1.89,-0.278 3.25,-0.418 4.09,-0.418 2.17,0 3.26,1.066 3.26,3.195 0,1.566 -1.05,2.457 -3.15,2.672 -11.31,1.043 -18.12,5.472 -20.42,13.285 -2.16,7.324 -3.25,21.836 -3.25,43.527 v 40.598 l 0.11,3.035 c 0,3.141 0.83,4.707 2.51,4.707 0.63,0 1.78,-0.906 3.45,-2.723 l 95.28,-105.886 c 1.33,-1.469 2.62,-2.235 3.87,-2.305 1.41,-0.07 2.12,0.871 2.12,2.824 l -0.42,13.082 -0.11,7.953 0.11,11.622 0.42,9 1.48,65.41 v 5.129 c 0,14.3 4.51,22.289 13.52,23.964 2.23,0.356 3.35,1.422 3.35,3.196 0,1.988 -1.12,2.984 -3.36,2.984 -0.63,0 -1.65,-0.07 -3.04,-0.211 -10.5,-1.328 -18.16,-1.988 -22.99,-1.988 -2.38,0 -5.38,0.211 -9.02,0.629 -5.6,0.695 -9.66,1.047 -12.17,1.047 -2.03,0 -3.05,-0.926 -3.05,-2.782 0,-1.492 1.15,-2.312 3.46,-2.457 9.7,-0.695 16.21,-3.937 19.53,-9.726 3.32,-5.793 4.98,-16.879 4.98,-33.274 0,-13.949 -0.32,-28.628 -0.94,-44.043 -0.14,-4.253 -0.95,-6.378 -2.41,-6.378 -1.6,0 -4.77,2.652 -9.51,7.957 l -3.55,3.98 -55.39,62.215 c -0.56,0.695 -2.27,2.723 -5.12,6.074 v 0 z m -141.37,16.289 c 0,-2.062 1.36,-3.094 4.08,-3.094 6.22,0 11.14,-1.796 14.77,-5.39 3.63,-3.598 5.66,-8.645 6.07,-15.137 l 0.53,-21.473 v -8.48 c 0,-19.344 -1.17,-34.18 -3.51,-44.516 -2.34,-10.332 -6.3,-18.187 -11.89,-23.562 -8.31,-7.961 -19.2,-11.942 -32.68,-11.942 -13.19,0 -24.02,3.875 -32.46,11.625 -5.59,5.098 -9.27,11.223 -11.05,18.383 -1.78,7.156 -2.67,19.184 -2.67,36.082 l -0.21,18.535 1.67,26.395 c 0.35,6.773 1.26,11.328 2.73,13.668 1.46,2.34 4.32,3.93 8.58,4.766 2.1,0.425 3.42,0.851 3.98,1.277 0.56,0.426 0.84,1.207 0.84,2.34 0,2.058 -1.81,3.086 -5.44,3.086 -1.46,0 -3.87,-0.141 -7.21,-0.418 -8.3,-0.77 -15.86,-1.153 -22.69,-1.153 -4.81,0 -11.64,0.418 -20.5,1.258 -2.09,0.207 -3.52,0.313 -4.28,0.313 -2.37,0 -3.56,-0.922 -3.56,-2.774 0,-1.703 1.36,-2.769 4.09,-3.195 4.25,-0.629 8.1,-1.746 11.52,-3.348 2.93,-1.398 4.87,-3.074 5.81,-5.027 0.94,-1.953 1.41,-5.301 1.41,-10.047 l 0.32,-19.047 -1.15,-40.504 c 0,-26.304 6.66,-44.027 20,-53.168 9.85,-6.695 23.67,-10.043 41.48,-10.043 25.2,0 43.08,8.125 53.62,24.383 4.4,6.699 7.59,16.223 9.58,28.574 1.99,12.348 2.99,28.606 2.99,48.77 l 0.21,12.875 -0.11,9.101 c 0,10.747 2.73,16.575 8.17,17.481 l 3.98,0.73 c 1.75,0.286 2.62,1.141 2.62,2.567 0,1.851 -0.94,2.777 -2.83,2.777 -1.05,0 -2.21,-0.07 -3.46,-0.211 -2.66,-0.347 -5.74,-0.664 -9.24,-0.941 l -10.29,-0.418 -11.12,0.523 c -4.34,0.207 -7.11,0.418 -8.29,0.629 -1.12,0.278 -1.93,0.383 -2.42,0.313 -1.33,-0.071 -1.99,-0.922 -1.99,-2.563 v 0 z M 1292.5,742.777 c 0,5.934 1.78,9.461 5.34,10.578 l 7.12,0.836 h 12.78 c 11.31,0 19.49,-1.558 24.56,-4.679 5.06,-3.121 7.59,-8.153 7.59,-15.094 0,-3.156 0.66,-4.699 1.99,-4.629 2.72,0.141 4.09,2.863 4.09,8.168 0,2.652 -0.28,7.02 -0.84,13.094 -0.42,4.117 -0.63,6.98 -0.63,8.59 0,2.3 -1.01,3.453 -3.04,3.453 -0.42,0 -0.91,-0.035 -1.46,-0.106 -5.31,-0.625 -19.38,-0.941 -42.21,-0.941 l -39.7,0.418 -10.58,0.422 c -2.16,0 -3.87,0.035 -5.13,0.101 -1.61,0.141 -2.65,0.211 -3.14,0.211 -2.3,0 -3.46,-0.816 -3.46,-2.453 0,-1.781 0.95,-2.812 2.83,-3.098 8.03,-1.117 13.32,-3.066 15.87,-5.855 2.55,-2.789 3.82,-8.09 3.82,-15.895 v -82.925 c 0,-6.348 -0.38,-11.368 -1.15,-15.059 -0.84,-4.394 -1.97,-7.441 -3.4,-9.152 -1.44,-1.707 -4.14,-3.328 -8.12,-4.864 -1.61,-0.64 -2.38,-1.601 -2.31,-2.882 0.14,-1.571 1.05,-2.352 2.73,-2.352 1.25,0 3.31,0.106 6.18,0.313 10.4,0.628 18.15,0.945 23.25,0.945 7.61,0 13.65,-0.211 18.12,-0.629 l 12.15,-1.152 c 5.44,-0.559 10.4,-0.84 14.87,-0.84 7.61,0 13.72,1.176 18.33,3.519 4.61,2.344 8.45,6.246 11.52,11.711 3.7,6.442 5.55,13.094 5.55,19.953 0,0.911 -0.3,1.661 -0.89,2.258 -0.59,0.594 -1.24,0.824 -1.94,0.684 -0.35,-0.071 -0.77,-0.524 -1.25,-1.363 -8.73,-17.247 -27.27,-25.868 -55.62,-25.868 -3.35,0 -5.83,0.555 -7.44,1.672 -1.6,1.117 -3,3.242 -4.18,6.379 -1.54,4.32 -2.31,11.399 -2.31,21.227 v 9.41 c 0,7.527 0.21,13.035 0.63,16.519 0.42,3.067 1.24,5.106 2.46,6.118 1.22,1.011 3.51,1.515 6.86,1.515 h 7.12 c 7.19,0 12.1,-0.246 14.72,-0.73 2.62,-0.492 4.83,-1.575 6.65,-3.25 3.28,-3.071 5.38,-7.575 6.28,-13.508 0.42,-2.793 1.5,-4.121 3.25,-3.981 0.84,0.067 1.4,0.313 1.68,0.735 0.21,0.347 0.31,1.015 0.31,1.992 l -0.1,5.352 c 0,3.988 -0.21,8.679 -0.63,14.066 -0.63,8.258 -0.95,13.504 -0.95,15.742 0,1.262 0.07,2.801 0.21,4.617 0.21,2.52 0.32,4.059 0.32,4.621 0,1.957 -0.77,2.903 -2.31,2.832 -1.46,-0.07 -2.51,-0.734 -3.14,-1.988 l -2.41,-5.133 c -3.77,-7.613 -9.11,-11.418 -16.02,-11.418 h -8.9 l -4.61,-0.101 -3.14,-0.106 c -3.64,0 -5.92,0.871 -6.86,2.618 -0.95,1.746 -1.42,5.867 -1.42,12.359 v 22.726 l 0.11,4.297 z m -127.84,-54.199 c 0.9,-1.43 1.36,-5.562 1.36,-12.39 V 653.18 l -0.11,-5.645 c 0,-7.25 -1.03,-12.652 -3.09,-16.207 -2.06,-3.558 -5.46,-5.719 -10.21,-6.484 -1.75,-0.215 -2.62,-1.067 -2.62,-2.559 0,-2.344 1.12,-3.515 3.35,-3.515 1.12,0 3.81,0.246 8.07,0.73 7.19,0.77 12.99,1.152 17.39,1.152 6.84,0 14.41,-0.488 22.72,-1.464 3.63,-0.418 6.08,-0.629 7.33,-0.629 3.63,0 5.45,1.101 5.45,3.304 0,1.848 -1.29,2.77 -3.87,2.77 -7.2,0 -12.38,2.18 -15.56,6.535 -3.18,4.355 -4.76,11.484 -4.76,21.387 v 89.828 c 0,8.992 4.12,14.183 12.36,15.582 2.02,0.351 3.03,1.312 3.03,2.879 0,1.918 -1.25,2.879 -3.77,2.879 -2.58,0 -6.39,-0.246 -11.41,-0.735 -8.38,-0.906 -13.9,-1.359 -16.55,-1.359 -7.61,0 -14.28,0.441 -20.01,1.32 -3.35,0.516 -5.65,0.774 -6.91,0.774 -2.23,0 -3.35,-1.032 -3.35,-3.09 0,-1.703 0.98,-2.735 2.93,-3.09 l 4.82,-0.941 c 9.84,-1.817 14.77,-7.192 14.77,-16.129 v -22.52 c 0,-7.75 -0.47,-12.48 -1.42,-14.191 -0.94,-1.711 -3.54,-2.567 -7.8,-2.567 h -48.91 c -5.73,0 -9.1,0.61 -10.11,1.828 -1.01,1.219 -1.52,5.387 -1.52,12.497 v 26.867 c 0,8.988 4.12,14.179 12.36,15.578 2.03,0.351 3.04,1.312 3.04,2.879 0,1.918 -1.26,2.879 -3.77,2.879 -2.59,0 -6.39,-0.246 -11.42,-0.735 -8.45,-0.906 -13.96,-1.359 -16.55,-1.359 -7.61,0 -14.24,0.441 -19.9,1.32 -3.35,0.516 -5.65,0.774 -6.91,0.774 -2.23,0 -3.35,-1.032 -3.35,-3.09 0,-1.633 0.98,-2.664 2.93,-3.09 7.47,-1.465 12.59,-3.402 15.35,-5.809 2.75,-2.406 4.13,-6.156 4.13,-11.25 v -87.281 l -0.1,-5.648 c 0,-7.258 -1.03,-12.668 -3.09,-16.227 -2.06,-3.555 -5.47,-5.719 -10.21,-6.484 -1.75,-0.215 -2.62,-1.067 -2.62,-2.559 0,-2.344 1.11,-3.515 3.35,-3.515 1.12,0 3.81,0.246 8.07,0.73 7.19,0.77 12.95,1.152 17.28,1.152 6.91,0 14.48,-0.488 22.72,-1.464 3.7,-0.418 6.18,-0.629 7.44,-0.629 3.63,0 5.45,1.101 5.45,3.304 0,1.848 -1.19,2.77 -3.56,2.77 -7.34,0 -12.61,2.18 -15.82,6.535 -3.21,4.355 -4.82,11.484 -4.82,21.387 v 26.039 c 0,5.504 0.58,8.902 1.73,10.195 1.15,1.289 4.21,1.934 9.17,1.934 h 49.64 c 4.33,0 6.95,-0.715 7.86,-2.145 z m -200.648,60.953 c 2.617,1.641 9.238,2.461 19.847,2.461 7.891,0 13.911,-1.437 18.071,-4.316 4.15,-2.875 6.96,-7.574 8.43,-14.098 0.63,-2.668 1.75,-4 3.35,-4 1.89,0 2.83,1.152 2.83,3.457 0,2.235 -0.25,5.199 -0.73,8.903 -0.63,4.468 -0.98,7.296 -1.05,8.484 l -0.52,7.543 c -0.21,3.211 -2.24,4.816 -6.08,4.816 -1.05,0 -3.39,-0.07 -7.02,-0.211 -18.359,-0.906 -35.749,-1.359 -52.152,-1.359 l -25.457,0.312 -21.359,0.211 c -5.031,0 -8.902,0.106 -11.633,0.313 -1.668,0.141 -2.859,0.211 -3.559,0.211 -2.652,0 -4.121,-1.363 -4.402,-4.086 l -0.726,-6.391 -1.262,-9.32 -1.051,-9.109 c -0.617,-3.497 -0.969,-6.219 -1.039,-8.172 -0.141,-2.164 0.941,-3.246 3.238,-3.246 1.614,0 2.801,1.433 3.571,4.308 l 0.832,2.946 c 2.097,7.632 3.757,12.417 4.98,14.343 1.219,1.93 3.68,3.66 7.379,5.203 5.102,2.032 14.629,3.047 28.602,3.047 5.929,0 8.898,-2.758 8.898,-8.273 v -93.004 l 0.102,-4.922 c 0,-6.219 -1.481,-11.121 -4.454,-14.719 -2.968,-3.593 -7.168,-5.566 -12.617,-5.914 -2.09,-0.144 -3.461,-0.445 -4.082,-0.906 -0.629,-0.461 -0.98,-1.473 -1.051,-3.031 -0.07,-1.844 0.981,-2.77 3.141,-2.77 0.91,0 2.582,0.145 5.031,0.422 l 23.141,1.359 c 3.219,0.211 6.848,0.317 10.898,0.317 1.743,0 3.141,-0.035 4.192,-0.106 l 13.09,-0.836 7.847,-0.316 c 1.262,-0.066 2.133,-0.105 2.621,-0.105 2.172,0 3.25,0.816 3.25,2.449 0,2.273 -1.257,3.519 -3.769,3.73 -8.66,0.559 -14.699,3.301 -18.121,8.223 -3.418,4.922 -5.129,13.281 -5.129,25.086 v 78.863 c 0,6.496 1.308,10.563 3.922,12.203 v 0"
         style="fill:#505256;fill-opacity:1;fill-rule:nonzero;stroke:none"
         transform="matrix(0.13333333,0,0,-0.13333333,0,102.26667)" />
      <path
         id="path4"
         d="m 2216.32,126.199 c 0,5.942 1.78,9.461 5.34,10.582 l 7.12,0.84 h 12.78 c 11.31,0 19.5,-1.562 24.56,-4.68 5.06,-3.121 7.6,-8.152 7.6,-15.101 0,-3.149 0.66,-4.692 1.99,-4.621 2.72,0.14 4.08,2.859 4.08,8.172 0,2.648 -0.28,7.007 -0.84,13.089 -0.42,4.122 -0.63,6.981 -0.63,8.59 0,2.301 -1.01,3.45 -3.03,3.45 -0.42,0 -0.91,-0.032 -1.47,-0.098 -5.31,-0.633 -19.38,-0.942 -42.21,-0.942 l -39.69,0.411 -10.58,0.418 c -2.17,0 -3.88,0.043 -5.13,0.113 -1.61,0.137 -2.66,0.207 -3.15,0.207 -2.3,0 -3.45,-0.82 -3.45,-2.457 0,-1.781 0.94,-2.813 2.83,-3.094 8.02,-1.117 13.31,-3.066 15.86,-5.859 2.55,-2.789 3.83,-8.09 3.83,-15.891 V 36.3984 c 0,-6.3476 -0.39,-11.3593 -1.16,-15.0586 -0.83,-4.3906 -1.97,-7.4414 -3.4,-9.1484 -1.43,-1.7109 -4.14,-3.33202 -8.12,-4.86327 -1.6,-0.63672 -2.37,-1.60938 -2.3,-2.88672 0.14,-1.5625 1.05,-2.35157 2.72,-2.35157 1.26,0 3.32,0.10938 6.18,0.32032 10.41,0.62109 18.16,0.9414 23.25,0.9414 7.61,0 13.65,-0.21093 18.12,-0.63281 l 12.15,-1.14844 c 5.45,-0.55859 10.41,-0.839841 14.87,-0.839841 7.61,0 13.73,1.167971 18.33,3.519531 4.61,2.33984 8.45,6.25 11.52,11.7109 3.7,6.4375 5.56,13.0899 5.56,19.9493 0,0.9101 -0.3,1.6601 -0.89,2.2617 -0.6,0.5976 -1.25,0.8164 -1.94,0.6797 -0.35,-0.0703 -0.77,-0.5235 -1.26,-1.3633 -8.73,-17.2383 -27.27,-25.8672 -55.61,-25.8672 -3.36,0 -5.84,0.5586 -7.44,1.668 -1.61,1.1211 -3,3.25 -4.19,6.3828 -1.54,4.3164 -2.3,11.3984 -2.3,21.2265 v 9.4102 c 0,7.5312 0.21,13.043 0.62,16.5195 0.42,3.0703 1.24,5.1133 2.47,6.1211 1.22,1.0117 3.5,1.5117 6.86,1.5117 h 7.12 c 7.19,0 12.09,-0.2421 14.71,-0.7304 2.62,-0.4922 4.84,-1.5703 6.65,-3.25 3.29,-3.0703 5.38,-7.5703 6.29,-13.5117 0.42,-2.7891 1.5,-4.1172 3.25,-3.9805 0.83,0.0703 1.39,0.3203 1.67,0.7422 0.21,0.3476 0.32,1.0078 0.32,1.9883 l -0.11,5.3515 c 0,3.9883 -0.21,8.6797 -0.63,14.0703 -0.63,8.25 -0.94,13.5 -0.94,15.7383 0,1.2617 0.07,2.8008 0.21,4.6211 0.21,2.5195 0.31,4.0586 0.31,4.621 0,1.957 -0.77,2.899 -2.3,2.828 -1.47,-0.07 -2.51,-0.73 -3.14,-1.988 l -2.41,-5.1329 c -3.77,-7.6093 -9.11,-11.4179 -16.03,-11.4179 h -8.9 l -4.61,-0.1016 -3.14,-0.1094 c -3.63,0 -5.92,0.8789 -6.86,2.6211 -0.94,1.75 -1.41,5.8711 -1.41,12.3594 V 121.91 l 0.1,4.289 z m -144.11,0.129 c 0,9.203 3.53,14.051 10.58,14.543 3,0.141 4.5,1.059 4.5,2.77 0,1.988 -2.1,2.988 -6.29,2.988 -5.67,0 -11.23,-0.277 -16.68,-0.84 -7.35,-0.84 -12.7,-1.258 -16.05,-1.258 -2.1,0 -5.29,0.207 -9.55,0.629 l -4.51,0.32 c -1.75,0.2 -3.11,0.34 -4.09,0.411 -1.33,0.211 -2.35,0.32 -3.05,0.32 -2.09,0 -3.14,-1.07 -3.14,-3.199 0,-1.703 1.32,-2.762 3.98,-3.192 l 6.28,-1.039 c 9.29,-1.472 13.93,-7.769 13.93,-18.922 V 32.5117 c 0,-8.1523 -0.85,-14.0234 -2.56,-17.6133 -1.72,-3.5781 -4.81,-5.99996 -9.27,-7.25777 -1.82,-0.5 -2.73,-1.39063 -2.73,-2.67188 0,-1.84766 1.01,-2.76953 3.04,-2.76953 0.98,0 2.9,0.16016 5.76,0.5 9.36,1.0625 18.08,1.58984 26.19,1.58984 4.88,0 9.25,-0.09765 13.09,-0.30859 l 11.41,-0.53125 c 7.13,-0.41797 11.31,-0.66016 12.57,-0.73047 4.82,-0.34766 8.13,-0.51953 9.95,-0.51953 8.8,0 15.75,3.07031 20.84,9.21098 5.8,6.9804 8.7,14.9101 8.7,23.7812 0,2.8594 -0.64,4.2891 -1.91,4.2891 -0.78,0 -2.69,-2.1211 -5.74,-6.3594 -9.88,-13.9102 -26.66,-20.8711 -50.32,-20.8711 -5.08,0 -8.49,0.4492 -10.23,1.3594 -3.13,1.6015 -4.7,8.9219 -4.7,21.9609 v 90.7577 z m -144.11,0 c 0,9.203 3.53,14.051 10.58,14.543 3,0.141 4.5,1.059 4.5,2.77 0,1.988 -2.1,2.988 -6.29,2.988 -5.67,0 -11.23,-0.277 -16.68,-0.84 -7.35,-0.84 -12.7,-1.258 -16.05,-1.258 -2.1,0 -5.29,0.207 -9.55,0.629 l -4.51,0.32 c -1.75,0.2 -3.11,0.34 -4.09,0.411 -1.33,0.211 -2.35,0.32 -3.05,0.32 -2.09,0 -3.14,-1.07 -3.14,-3.199 0,-1.703 1.32,-2.762 3.98,-3.192 l 6.28,-1.039 c 9.29,-1.472 13.93,-7.769 13.93,-18.922 V 32.5117 c 0,-8.1523 -0.85,-14.0234 -2.56,-17.6133 -1.72,-3.5781 -4.81,-5.99996 -9.27,-7.25777 -1.82,-0.5 -2.73,-1.39063 -2.73,-2.67188 0,-1.84766 1.01,-2.76953 3.04,-2.76953 0.98,0 2.9,0.16016 5.76,0.5 9.36,1.0625 18.08,1.58984 26.19,1.58984 4.88,0 9.25,-0.09765 13.09,-0.30859 l 11.41,-0.53125 c 7.13,-0.41797 11.31,-0.66016 12.57,-0.73047 4.82,-0.34766 8.14,-0.51953 9.95,-0.51953 8.8,0 15.75,3.07031 20.84,9.21098 5.8,6.9804 8.7,14.9101 8.7,23.7812 0,2.8594 -0.64,4.2891 -1.91,4.2891 -0.78,0 -2.69,-2.1211 -5.74,-6.3594 -9.88,-13.9102 -26.66,-20.8711 -50.32,-20.8711 -5.08,0 -8.49,0.4492 -10.23,1.3594 -3.13,1.6015 -4.7,8.9219 -4.7,21.9609 v 90.7577 z m -102.39,-1.887 c 0,6 0.72,9.969 2.15,11.93 1.43,1.949 4.66,3.34 9.69,4.18 1.39,0.219 2.27,0.527 2.62,0.961 0.34,0.429 0.52,1.277 0.52,2.558 0,1.7 -1.15,2.559 -3.46,2.559 -3.84,0 -9.35,-0.27 -16.55,-0.801 l -7.64,-0.598 c -5.8,-0.46 -10.65,-0.699 -14.56,-0.699 -5.94,0 -10.16,0.278 -12.67,0.84 -2.52,0.488 -4.4,0.77 -5.66,0.84 -1.67,0.07 -2.51,-0.891 -2.51,-2.871 0,-1.281 0.5,-2.18 1.52,-2.711 1.01,-0.527 3.3,-1.078 6.86,-1.649 5.93,-0.902 10.02,-2.718 12.25,-5.441 2.23,-2.719 3.35,-7.277 3.35,-13.687 V 36.5 l -0.1,-9.3008 c 0,-6.0703 -0.82,-10.4101 -2.46,-13.0195 -1.65,-2.6211 -4.98,-4.82814 -10.01,-6.64064 l -3.03,-2.46093 0.21,-0.84766 c 0.41,-1.5 1.39,-2.24219 2.93,-2.24219 1.53,0 4.05,0.33203 7.54,1 4.05,0.72266 9.57,1.08985 16.55,1.08985 5.65,0 13.02,-0.50782 22.1,-1.53907 3.63,-0.36718 6.42,-0.55078 8.38,-0.55078 4.53,0 6.8,1.03125 6.8,3.08203 0,2.14063 -1.71,3.19922 -5.13,3.19922 -5.23,0 -9.48,1.42969 -12.72,4.28907 -3.25,2.8633 -5.29,6.9805 -6.13,12.3516 l -0.84,10.4687 v 89.0621 z m -178.6,7.219 c 0,5.09 2.59,8.09 7.76,9 2.93,0.57 4.39,1.668 4.39,3.301 0,1.918 -0.97,2.879 -2.92,2.879 -1.4,0 -4.43,-0.141 -9.1,-0.418 l -10.98,-0.531 -17.56,0.531 c -4.74,0 -8.89,0.207 -12.44,0.629 -1.54,0.14 -2.58,0.211 -3.14,0.211 -1.95,0 -2.93,-0.961 -2.93,-2.883 0,-1.77 1.4,-2.949 4.19,-3.508 4.89,-1.051 8.75,-3.633 11.58,-7.75 2.82,-4.121 6.65,-12.59 11.46,-25.43 4.05,-10.9527 9.12,-23.3394 15.19,-37.1519 l 24.82,-56.3086 2.62,-6.37894 2.41,-5.33984 C 1673.24,0.828125 1674.3,0 1675.64,0 c 1.98,0 3.65,1.57031 4.99,4.71094 0.49,1.17969 2.62,5.64846 6.39,13.39066 0.49,0.9101 3.63,7.8203 9.43,20.7187 l 17.91,39.461 15.6,36.1097 c 4.75,10.668 8.4,17.699 10.95,21.089 2.54,3.379 5.84,5.461 9.89,6.231 2.1,0.418 3.15,1.449 3.15,3.09 0,1.777 -0.63,2.668 -1.89,2.668 -0.97,0 -2.37,-0.149 -4.18,-0.418 -4.67,-0.84 -10.17,-1.262 -16.51,-1.262 -2.09,0 -5.61,0.141 -10.56,0.422 l -10.97,0.629 c -3,0.14 -4.95,0.211 -5.86,0.211 -1.74,0 -2.61,-0.821 -2.61,-2.461 0,-1.641 1.22,-2.602 3.66,-2.879 5.66,-0.84 10.01,-2.641 13.04,-5.391 3.04,-2.761 4.56,-6.3 4.56,-10.621 0,-7.609 -3.89,-19.988 -11.66,-37.1482 l -23.65,-52.3203 c -0.91,-2.0196 -1.75,-3 -2.52,-2.9297 -0.84,0.0703 -1.79,1.3594 -2.84,3.8711 l -23.37,57.2383 c -7.65,18.5508 -11.48,30.9688 -11.48,37.2498 v 0 z m -130.99,11.988 c -0.14,-1.847 1.04,-2.949 3.56,-3.308 l 4.71,-0.731 c 5.8,-0.769 8.69,-3.449 8.69,-8.05 0,-2.438 -0.72,-4.809 -2.15,-7.11 -1.44,-2.301 -5.02,-6.758 -10.77,-13.39 l -10.92,-12.9574 -4.83,-5.6524 c -1.12,-1.2578 -2.03,-1.9179 -2.73,-1.9883 -1.19,-0.0703 -2.88,1.4688 -5.05,4.5977 l -7.57,10.9804 -7.26,9.941 c -4.77,7.532 -7.33,13.309 -7.68,17.36 -0.14,1.738 0.63,3.379 2.3,4.91 1.68,1.539 3.74,2.48 6.18,2.828 2.51,0.281 3.77,1.383 3.77,3.301 0,1.851 -1.08,2.769 -3.24,2.769 -1.54,0 -3.77,-0.136 -6.69,-0.418 l -9.73,-1.05 c -3.83,-0.41 -8.37,-0.621 -13.59,-0.621 -5.51,0 -13.98,0.421 -25.42,1.25 -2.72,0.211 -4.67,0.32 -5.85,0.32 -2.23,0 -3.35,-1.027 -3.35,-3.09 0,-1.84 1.33,-3.008 3.98,-3.508 6.56,-1.261 11.87,-3.871 15.92,-7.84 4.05,-3.98 12.59,-15.062 25.63,-33.2613 4.6,-6.4805 8.61,-11.9492 12.03,-16.4102 5.23,-6.8398 7.84,-10.9882 7.84,-12.4492 0,-1.4609 -2.58,-4.9805 -7.74,-10.5586 -3.41,-3.6328 -9.13,-10.25 -17.15,-19.8711 -9.2,-11.082 -16.49,-18.8593 -21.87,-23.3203 -5.37,-4.4609 -10.78,-7.24999 -16.23,-8.35936 -1.88,-0.42969 -2.79,-1.35938 -2.72,-2.78125 0.07,-0.92969 0.38,-1.53906 0.94,-1.82031 l 2.83,-0.53907 4.73,0.21094 9.33,0.32031 c 3.99,0.20703 7.17,0.3086 9.55,0.3086 8.54,0 17.03,-0.42188 25.5,-1.25 1.89,-0.21094 3.22,-0.32032 3.99,-0.32032 1.46,0 2.2,0.89063 2.2,2.67188 0,1.77734 -1.15,2.73828 -3.46,2.87891 -10.89,0.83984 -16.34,4.10937 -16.34,9.82817 0,5.3007 7.97,16.9804 23.89,35.0312 2.5,2.9297 4.66,5.4102 6.46,7.4297 1.12,1.25 1.95,1.8789 2.51,1.8789 0.49,0 1.19,-0.6289 2.1,-1.8789 l 5.26,-6.8008 c 8.91,-11.5 15.08,-19.9375 18.52,-25.3008 3.43,-5.3672 5.15,-9.3086 5.15,-11.8164 0,-4.8125 -2.83,-7.43357 -8.48,-7.83982 -2.58,-0.22266 -3.88,-1.32032 -3.88,-3.3125 0,-1.71094 1.19,-2.5586 3.56,-2.5586 1.74,0 4.57,0.10938 8.47,0.32031 l 11.51,0.73047 c 2.92,0.20703 5.99,0.3086 9.2,0.3086 4.67,0 10.18,-0.23828 16.52,-0.73047 l 13.18,-1.05078 c 1.95,-0.14063 3.48,-0.20703 4.6,-0.20703 2.51,0 3.77,0.95703 3.77,2.8789 0,2.12891 -1.23,3.30078 -3.67,3.50781 -7.68,0.5625 -14.07,3.35161 -19.17,8.37111 -8.09,8.0117 -17.89,20.25 -29.4,36.6992 -7.26,10.4609 -11.83,16.8711 -13.71,19.2422 -4.05,5.1602 -6.07,8.3672 -6.07,9.6172 0,1.1914 1.57,3.4922 4.71,6.9023 0.77,0.8399 5.34,6.2383 13.71,16.2114 11.3,13.527 21.41,23.808 30.34,30.847 3.08,2.442 7.72,4.153 13.93,5.129 2.31,0.352 3.46,1.453 3.46,3.301 0,1.851 -0.98,2.769 -2.93,2.769 -1.74,0 -3.93,-0.097 -6.58,-0.308 l -12.86,-0.949 c -3.35,-0.211 -6.52,-0.313 -9.52,-0.313 -5.71,0 -11.88,0.242 -18.5,0.731 -1.74,0.14 -3,0.211 -3.76,0.211 -2.24,0 -3.45,-0.961 -3.66,-2.872 v 0 z m -156.93,-16.289 c 6.63,-6.148 11.94,-14.437 15.92,-24.879 3.98,-10.4409 5.97,-21.1402 5.97,-32.1011 0,-18.9883 -4.3,-34.1601 -12.89,-45.5078 -8.59,-11.3516 -20.04,-17.01954 -34.35,-17.01954 -15.85,0 -28.73,6.85934 -38.65,20.57814 -9.91,13.7187 -14.87,31.5391 -14.87,53.4687 0,18.5706 3.94,33.0626 11.83,43.4726 7.89,10.399 18.86,15.598 32.89,15.598 13.13,0 24.51,-4.539 34.15,-13.61 v 0 z m -59.86,15.129 c -10.44,-4.226 -19.05,-10.078 -25.82,-17.558 -5.86,-6.36 -10.51,-14.239 -13.93,-23.629 -3.42,-9.4026 -5.13,-18.8518 -5.13,-28.3596 0,-22.1523 6.77,-39.8398 20.32,-53.082 C 1288.31,6.62109 1306.4,0 1329.02,0 c 23.67,0 42.24,7.60938 55.72,22.8516 13.83,15.5781 20.74,34.5781 20.74,57.0078 0,20.6096 -6.7,37.2616 -20.11,49.9416 -13.41,12.687 -31,19.027 -52.79,19.027 -11.73,0 -22.81,-2.117 -33.25,-6.34 z m -172.22,-14.187 -7.21,8.48 c -4.04,4.821 -6.69,7.699 -7.94,8.641 -1.25,0.949 -2.96,1.418 -5.12,1.418 -1.54,0 -3.47,-0.11 -5.78,-0.32 -6.23,-0.629 -12.08,-0.942 -17.54,-0.942 l -4.41,-0.098 -7.24,0.309 c -2.38,0 -3.57,-1 -3.57,-2.988 0,-1.641 1.08,-2.531 3.24,-2.672 15.85,-1.109 23.78,-12.399 23.78,-33.848 V 60.9297 l -0.74,-24.8711 c 0,-8.5703 -1.17,-15.1289 -3.5,-19.6875 -2.34,-4.5703 -6.06,-7.58204 -11.16,-9.04297 -2.02,-0.56641 -3.04,-1.56641 -3.04,-2.98829 0,-1.71093 0.95,-2.55859 2.84,-2.55859 1.12,0 2.9,0.19922 5.35,0.59766 5.53,0.99218 11.82,1.49218 18.89,1.49218 7.13,0 13.64,-0.49218 19.52,-1.46093 1.89,-0.28125 3.25,-0.42188 4.09,-0.42188 2.17,0 3.25,1.0625 3.25,3.19141 0,1.57031 -1.04,2.46094 -3.14,2.67187 -11.31,1.04688 -18.12,5.47654 -20.42,13.28904 -2.17,7.3203 -3.25,21.8282 -3.25,43.5313 v 40.5901 l 0.11,3.039 c 0,3.14 0.83,4.711 2.51,4.711 0.62,0 1.77,-0.91 3.45,-2.731 L 1205.36,4.39844 c 1.32,-1.46875 2.61,-2.23828 3.87,-2.3086 1.41,-0.07031 2.12,0.8711 2.12,2.83204 L 1210.92,18 l -0.1,7.9492 0.1,11.6211 0.43,9 1.48,65.4097 v 5.129 c 0,14.301 4.51,22.289 13.51,23.969 2.24,0.352 3.35,1.422 3.35,3.192 0,1.992 -1.11,2.992 -3.35,2.992 -0.63,0 -1.65,-0.071 -3.05,-0.211 -10.49,-1.332 -18.15,-1.992 -22.98,-1.992 -2.38,0 -5.39,0.211 -9.02,0.621 -5.6,0.699 -9.66,1.05 -12.18,1.05 -2.03,0 -3.04,-0.921 -3.04,-2.781 0,-1.488 1.15,-2.308 3.46,-2.449 9.7,-0.699 16.21,-3.949 19.53,-9.73 3.31,-5.79 4.97,-16.879 4.97,-33.27 0,-13.9492 -0.31,-28.6289 -0.94,-44.0508 -0.14,-4.25 -0.94,-6.3789 -2.4,-6.3789 -1.6,0 -4.77,2.6485 -9.51,7.961 l -3.55,3.9804 -55.39,62.2073 c -0.56,0.703 -2.27,2.73 -5.13,6.082 v 0 z m -188.282,-9.223 c 0,8.102 0.731,13.363 2.203,15.762 1.469,2.41 5.199,4.422 11.207,6.031 1.742,0.418 2.621,1.277 2.621,2.559 0,1.922 -1.019,2.851 -3.039,2.781 -1.261,-0.07 -2.789,-0.211 -4.609,-0.422 -6.563,-0.699 -13.93,-1.051 -22.102,-1.051 -9.57,0 -17.98,0.391 -25.238,1.153 -1.75,0.211 -3.492,0.32 -5.242,0.32 -1.949,0 -2.93,-0.82 -2.93,-2.449 0,-1.633 0.192,-2.66 0.582,-3.09 0.379,-0.422 1.41,-0.742 3.09,-0.961 5.438,-0.551 9.609,-1.813 12.508,-3.762 2.902,-1.949 4.871,-4.808 5.922,-8.57 l 0.937,-5.957 -0.097,-4.082 V 33.3711 c 0,-8.8594 -0.961,-15.1094 -2.879,-18.7695 -1.922,-3.6602 -5.403,-5.88285 -10.422,-6.64066 -1.82,-0.35938 -2.731,-1.22266 -2.731,-2.58985 0,-2.04296 1.36,-3.07031 4.09,-3.07031 2.723,0 6.321,0.21094 10.789,0.62891 6.981,0.69922 14.383,1.05078 22.203,1.05078 5.86,0 10.68,-0.32031 14.45,-0.94922 3.07,-0.55078 5.269,-0.83203 6.597,-0.83203 2.313,0 3.461,1.0625 3.461,3.19141 0,1.84765 -1.918,2.91015 -5.758,3.19921 -5.8,0.41016 -9.871,3.01176 -12.203,7.78126 -2.34,4.7773 -3.508,12.8086 -3.508,24.0977 v 4.4921 c 0,6.0586 0.219,10.0508 0.68,11.9688 0.449,1.9219 1.578,3.7812 3.399,5.5898 l 4.511,4.4024 3.141,3.039 c 1.25,1.2579 2.301,1.8907 3.141,1.8907 1.257,0 2.859,-1.6133 4.82,-4.8203 2.238,-3.8399 8.098,-12.0625 17.578,-24.6719 9.488,-12.5977 17.238,-22.5 23.262,-29.6875 2.368,-2.93362 3.698,-4.57034 3.978,-4.9219 2.92,-3.62891 6.2,-5.44922 9.82,-5.44922 1.05,0 3.83,0.27735 8.36,0.83985 2.44,0.28125 4.78,0.41796 7.01,0.41796 4.74,0 10.52,-0.34765 17.35,-1.04687 1.25,-0.14063 2.26,-0.21094 3.03,-0.21094 2.09,0 3.17,0.84766 3.24,2.5586 0.07,1.76953 -0.77,2.90234 -2.51,3.40234 l -2.2,0.63672 c -10.06,2.79296 -17.84,6.97266 -23.36,12.55076 -7.84,7.9414 -20.5,23.9102 -37.992,47.8906 l -7.558,10.25 c -3.149,4.3907 -4.719,7.4219 -4.719,9.1016 0,2.3672 2.937,6.0274 8.82,10.9805 1.957,1.6681 5.598,5.0081 10.918,10.0271 11.491,10.813 20.341,18.41 26.551,22.801 6.22,4.391 11.77,6.969 16.66,7.738 3.07,0.5 4.6,1.532 4.6,3.09 0,2.063 -1.22,3.094 -3.67,3.094 -2.8,0 -7.76,-0.422 -14.9,-1.262 -3.29,-0.351 -6.05,-0.519 -8.29,-0.519 -3.01,0 -8.25,0.418 -15.74,1.25 -3.012,0.347 -5.949,0.531 -8.82,0.531 -2.578,0 -3.879,-0.891 -3.879,-2.672 0,-1.922 1.117,-2.879 3.348,-2.879 3.011,0 5.41,-0.633 7.23,-1.891 1.82,-1.261 2.723,-2.929 2.723,-5.031 0,-6.277 -9.621,-18.051 -28.852,-35.2888 L 955.77,85.6719 945.52,76.4492 c -2.719,-2.0898 -4.391,-3.1406 -5.02,-3.1406 -1.18,0.0703 -1.77,1.4023 -1.77,3.9805 v 38.0199 l 0.098,3.769 v 0"
         style="fill:#505256;fill-opacity:1;fill-rule:nonzero;stroke:none"
         transform="matrix(0.13333333,0,0,-0.13333333,0,102.26667)" />
      <path
         id="path5"
         d="M 763,4.01172 V 767.012 H 0 V 4.01172 h 763 v 0"
         style="fill:#f47116;fill-opacity:1;fill-rule:nonzero;stroke:none"
         transform="matrix(0.13333333,0,0,-0.13333333,0,102.26667)" />
      <path
         id="path6"
         d="M 666.699,670.781 V 478.266 h -71.301 c 0,35.453 -35.097,64.168 -78.418,64.168 -31.652,0 -58.91,-15.344 -71.3,-37.438 V 264.379 c 0,-51.117 39.781,-92.57 88.89,-92.68 h 0.231 V 100.398 H 228.215 v 71.301 h 0.207 c 49.121,0.11 88.918,41.563 88.918,92.68 v 240.617 c -12.402,22.094 -39.649,37.438 -71.305,37.438 -43.308,0 -78.43,-28.715 -78.43,-64.168 H 96.3008 V 670.781 H 666.699 v 0"
         style="fill:#ffffff;fill-opacity:1;fill-rule:nonzero;stroke:none"
         transform="matrix(0.13333333,0,0,-0.13333333,0,102.26667)" />
    </g>
  </g>
</svg>
