<?xml version="1.0" encoding="UTF-8" standalone="no"?>
<!-- Created with Inkscape (http://www.inkscape.org/) -->

<svg
   version="1.1"
   id="svg1"
   width="409.64001"
   height="91.506668"
   viewBox="0 0 409.64001 91.506668"
   xmlns="http://www.w3.org/2000/svg"
   xmlns:svg="http://www.w3.org/2000/svg">
  <defs
     id="defs1" />
  <g
     id="g1">
    <g
       id="group-R5">
      <path
         id="path2"
         d="m 2922.72,474.27 c 2.51,2.179 8.11,3.269 16.78,3.269 h 32.93 c 21.68,0 36.57,-1.051 44.68,-3.152 8.11,-2.102 13.5,-6.305 16.16,-12.61 1.67,-4.066 2.51,-8.336 2.51,-12.82 v -5.465 c 0,-4.344 1.36,-6.445 4.08,-6.304 2.42,0.14 3.99,1.222 4.71,3.246 0.71,2.023 1.43,7.086 2.14,15.183 l 0.84,12.352 c 0.7,9.215 1.26,14.797 1.68,16.754 0.43,1.953 0.64,3.558 0.64,4.82 0,4.043 -2.32,6.07 -6.94,6.07 -1.82,0 -4.62,-0.285 -8.41,-0.843 -1.82,-0.282 -6.86,-0.559 -15.13,-0.84 l -29.84,-1.469 c -13.17,-0.563 -28.3,-0.844 -45.39,-0.844 -28.16,0 -52.26,1.121 -72.29,3.363 -5.89,0.7 -10.58,1.051 -14.08,1.051 -6.31,0 -9.46,-1.922 -9.46,-5.758 0,-2.605 2.03,-3.91 6.09,-3.91 12.75,0 21.33,-3.472 25.75,-10.418 4.41,-6.949 6.62,-20.453 6.62,-40.515 V 257.578 l -0.21,-13.68 c 0,-16.839 -5.05,-26.668 -15.14,-29.468 l -7.98,-2.309 c -3.65,-0.961 -5.46,-2.609 -5.46,-4.941 0,-3.008 2.23,-4.52 6.72,-4.52 1.96,0 5.6,0.488 10.93,1.469 10.09,1.68 27.39,2.519 51.91,2.519 17.51,0 39.64,-1.257 66.4,-3.777 6.87,-0.562 12.33,-0.84 16.4,-0.84 18.77,0 34.32,7.539 46.65,22.617 10.23,12.563 15.34,23.383 15.34,32.461 0,3.77 -1.29,5.582 -3.88,5.442 -1.58,-0.141 -3.16,-1.403 -4.73,-3.781 -15.67,-24.801 -51,-37.2 -105.98,-37.2 -17.35,0 -28.15,1.469 -32.42,4.418 -4.27,2.953 -6.4,10.391 -6.4,22.321 v 77.468 l -0.21,6.946 c 0,4.211 1.15,7.019 3.46,8.422 2.31,1.402 6.89,2.105 13.74,2.105 h 46.34 c 12.03,0 20.55,-1.68 25.59,-5.043 5.03,-3.363 8.38,-9.738 10.07,-19.125 l 1.25,-5.883 c 0.57,-3.082 2.37,-4.625 5.38,-4.625 2.72,0 4.08,1.75 4.08,5.242 0,1.258 -0.14,3.286 -0.42,6.079 -0.84,8.386 -1.26,16.839 -1.26,25.367 0,11.176 0.62,23.547 1.87,37.105 0.15,2.094 0.23,3.629 0.23,4.61 0,3.632 -1.36,5.519 -4.08,5.66 -2.87,0.136 -4.66,-1.543 -5.38,-5.043 -1.82,-9.246 -3.85,-15.133 -6.09,-17.653 -2.24,-2.523 -7.15,-4.554 -14.71,-6.093 -8.55,-1.684 -20.18,-2.524 -34.89,-2.524 h -32.36 c -6.03,0 -9.64,0.668 -10.82,2.004 -1.2,1.332 -1.79,5.238 -1.79,11.703 v 84.789 c 0,7.453 1.26,12.27 3.78,14.45 z m -240.93,0 c 2.52,2.179 8.11,3.269 16.79,3.269 h 32.93 c 21.68,0 36.57,-1.051 44.68,-3.152 8.11,-2.102 13.5,-6.305 16.15,-12.61 1.68,-4.066 2.52,-8.336 2.52,-12.82 v -5.465 c 0,-4.344 1.36,-6.445 4.07,-6.304 2.43,0.14 4,1.222 4.72,3.246 0.71,2.023 1.42,7.086 2.14,15.183 l 0.84,12.352 c 0.7,9.215 1.26,14.797 1.68,16.754 0.42,1.953 0.63,3.558 0.63,4.82 0,4.043 -2.31,6.07 -6.93,6.07 -1.82,0 -4.63,-0.285 -8.41,-0.843 -1.82,-0.282 -6.86,-0.559 -15.13,-0.84 l -29.84,-1.469 c -13.17,-0.563 -28.3,-0.844 -45.39,-0.844 -28.16,0 -52.26,1.121 -72.3,3.363 -5.88,0.7 -10.58,1.051 -14.08,1.051 -6.3,0 -9.45,-1.922 -9.45,-5.758 0,-2.605 2.02,-3.91 6.09,-3.91 12.75,0 21.33,-3.472 25.74,-10.418 4.42,-6.949 6.62,-20.453 6.62,-40.515 V 257.578 l -0.21,-13.68 c 0,-16.839 -5.04,-26.668 -15.13,-29.468 l -7.98,-2.309 c -3.65,-0.961 -5.47,-2.609 -5.47,-4.941 0,-3.008 2.24,-4.52 6.73,-4.52 1.96,0 5.6,0.488 10.93,1.469 10.08,1.68 27.38,2.519 51.9,2.519 17.52,0 39.65,-1.257 66.41,-3.777 6.86,-0.562 12.33,-0.84 16.39,-0.84 18.78,0 34.33,7.539 46.66,22.617 10.22,12.563 15.34,23.383 15.34,32.461 0,3.77 -1.29,5.582 -3.88,5.442 -1.58,-0.141 -3.16,-1.403 -4.74,-3.781 -15.67,-24.801 -50.99,-37.2 -105.97,-37.2 -17.35,0 -28.16,1.469 -32.42,4.418 -4.27,2.953 -6.4,10.391 -6.4,22.321 v 77.468 l -0.21,6.946 c 0,4.211 1.15,7.019 3.46,8.422 2.3,1.402 6.88,2.105 13.73,2.105 h 46.35 c 12.02,0 20.55,-1.68 25.58,-5.043 5.04,-3.363 8.39,-9.738 10.07,-19.125 l 1.26,-5.883 c 0.57,-3.082 2.36,-4.625 5.37,-4.625 2.72,0 4.09,1.75 4.09,5.242 0,1.258 -0.14,3.286 -0.42,6.079 -0.84,8.386 -1.26,16.839 -1.26,25.367 0,11.176 0.62,23.547 1.86,37.105 0.16,2.094 0.24,3.629 0.24,4.61 0,3.632 -1.37,5.519 -4.09,5.66 -2.86,0.136 -4.65,-1.543 -5.37,-5.043 -1.82,-9.246 -3.85,-15.133 -6.09,-17.653 -2.25,-2.523 -7.15,-4.554 -14.71,-6.093 -8.55,-1.684 -20.18,-2.524 -34.89,-2.524 h -32.36 c -6.03,0 -9.64,0.668 -10.83,2.004 -1.19,1.332 -1.78,5.238 -1.78,11.703 v 84.789 c 0,7.453 1.25,12.27 3.77,14.45 z m -255.46,2.652 c -16.88,-14.281 -25.32,-32.762 -25.32,-55.438 0,-20.304 6.47,-36.824 19.41,-49.562 12.94,-12.742 34.95,-24.359 66.01,-34.859 30.08,-10.098 48.27,-17.879 54.56,-23.352 12.32,-10.656 18.47,-23.77 18.47,-39.336 0,-16.266 -6.67,-30.074 -20.01,-41.434 -13.35,-11.363 -29.66,-17.043 -48.94,-17.043 -19,0 -36.6,5.903 -52.81,17.704 -16.21,11.796 -26.83,26.418 -31.86,43.839 -2,6.747 -4.28,10.188 -6.85,10.329 -2.86,0.136 -4.29,-1.891 -4.29,-6.094 0,-5.324 1.82,-14.289 5.47,-26.895 3.22,-11.633 4.97,-18.011 5.25,-19.133 1.68,-7.847 2.94,-12.707 3.78,-14.597 0.85,-1.891 2.53,-3.68 5.05,-5.36 6.02,-4.07 15.51,-7.64 28.47,-10.722 12.96,-3.078 24.84,-4.617 35.63,-4.617 29.84,0 54.28,8.32 73.34,24.988 19.05,16.66 28.58,38.078 28.58,64.258 0,38.64 -25.89,66.429 -77.65,83.375 -26.59,8.832 -43.27,14.933 -50.06,18.3 -6.79,3.368 -13.05,8.696 -18.78,15.989 -6.58,8.558 -9.86,18.726 -9.86,30.508 0,13.324 5.06,24.437 15.18,33.343 10.13,8.907 22.74,13.36 37.82,13.36 18.99,0 36.21,-4.922 51.64,-14.758 15.44,-9.844 25.66,-22.352 30.69,-37.535 2.29,-6.75 4.57,-10.121 6.86,-10.121 2.99,0 4.49,2.171 4.49,6.515 0,1.117 -0.35,3.992 -1.05,8.614 l -3.36,21.648 c -1.82,11.769 -2.73,18.84 -2.73,21.227 0,7.003 -1.76,10.433 -5.26,10.296 -1.12,0 -1.89,-0.285 -2.31,-0.839 l -2.94,-2.524 c -1.68,-1.402 -3.36,-2.101 -5.04,-2.101 -1.26,0 -2.53,0.277 -3.79,0.839 l -14.5,6.094 c -10.37,4.344 -23.05,6.516 -38.03,6.516 -26.63,0 -48.38,-7.141 -65.26,-21.422 z m -226.33,0 c -16.89,-14.281 -25.33,-32.762 -25.33,-55.438 0,-20.304 6.47,-36.824 19.42,-49.562 12.94,-12.742 34.94,-24.359 66.01,-34.859 30.07,-10.098 48.26,-17.879 54.56,-23.352 12.31,-10.656 18.47,-23.77 18.47,-39.336 0,-16.266 -6.67,-30.074 -20.02,-41.434 -13.34,-11.363 -29.65,-17.043 -48.93,-17.043 -19.01,0 -36.61,5.903 -52.82,17.704 -16.21,11.796 -26.82,26.418 -31.85,43.839 -2,6.747 -4.29,10.188 -6.85,10.329 -2.86,0.136 -4.29,-1.891 -4.29,-6.094 0,-5.324 1.82,-14.289 5.46,-26.895 3.23,-11.633 4.98,-18.011 5.26,-19.133 1.68,-7.847 2.94,-12.707 3.78,-14.597 0.84,-1.891 2.52,-3.68 5.04,-5.36 6.03,-4.07 15.52,-7.64 28.48,-10.722 12.96,-3.078 24.83,-4.617 35.62,-4.617 29.84,0 54.29,8.32 73.34,24.988 19.06,16.66 28.59,38.078 28.59,64.258 0,38.64 -25.89,66.429 -77.66,83.375 -26.58,8.832 -43.27,14.933 -50.05,18.3 -6.79,3.368 -13.05,8.696 -18.78,15.989 -6.58,8.558 -9.87,18.726 -9.87,30.508 0,13.324 5.06,24.437 15.19,33.343 10.13,8.907 22.73,13.36 37.82,13.36 18.99,0 36.2,-4.922 51.64,-14.758 15.43,-9.844 25.66,-22.352 30.69,-37.535 2.28,-6.75 4.57,-10.121 6.85,-10.121 3,0 4.5,2.171 4.5,6.515 0,1.117 -0.35,3.992 -1.05,8.614 l -3.36,21.648 c -1.83,11.769 -2.74,18.84 -2.74,21.227 0,7.003 -1.75,10.433 -5.25,10.296 -1.12,0 -1.89,-0.285 -2.31,-0.839 l -2.94,-2.524 c -1.69,-1.402 -3.37,-2.101 -5.05,-2.101 -1.26,0 -2.52,0.277 -3.78,0.839 l -14.5,6.094 c -10.37,4.344 -23.05,6.516 -38.04,6.516 -26.62,0 -48.37,-7.141 -65.25,-21.422 z m -215.63,-2.652 c 2.52,2.179 8.11,3.269 16.78,3.269 h 32.94 c 21.67,0 36.57,-1.051 44.68,-3.152 8.11,-2.102 13.5,-6.305 16.15,-12.61 1.68,-4.066 2.52,-8.336 2.52,-12.82 v -5.465 c 0,-4.344 1.36,-6.445 4.07,-6.304 2.43,0.14 4,1.222 4.71,3.246 0.72,2.023 1.43,7.086 2.15,15.183 l 0.84,12.352 c 0.7,9.215 1.26,14.797 1.68,16.754 0.42,1.953 0.63,3.558 0.63,4.82 0,4.043 -2.31,6.07 -6.93,6.07 -1.83,0 -4.63,-0.285 -8.41,-0.843 -1.82,-0.282 -6.87,-0.559 -15.13,-0.84 l -29.84,-1.469 c -13.17,-0.563 -28.3,-0.844 -45.4,-0.844 -28.16,0 -52.26,1.121 -72.29,3.363 -5.88,0.7 -10.58,1.051 -14.08,1.051 -6.3,0 -9.46,-1.922 -9.46,-5.758 0,-2.605 2.03,-3.91 6.1,-3.91 12.75,0 21.33,-3.472 25.74,-10.418 4.42,-6.949 6.62,-20.453 6.62,-40.515 V 257.578 l -0.21,-13.68 c 0,-16.839 -5.04,-26.668 -15.13,-29.468 l -7.98,-2.309 c -3.65,-0.961 -5.47,-2.609 -5.47,-4.941 0,-3.008 2.24,-4.52 6.73,-4.52 1.96,0 5.6,0.488 10.92,1.469 10.09,1.68 27.39,2.519 51.91,2.519 17.51,0 39.65,-1.257 66.41,-3.777 6.86,-0.562 12.33,-0.84 16.39,-0.84 18.77,0 34.33,7.539 46.66,22.617 10.22,12.563 15.34,23.383 15.34,32.461 0,3.77 -1.3,5.582 -3.88,5.442 -1.58,-0.141 -3.16,-1.403 -4.74,-3.781 -15.67,-24.801 -50.99,-37.2 -105.97,-37.2 -17.35,0 -28.16,1.469 -32.42,4.418 -4.27,2.953 -6.4,10.391 -6.4,22.321 v 77.468 l -0.21,6.946 c 0,4.211 1.15,7.019 3.46,8.422 2.3,1.402 6.88,2.105 13.73,2.105 h 46.35 c 12.02,0 20.55,-1.68 25.58,-5.043 5.03,-3.363 8.39,-9.738 10.07,-19.125 l 1.26,-5.883 c 0.57,-3.082 2.36,-4.625 5.37,-4.625 2.72,0 4.09,1.75 4.09,5.242 0,1.258 -0.15,3.286 -0.42,6.079 -0.85,8.386 -1.27,16.839 -1.27,25.367 0,11.176 0.62,23.547 1.87,37.105 0.16,2.094 0.24,3.629 0.24,4.61 0,3.632 -1.37,5.519 -4.09,5.66 -2.87,0.136 -4.66,-1.543 -5.37,-5.043 -1.82,-9.246 -3.86,-15.133 -6.1,-17.653 -2.24,-2.523 -7.14,-4.554 -14.71,-6.093 -8.54,-1.684 -20.17,-2.524 -34.88,-2.524 h -32.37 c -6.02,0 -9.63,0.668 -10.82,2.004 -1.19,1.332 -1.78,5.238 -1.78,11.703 v 84.789 c 0,7.453 1.25,12.27 3.77,14.45 z m -115.04,-48.219 v 22.695 c 0,13.453 1.36,22.625 4.09,27.531 2.74,4.903 8.37,8.407 16.92,10.508 2.94,0.84 4.34,2.172 4.2,3.992 -0.28,2.946 -2.24,4.414 -5.88,4.414 -2.38,0 -5.81,-0.421 -10.3,-1.261 -5.18,-0.84 -12.12,-1.258 -20.8,-1.258 -16.26,0 -29.21,0.508 -38.88,1.523 -4.07,0.383 -7.01,0.575 -8.83,0.575 -4.06,0 -6.09,-1.297 -6.09,-3.899 0,-2.738 2.03,-4.453 6.09,-5.137 14.43,-2.382 24.41,-6.062 29.95,-11.031 5.53,-4.976 9,-13.418 10.4,-25.324 l 2.52,-48.336 -0.21,-28.371 V 268.648 c -0.14,-2.523 -0.91,-3.855 -2.31,-3.996 -0.84,-0.14 -2.8,1.543 -5.88,5.043 l -193.34,218.981 c -3.51,4.062 -7.01,6.094 -10.51,6.094 -1.82,0 -4.41,-0.071 -7.78,-0.207 l -3.36,-0.211 -14.08,0.418 -8.62,0.21 c -1.54,0.141 -2.66,0.211 -3.36,0.211 -3.08,0 -4.62,-1.3 -4.62,-3.898 0,-2.602 1.89,-4.172 5.67,-4.719 14.57,-1.961 25.71,-9.922 33.42,-23.871 7.7,-13.949 11.56,-33.055 11.56,-57.308 V 262.383 c 0,-15.145 -2.07,-26.121 -6.2,-32.922 -4.14,-6.801 -12.09,-12.231 -23.86,-16.289 -4.06,-1.371 -6.02,-3.082 -5.88,-5.141 0.28,-2.601 2.24,-3.902 5.88,-3.902 1.54,0 4.13,0.262 7.78,0.762 4.9,0.64 10.09,0.961 15.55,0.961 l 10.09,0.378 21.43,-1.05 c 10.65,-0.559 16.74,-0.981 18.29,-1.258 2.24,-0.281 4.34,-0.422 6.3,-0.422 2.94,0 4.42,1.371 4.42,4.109 0,3.012 -2.32,4.801 -6.94,5.352 -11.07,1.68 -18.49,4.269 -22.28,7.777 -3.78,3.512 -6.16,9.891 -7.14,19.141 l -0.63,14.941 0.21,8.836 v 142.629 c 0,6.313 1.33,9.469 3.99,9.469 1.12,0 2.1,-0.422 2.94,-1.262 l 2.11,-2.312 177.15,-202.59 4.63,-5.461 c 1.12,-1.117 2.73,-1.75 4.83,-1.891 3.22,-0.136 5.18,1.512 5.89,4.942 0.69,3.429 1.05,13.058 1.05,28.89 v 176.11 l 0.42,13.871 z m -304.82,0 v 22.695 c 0,13.453 1.36,22.625 4.09,27.531 2.74,4.903 8.37,8.407 16.92,10.508 2.94,0.84 4.34,2.172 4.2,3.992 -0.28,2.946 -2.24,4.414 -5.88,4.414 -2.38,0 -5.81,-0.421 -10.3,-1.261 -5.18,-0.84 -12.12,-1.258 -20.8,-1.258 -16.26,0 -29.21,0.508 -38.88,1.523 -4.07,0.383 -7.01,0.575 -8.83,0.575 -4.06,0 -6.09,-1.297 -6.09,-3.899 0,-2.738 2.03,-4.453 6.09,-5.137 14.43,-2.382 24.41,-6.062 29.95,-11.031 5.53,-4.976 9,-13.418 10.4,-25.324 l 2.52,-48.336 -0.21,-28.371 V 268.648 c -0.14,-2.523 -0.91,-3.855 -2.31,-3.996 -0.84,-0.14 -2.8,1.543 -5.88,5.043 l -193.34,218.981 c -3.51,4.062 -7.01,6.094 -10.51,6.094 -1.82,0 -4.41,-0.071 -7.78,-0.207 l -3.36,-0.211 -14.08,0.418 -8.62,0.21 c -1.54,0.141 -2.66,0.211 -3.36,0.211 -3.08,0 -4.62,-1.3 -4.62,-3.898 0,-2.602 1.89,-4.172 5.67,-4.719 14.57,-1.961 25.71,-9.922 33.42,-23.871 7.7,-13.949 11.56,-33.055 11.56,-57.308 V 262.383 c 0,-15.145 -2.07,-26.121 -6.2,-32.922 -4.14,-6.801 -12.09,-12.231 -23.86,-16.289 -4.06,-1.371 -6.02,-3.082 -5.88,-5.141 0.28,-2.601 2.24,-3.902 5.88,-3.902 1.54,0 4.14,0.262 7.78,0.762 4.9,0.64 10.09,0.961 15.55,0.961 l 10.09,0.378 21.43,-1.05 c 10.65,-0.559 16.74,-0.981 18.29,-1.258 2.24,-0.281 4.34,-0.422 6.3,-0.422 2.94,0 4.42,1.371 4.42,4.109 0,3.012 -2.32,4.801 -6.94,5.352 -11.07,1.68 -18.49,4.269 -22.28,7.777 -3.78,3.512 -6.16,9.891 -7.14,19.141 l -0.63,14.941 0.21,8.836 v 142.629 c 0,6.313 1.33,9.469 3.99,9.469 1.12,0 2.1,-0.422 2.94,-1.262 l 2.11,-2.312 177.15,-202.59 4.63,-5.461 c 1.12,-1.117 2.73,-1.75 4.83,-1.891 3.22,-0.136 5.18,1.512 5.89,4.942 0.69,3.429 1.05,13.058 1.05,28.89 v 176.11 l 0.42,13.871 z m -426.35,48.219 c 2.51,2.179 8.11,3.269 16.78,3.269 h 32.93 c 21.68,0 36.57,-1.051 44.68,-3.152 8.12,-2.102 13.5,-6.305 16.16,-12.61 1.68,-4.066 2.52,-8.336 2.52,-12.82 v -5.465 c 0,-4.344 1.35,-6.445 4.07,-6.304 2.42,0.14 3.99,1.222 4.71,3.246 0.72,2.023 1.43,7.086 2.14,15.183 l 0.84,12.352 c 0.7,9.215 1.27,14.797 1.69,16.754 0.42,1.953 0.63,3.558 0.63,4.82 0,4.043 -2.32,6.07 -6.94,6.07 -1.82,0 -4.62,-0.285 -8.41,-0.843 -1.82,-0.282 -6.86,-0.559 -15.13,-0.84 l -29.84,-1.469 c -13.17,-0.563 -28.3,-0.844 -45.39,-0.844 -28.16,0 -52.26,1.121 -72.29,3.363 -5.89,0.7 -10.58,1.051 -14.08,1.051 -6.31,0 -9.46,-1.922 -9.46,-5.758 0,-2.605 2.03,-3.91 6.09,-3.91 12.75,0 21.33,-3.472 25.75,-10.418 4.41,-6.949 6.62,-20.453 6.62,-40.515 V 257.578 l -0.21,-13.68 c 0,-16.839 -5.05,-26.668 -15.13,-29.468 l -7.99,-2.309 c -3.64,-0.961 -5.46,-2.609 -5.46,-4.941 0,-3.008 2.24,-4.52 6.72,-4.52 1.96,0 5.6,0.488 10.93,1.469 10.09,1.68 27.39,2.519 51.91,2.519 17.51,0 39.64,-1.257 66.41,-3.777 6.86,-0.562 12.32,-0.84 16.39,-0.84 18.77,0 34.32,7.539 46.65,22.617 10.23,12.563 15.34,23.383 15.34,32.461 0,3.77 -1.29,5.582 -3.88,5.442 -1.58,-0.141 -3.15,-1.403 -4.73,-3.781 -15.67,-24.801 -51,-37.2 -105.98,-37.2 -17.35,0 -28.15,1.469 -32.42,4.418 -4.27,2.953 -6.4,10.391 -6.4,22.321 v 77.468 l -0.21,6.946 c 0,4.211 1.15,7.019 3.46,8.422 2.31,1.402 6.89,2.105 13.74,2.105 h 46.35 c 12.02,0 20.54,-1.68 25.58,-5.043 5.03,-3.363 8.38,-9.738 10.07,-19.125 l 1.25,-5.883 c 0.57,-3.082 2.37,-4.625 5.38,-4.625 2.72,0 4.08,1.75 4.08,5.242 0,1.258 -0.14,3.286 -0.42,6.079 -0.84,8.386 -1.26,16.839 -1.26,25.367 0,11.176 0.62,23.547 1.87,37.105 0.15,2.094 0.23,3.629 0.23,4.61 0,3.632 -1.36,5.519 -4.08,5.66 -2.87,0.136 -4.66,-1.543 -5.38,-5.043 -1.82,-9.246 -3.85,-15.133 -6.09,-17.653 -2.24,-2.523 -7.15,-4.554 -14.71,-6.093 -8.55,-1.684 -20.18,-2.524 -34.89,-2.524 h -32.36 c -6.03,0 -9.63,0.668 -10.82,2.004 -1.2,1.332 -1.79,5.238 -1.79,11.703 v 84.789 c 0,7.453 1.26,12.27 3.78,14.45 z m -113.96,-7.973 c 4.07,-3.016 7.01,-9.492 8.83,-19.442 0.84,-4.484 2.52,-6.656 5.05,-6.511 3.08,0.273 4.55,2.508 4.41,6.695 -0.14,2.094 -0.56,5.512 -1.26,10.258 -0.71,3.766 -1.05,9.766 -1.05,18 0,8.23 -0.81,13.187 -2.42,14.859 -1.62,1.676 -6.28,2.516 -13.99,2.516 H 797.457 c -4.769,0 -7.891,-1.016 -9.359,-3.039 -1.473,-2.028 -2.211,-6.25 -2.211,-12.672 0,-6.563 -1.051,-14.871 -3.153,-24.922 -1.679,-7.824 -2.519,-13.199 -2.519,-16.129 0,-3.633 1.262,-5.519 3.781,-5.656 2.52,-0.141 4.41,2.523 5.672,7.984 2.797,12.61 6.758,21.192 11.879,25.746 5.109,4.551 13.34,6.829 24.687,6.829 h 55.692 c 5.32,0 8.719,-0.704 10.191,-2.102 1.469,-1.406 2.207,-4.637 2.207,-9.684 l 0.211,-5.476 v -208.59 c 0,-11.789 -1.89,-19.973 -5.668,-24.531 -3.793,-4.559 -11.07,-7.539 -21.859,-8.95 -4.621,-0.539 -6.934,-1.91 -6.934,-4.101 0,-3.008 2.102,-4.508 6.313,-4.508 1.41,0 6.109,0.418 14.109,1.258 4.07,0.422 9.059,0.633 14.949,0.633 l 16.43,0.207 15.371,-0.207 c 9.969,0 16.289,-0.211 18.961,-0.633 5.188,-0.84 8.629,-1.258 10.309,-1.258 3.929,0 5.902,1.508 5.902,4.52 0,2.328 -2.453,3.898 -7.363,4.73 -17.649,3.078 -26.828,12.828 -27.528,29.25 l -0.211,8.207 v 206.293 c 0,6.594 0.809,10.734 2.418,12.418 1.614,1.68 5.5,2.524 11.661,2.524 h 59.065 c 11.77,0 19.68,-1.504 23.74,-4.516 v 0"
         style="fill:#ffffff;fill-opacity:1;fill-rule:nonzero;stroke:none"
         transform="matrix(0.13333333,0,0,-0.13333333,0,91.506667)" />
      <path
         id="path3"
         d="m 2997.55,665.391 c 0,3.375 0.7,5.73 2.11,7.078 1.41,1.34 3.89,2.011 7.45,2.011 l 3.84,0.094 12.19,-0.094 c 13.93,0 22.18,-4.105 24.74,-12.316 0.31,-0.934 0.47,-2.019 0.47,-3.266 v -3.171 c 0,-1.743 0.65,-2.614 1.96,-2.614 2.38,0 3.57,2.571 3.57,7.707 0,1.004 -0.1,2.227 -0.29,3.668 l -0.93,7.145 c -0.07,0.629 -0.25,2.914 -0.56,6.863 -0.19,3.258 -1.04,4.891 -2.53,4.891 -1.57,0 -3.97,-0.133 -7.22,-0.395 -8.81,-0.726 -17.43,-1.09 -25.87,-1.09 l -24.65,-0.097 -16.12,-0.293 c -4.18,0 -8.15,0.152 -11.9,0.468 -2.56,0.188 -4.18,0.282 -4.87,0.282 -2.13,0 -3.19,-0.926 -3.19,-2.77 0,-1.402 0.81,-2.168 2.44,-2.293 6,-0.312 10.56,-1.84 13.68,-4.586 2.75,-2.371 4.13,-7.484 4.13,-15.343 v -77.008 c 0,-7.489 -0.66,-12.758 -1.97,-15.817 -1.31,-3.054 -3.84,-5.207 -7.59,-6.457 -1.75,-0.57 -2.63,-1.461 -2.63,-2.672 0,-1.652 1.03,-2.48 3.1,-2.48 1.56,0 4.62,0.312 9.18,0.937 3.37,0.438 7.4,0.657 12.09,0.657 h 10.4 c 6.81,0 11.34,-0.125 13.59,-0.375 2.37,-0.313 4.19,-0.469 5.44,-0.469 1.37,0 2.06,0.859 2.06,2.578 0,1.524 -1,2.383 -3,2.574 -7.12,0.563 -11.87,2.403 -14.25,5.524 -3.24,4.238 -4.87,11.039 -4.87,20.398 v 11.039 l -0.09,7.489 c 0,7.796 0.72,12.289 2.15,13.472 1.44,1.184 6.84,1.778 16.22,1.778 7.31,0 12.43,-1.125 15.37,-3.372 2.93,-2.25 5.02,-6.656 6.28,-13.214 0.31,-1.75 1.06,-2.594 2.24,-2.532 1.69,0.125 2.53,0.84 2.53,2.153 0,0.808 -0.06,2.148 -0.18,4.019 l -1.41,17.676 c -0.37,4.863 -0.56,9.102 -0.56,12.719 0,1.121 0.03,2.086 0.09,2.898 0.13,1.184 0.19,1.996 0.19,2.434 0,1.617 -0.94,2.429 -2.81,2.429 -0.81,0 -1.5,-0.718 -2.06,-2.156 -2.31,-5.808 -4.66,-9.715 -7.03,-11.715 -2.38,-2 -5.88,-3 -10.5,-3 l -10.21,-0.089 -3.56,-0.094 c -2.63,0 -4.39,0.59 -5.3,1.777 -0.91,1.188 -1.36,3.531 -1.36,7.031 v 29.989 z m -110.99,0.281 c 5.93,-5.496 10.68,-12.918 14.24,-22.258 3.56,-9.34 5.34,-18.918 5.34,-28.723 0,-16.996 -3.84,-30.57 -11.52,-40.722 -7.69,-10.153 -17.94,-15.231 -30.74,-15.231 -14.19,0 -25.71,6.141 -34.59,18.418 -8.87,12.278 -13.3,28.223 -13.3,47.844 0,16.617 3.53,29.582 10.59,38.891 7.06,9.308 16.87,13.964 29.42,13.964 11.75,0 21.93,-4.062 30.56,-12.183 v 0 z M 2833,679.211 c -9.34,-3.781 -17.05,-9.02 -23.11,-15.711 -5.24,-5.687 -9.4,-12.738 -12.46,-21.145 -3.06,-8.41 -4.59,-16.867 -4.59,-25.371 0,-19.82 6.06,-35.656 18.18,-47.504 12.12,-11.847 28.3,-17.769 48.55,-17.769 21.18,0 37.79,6.816 49.85,20.445 12.37,13.942 18.56,30.949 18.56,51.02 0,18.441 -6,33.34 -17.99,44.687 -12,11.348 -27.74,17.02 -47.24,17.02 -10.49,0 -20.41,-1.891 -29.75,-5.672 z m -188.33,-68.406 c 0.28,1.187 1.08,2.75 2.39,4.683 6.62,10.426 13.9,23.285 21.83,38.582 4.44,8.551 8.11,14.36 11.02,17.418 2.9,3.059 6.7,5.149 11.38,6.274 2.25,0.508 3.38,1.433 3.38,2.769 0,1.465 -0.85,2.199 -2.54,2.199 -2.94,0 -5.41,-0.066 -7.42,-0.191 l -7.89,-0.465 c -2.5,-0.187 -4.78,-0.281 -6.85,-0.281 -3.82,0 -6.95,0.152 -9.39,0.469 l -6.2,0.843 c -1.44,0.184 -3.03,0.282 -4.79,0.282 -1.63,0 -2.44,-0.989 -2.44,-2.961 0,-1.274 1,-2.035 3,-2.289 3.94,-0.375 7.44,-1.715 10.5,-4.024 3.06,-2.308 4.59,-4.769 4.59,-7.39 0,-3.121 -3.42,-10.852 -10.26,-23.203 -3.36,-5.989 -5.45,-9.793 -6.26,-11.415 -3.23,-6.363 -5.84,-9.542 -7.83,-9.542 -2,0 -4.07,2.179 -6.19,6.546 -0.69,1.496 -2.53,5.118 -5.54,10.856 l -7.31,14.219 c -4.56,8.855 -6.84,14.597 -6.84,17.214 0,3.247 2.4,5.332 7.21,6.27 2.13,0.445 3.19,1.336 3.19,2.676 0,1.59 -1.31,2.386 -3.93,2.386 -1.31,0 -3.9,-0.191 -7.77,-0.562 -5.23,-0.563 -10.38,-0.844 -15.43,-0.844 -5.49,0 -11.6,0.375 -18.34,1.125 -3.31,0.375 -5.74,0.563 -7.3,0.563 -1.74,0 -2.62,-0.989 -2.62,-2.957 0,-1.59 1.16,-2.477 3.47,-2.668 7.62,-0.75 14.28,-6.489 19.96,-17.215 l 14.25,-26.762 c 3.93,-7.484 7.52,-13.91 10.77,-19.277 2.75,-4.492 4.13,-8.828 4.13,-13.008 v -17.867 c 0,-8.363 -1.24,-14.227 -3.7,-17.594 -2.47,-3.367 -7.21,-5.613 -14.2,-6.738 -1.75,-0.254 -2.63,-0.953 -2.63,-2.098 0,-2.101 0.72,-3.148 2.16,-3.148 1.18,0 3.05,0.218 5.61,0.656 3.87,0.687 11.64,1.031 23.3,1.031 4.87,0 8.52,-0.133 10.95,-0.394 l 13.29,-1.184 c 1.75,-0.199 3.37,-0.297 4.87,-0.297 2.8,0 4.21,0.922 4.21,2.766 0,1.652 -1,2.543 -3,2.668 -11.44,0.625 -17.68,4.465 -18.75,11.519 l -0.46,6.368 v 27.625 c 0,3.058 0.14,5.183 0.42,6.367 z m -147.68,59.883 c 2.35,1.464 8.27,2.203 17.76,2.203 7.06,0 12.45,-1.289 16.17,-3.864 3.72,-2.574 6.23,-6.781 7.54,-12.617 0.57,-2.387 1.57,-3.578 3,-3.578 1.69,0 2.53,1.031 2.53,3.094 0,2 -0.22,4.652 -0.65,7.965 -0.56,4 -0.88,6.531 -0.94,7.593 l -0.47,6.746 c -0.19,2.872 -2,4.309 -5.43,4.309 -0.94,0 -3.04,-0.062 -6.28,-0.184 -16.44,-0.816 -31.99,-1.218 -46.67,-1.218 l -22.78,0.281 -19.12,0.187 c -4.49,0 -7.96,0.094 -10.4,0.282 -1.5,0.125 -2.56,0.187 -3.19,0.187 -2.37,0 -3.68,-1.219 -3.93,-3.656 l -0.66,-5.719 -1.12,-8.34 -0.94,-8.152 c -0.56,-3.125 -0.88,-5.562 -0.94,-7.309 -0.12,-1.941 0.85,-2.906 2.91,-2.906 1.44,0 2.5,1.285 3.18,3.856 l 0.75,2.632 c 1.88,6.833 3.36,11.114 4.46,12.836 1.09,1.727 3.29,3.278 6.6,4.657 4.56,1.82 13.09,2.726 25.59,2.726 5.31,0 7.96,-2.469 7.96,-7.402 v -83.223 l 0.1,-4.402 c 0,-5.563 -1.33,-9.949 -3.98,-13.168 -2.66,-3.219 -6.42,-4.984 -11.3,-5.293 -1.87,-0.129 -3.09,-0.398 -3.65,-0.813 -0.57,-0.414 -0.88,-1.316 -0.94,-2.714 -0.06,-1.649 0.87,-2.473 2.81,-2.473 0.81,0 2.31,0.125 4.5,0.375 l 20.71,1.219 c 2.87,0.187 6.12,0.281 9.75,0.281 1.56,0 2.81,-0.031 3.75,-0.094 l 11.71,-0.75 7.03,-0.281 c 1.13,-0.063 1.91,-0.094 2.34,-0.094 1.94,0 2.91,0.731 2.91,2.192 0,2.035 -1.13,3.148 -3.38,3.336 -7.74,0.5 -13.15,2.953 -16.21,7.359 -3.06,4.402 -4.59,11.887 -4.59,22.445 v 70.571 c 0,5.808 1.17,9.449 3.51,10.918 z m -122.45,-7.629 c 0,5.371 0.64,8.925 1.93,10.675 1.28,1.75 4.17,2.996 8.66,3.746 1.25,0.192 2.03,0.477 2.35,0.86 0.31,0.379 0.47,1.14 0.47,2.289 0,1.523 -1.03,2.285 -3.1,2.285 -3.43,0 -8.37,-0.234 -14.8,-0.711 l -6.85,-0.535 c -5.18,-0.418 -9.52,-0.625 -13.02,-0.625 -5.31,0 -9.09,0.246 -11.34,0.75 -2.25,0.434 -3.94,0.684 -5.06,0.746 -1.5,0.063 -2.25,-0.793 -2.25,-2.566 0,-1.141 0.45,-1.95 1.36,-2.422 0.9,-0.477 2.95,-0.969 6.14,-1.477 5.3,-0.808 8.96,-2.433 10.96,-4.867 2,-2.434 3,-6.516 3,-12.254 v -74.574 l -0.09,-8.328 c 0,-5.43 -0.74,-9.313 -2.21,-11.653 -1.47,-2.339 -4.45,-4.32 -8.95,-5.937 l -2.71,-2.199 0.18,-0.766 c 0.38,-1.336 1.25,-2.004 2.63,-2.004 1.37,0 3.62,0.301 6.74,0.895 3.63,0.652 8.56,0.98 14.81,0.98 5.06,0 11.65,-0.461 19.78,-1.383 3.24,-0.328 5.74,-0.492 7.49,-0.492 4.06,0 6.1,0.922 6.1,2.762 0,1.906 -1.54,2.859 -4.6,2.859 -4.68,0 -8.48,1.282 -11.38,3.84 -2.91,2.563 -4.74,6.242 -5.49,11.051 l -0.75,9.363 v 79.692 z m -143.64,11.23 c -6.72,-6.941 -10.07,-15.566 -10.07,-25.883 0,-8.879 2.41,-15.988 7.22,-21.332 4.82,-5.344 13.96,-11.019 27.41,-17.019 l 14.26,-6.367 c 6.39,-2.805 10.87,-5.797 13.47,-8.973 2.6,-3.176 3.9,-7.227 3.9,-12.149 0,-6.226 -2.49,-11.757 -7.47,-16.586 -4.97,-4.828 -10.62,-7.242 -16.94,-7.242 -8.13,0 -15.98,3.649 -23.55,10.942 -7.57,7.293 -12.89,16.3 -15.96,27.023 -0.37,1.492 -1,2.242 -1.87,2.242 -1.94,0 -2.91,-1.5 -2.91,-4.5 0,-2.375 1.19,-7.808 3.56,-16.304 1.56,-5.563 2.5,-9.813 2.81,-12.746 0.32,-2.688 0.71,-4.297 1.18,-4.829 0.46,-0.531 2.13,-1.078 5.01,-1.64 2.06,-0.438 5.28,-1.375 9.65,-2.809 9.37,-2.937 16.22,-4.406 20.53,-4.406 10.55,0 19.77,4.031 27.64,12.094 7.88,8.062 11.81,17.535 11.81,28.41 0,9.875 -2.85,18.312 -8.54,25.316 -4.82,5.813 -14.64,11.75 -29.47,17.813 -12.45,5.058 -19.86,8.711 -22.24,10.957 -3.69,3.484 -5.54,7.625 -5.54,12.418 0,5.164 2.1,9.644 6.29,13.441 4.19,3.797 9.11,5.695 14.74,5.695 8.2,0 15.96,-3.179 23.28,-9.535 7.32,-6.355 11.89,-13.894 13.7,-22.617 0.5,-2.371 1.31,-3.555 2.44,-3.555 1.56,0 2.34,1.344 2.34,4.032 0,0.5 -0.06,1.125 -0.18,1.875 l -0.94,8.527 -1.22,9.184 c -0.13,1.062 -0.19,2.187 -0.19,3.375 l 0.19,7.589 c 0,2.063 -0.66,3.094 -1.97,3.094 -0.5,0 -1,-0.125 -1.5,-0.375 l -3.57,-1.781 c -0.94,-0.438 -1.85,-0.656 -2.72,-0.656 -1.19,0 -3.19,0.562 -6,1.687 l -6.28,2.625 c -5.62,2.246 -11.37,3.371 -17.24,3.371 -9.99,0 -18.35,-3.468 -25.06,-10.406 z m -128.39,-0.605 c 1.59,1.781 4.52,2.671 8.78,2.671 9.51,0 17.36,-3.078 23.52,-9.23 6.17,-6.156 9.25,-13.949 9.25,-23.383 0,-7.25 -2.28,-12.933 -6.85,-17.054 -2.32,-2.125 -4.81,-3.391 -7.47,-3.797 -2.66,-0.407 -9.56,-0.61 -20.71,-0.61 -3.88,0 -6.34,0.532 -7.37,1.594 -1.03,1.063 -1.55,3.59 -1.55,7.59 v 32.426 c 0,4.75 0.8,8.011 2.4,9.793 z m -2.4,-63.954 c 0,2.497 0.47,3.993 1.41,4.493 l 4.21,0.75 h 5.81 c 4.94,0 8.5,-0.926 10.69,-2.766 2.18,-1.844 4.96,-6.234 8.33,-13.168 8.67,-17.559 15.71,-29.492 21.13,-35.801 5.43,-6.312 11.35,-9.465 17.77,-9.465 3.96,0 8.49,1.157 13.6,3.469 5.12,2.309 7.68,4.371 7.68,6.18 0,1.437 -0.57,2.156 -1.69,2.156 -0.63,0 -1.31,-0.094 -2.06,-0.281 -1.25,-0.25 -2.6,-0.375 -4.03,-0.375 -3.5,0 -6.55,1.121 -9.14,3.371 -2.59,2.246 -5.55,6.273 -8.86,12.078 l -9.65,17.137 -8.34,14.793 c -1.12,2.058 -1.97,3.527 -2.53,4.402 -0.56,0.871 -0.88,1.621 -0.94,2.246 -0.06,0.75 0.53,1.375 1.78,1.875 6.06,2.625 10.83,6.473 14.3,11.535 3.46,5.067 5.2,10.696 5.2,16.883 0,9.821 -3.91,17.961 -11.72,24.434 -7.81,6.472 -17.65,9.711 -29.52,9.711 -4,0 -11.28,-0.41 -21.84,-1.219 -8.99,-0.691 -16.65,-1.031 -22.96,-1.031 -5.75,0 -11.02,0.25 -15.84,0.75 -1.56,0.187 -2.68,0.281 -3.37,0.281 -1.75,0 -2.62,-0.891 -2.62,-2.668 0,-1.777 1.28,-2.855 3.84,-3.238 6.93,-0.871 11.93,-3.399 14.99,-7.574 1.88,-2.555 2.82,-7.571 2.82,-15.051 v -67.692 l -0.1,-3.644 v -8.883 c 0,-4.551 -0.81,-7.934 -2.43,-10.145 -1.63,-2.214 -4.57,-3.972 -8.81,-5.285 -1.25,-0.379 -1.88,-1.269 -1.88,-2.672 0,-1.714 1.13,-2.574 3.38,-2.574 0.68,0 1.9,0.09 3.65,0.27 l 6.28,0.535 7.87,0.711 c 3.25,0.238 6.97,0.359 11.15,0.359 5,0 10.19,-0.219 15.56,-0.656 1.88,-0.188 3.16,-0.281 3.84,-0.281 2.13,0 3.19,0.886 3.19,2.668 0,1.777 -1.31,2.793 -3.94,3.047 -6.43,0.625 -10.74,3.043 -12.93,7.25 -2.19,4.21 -3.28,12.242 -3.28,24.093 v 18.992 z m -135.31,54.911 c 0,5.308 1.59,8.464 4.78,9.464 l 6.37,0.75 h 11.44 c 10.12,0 17.44,-1.394 21.97,-4.187 4.53,-2.793 6.8,-7.297 6.8,-13.508 0,-2.82 0.59,-4.203 1.78,-4.14 2.44,0.125 3.65,2.562 3.65,7.308 0,2.375 -0.25,6.281 -0.75,11.719 -0.37,3.683 -0.56,6.246 -0.56,7.683 0,2.063 -0.9,3.094 -2.72,3.094 -0.37,0 -0.81,-0.035 -1.31,-0.094 -4.75,-0.562 -17.34,-0.843 -37.77,-0.843 l -35.51,0.375 -9.47,0.375 c -1.94,0 -3.47,0.027 -4.59,0.093 -1.44,0.122 -2.38,0.184 -2.81,0.184 -2.07,0 -3.1,-0.73 -3.1,-2.195 0,-1.594 0.85,-2.516 2.53,-2.77 7.19,-1 11.92,-2.746 14.2,-5.238 2.28,-2.496 3.42,-7.238 3.42,-14.223 v -74.203 c 0,-5.68 -0.34,-10.168 -1.03,-13.472 -0.75,-3.934 -1.76,-6.661 -3.04,-8.192 -1.29,-1.527 -3.71,-2.976 -7.27,-4.351 -1.44,-0.575 -2.12,-1.434 -2.06,-2.579 0.13,-1.406 0.94,-2.105 2.44,-2.105 1.12,0 2.96,0.094 5.53,0.281 9.31,0.563 16.24,0.844 20.8,0.844 6.81,0 12.22,-0.188 16.22,-0.563 l 10.87,-1.031 c 4.87,-0.5 9.31,-0.75 13.3,-0.75 6.81,0 12.28,1.051 16.41,3.149 4.12,2.097 7.55,5.589 10.3,10.476 3.32,5.766 4.97,11.719 4.97,17.856 0,0.816 -0.27,1.488 -0.8,2.019 -0.53,0.535 -1.11,0.738 -1.73,0.613 -0.31,-0.062 -0.69,-0.468 -1.12,-1.218 -7.81,-15.434 -24.4,-23.149 -49.77,-23.149 -3,0 -5.22,0.5 -6.65,1.496 -1.44,1 -2.69,2.903 -3.75,5.707 -1.38,3.868 -2.06,10.2 -2.06,18.997 v 8.417 c 0,6.739 0.19,11.665 0.56,14.786 0.37,2.742 1.11,4.566 2.2,5.472 1.09,0.903 3.14,1.356 6.14,1.356 h 6.37 c 6.44,0 10.83,-0.219 13.17,-0.656 2.34,-0.438 4.33,-1.407 5.95,-2.907 2.94,-2.75 4.81,-6.777 5.62,-12.086 0.38,-2.5 1.35,-3.687 2.91,-3.562 0.75,0.062 1.25,0.281 1.5,0.656 0.19,0.313 0.28,0.91 0.28,1.785 l -0.09,4.789 c 0,3.571 -0.19,7.762 -0.57,12.586 -0.56,7.387 -0.84,12.082 -0.84,14.086 0,1.125 0.06,2.504 0.19,4.133 0.19,2.254 0.28,3.633 0.28,4.133 0,1.754 -0.69,2.597 -2.06,2.535 -1.31,-0.063 -2.25,-0.656 -2.81,-1.781 l -2.16,-4.59 c -3.37,-6.813 -8.15,-10.219 -14.34,-10.219 h -7.96 l -4.13,-0.094 -2.81,-0.093 c -3.25,0 -5.29,0.781 -6.14,2.343 -0.84,1.563 -1.26,5.25 -1.26,11.059 v 20.34 l 0.09,3.84 z m -161.13,4.882 c 0,4.555 2.31,7.239 6.93,8.051 2.63,0.508 3.94,1.492 3.94,2.953 0,1.719 -0.87,2.578 -2.62,2.578 -1.25,0 -3.96,-0.128 -8.14,-0.375 l -9.82,-0.468 -15.72,0.468 c -4.24,0 -7.95,0.184 -11.13,0.559 -1.37,0.125 -2.31,0.191 -2.81,0.191 -1.74,0 -2.62,-0.859 -2.62,-2.574 0,-1.59 1.25,-2.636 3.75,-3.144 4.37,-0.938 7.83,-3.246 10.36,-6.93 2.53,-3.684 5.95,-11.269 10.26,-22.758 3.62,-9.801 8.15,-20.883 13.59,-33.246 l 22.21,-50.379 2.34,-5.715 2.16,-4.773 c 0.69,-1.5 1.64,-2.25 2.85,-2.25 1.77,0 3.25,1.406 4.46,4.215 0.43,1.058 2.34,5.054 5.71,11.988 0.44,0.809 3.25,6.988 8.44,18.539 l 16.03,35.309 13.96,32.308 c 4.25,9.551 7.51,15.84 9.79,18.871 2.28,3.028 5.24,4.883 8.86,5.571 1.87,0.379 2.81,1.304 2.81,2.765 0,1.59 -0.56,2.387 -1.68,2.387 -0.88,0 -2.12,-0.125 -3.74,-0.375 -4.18,-0.75 -9.11,-1.121 -14.78,-1.121 -1.87,0 -5.02,0.121 -9.45,0.371 l -9.82,0.566 c -2.68,0.122 -4.43,0.184 -5.24,0.184 -1.56,0 -2.34,-0.73 -2.34,-2.195 0,-1.469 1.1,-2.328 3.28,-2.582 5.07,-0.75 8.95,-2.356 11.67,-4.824 2.72,-2.465 4.08,-5.633 4.08,-9.5 0,-6.805 -3.48,-17.883 -10.44,-33.239 l -21.15,-46.812 c -0.82,-1.813 -1.57,-2.688 -2.26,-2.625 -0.75,0.062 -1.6,1.218 -2.54,3.465 l -20.91,51.214 c -6.85,16.606 -10.27,27.715 -10.27,33.332 v 0 z m -88.31,-6.464 c 0,5.371 0.64,8.925 1.92,10.675 1.28,1.75 4.17,2.996 8.67,3.746 1.25,0.192 2.03,0.477 2.34,0.86 0.32,0.379 0.47,1.14 0.47,2.289 0,1.523 -1.03,2.285 -3.09,2.285 -3.44,0 -8.37,-0.234 -14.81,-0.711 l -6.84,-0.535 c -5.19,-0.418 -9.53,-0.625 -13.03,-0.625 -5.31,0 -9.09,0.246 -11.34,0.75 -2.25,0.434 -3.93,0.684 -5.06,0.746 -1.5,0.063 -2.25,-0.793 -2.25,-2.566 0,-1.141 0.46,-1.95 1.36,-2.422 0.91,-0.477 2.95,-0.969 6.14,-1.477 5.31,-0.808 8.97,-2.433 10.97,-4.867 2,-2.434 3,-6.516 3,-12.254 v -74.574 l -0.1,-8.328 c 0,-5.43 -0.73,-9.313 -2.2,-11.653 -1.47,-2.339 -4.45,-4.32 -8.95,-5.937 l -2.72,-2.199 0.19,-0.766 c 0.37,-1.336 1.25,-2.004 2.62,-2.004 1.38,0 3.63,0.301 6.75,0.895 3.62,0.652 8.56,0.98 14.81,0.98 5.06,0 11.65,-0.461 19.77,-1.383 3.25,-0.328 5.75,-0.492 7.5,-0.492 4.06,0 6.09,0.922 6.09,2.762 0,1.906 -1.53,2.859 -4.59,2.859 -4.69,0 -8.48,1.282 -11.39,3.84 -2.9,2.563 -4.73,6.242 -5.48,11.051 l -0.75,9.363 v 79.692 z m -166.41,3.457 -6.45,7.589 c -3.62,4.313 -5.99,6.891 -7.11,7.735 -1.12,0.844 -2.65,1.265 -4.58,1.265 -1.38,0 -3.1,-0.093 -5.17,-0.281 -5.57,-0.562 -10.81,-0.844 -15.69,-0.844 l -3.95,-0.093 -6.48,0.281 c -2.13,0 -3.2,-0.895 -3.2,-2.676 0,-1.465 0.97,-2.262 2.91,-2.387 14.18,-1 21.27,-11.093 21.27,-30.292 v -40.579 l -0.65,-22.254 c 0,-7.664 -1.05,-13.539 -3.14,-17.621 -2.1,-4.082 -5.42,-6.777 -9.98,-8.089 -1.82,-0.508 -2.72,-1.399 -2.72,-2.672 0,-1.528 0.84,-2.293 2.53,-2.293 1,0 2.6,0.179 4.79,0.535 4.95,0.89 10.58,1.34 16.9,1.34 6.39,0 12.21,-0.438 17.47,-1.313 1.69,-0.25 2.91,-0.375 3.66,-0.375 1.94,0 2.91,0.953 2.91,2.86 0,1.402 -0.94,2.195 -2.81,2.386 -10.12,0.938 -16.21,4.903 -18.27,11.891 -1.94,6.555 -2.91,19.535 -2.91,38.949 v 36.328 l 0.09,2.715 c 0,2.809 0.75,4.211 2.25,4.211 0.56,0 1.59,-0.812 3.09,-2.437 l 85.26,-94.747 c 1.18,-1.312 2.34,-2 3.46,-2.062 1.26,-0.063 1.9,0.781 1.9,2.527 l -0.38,11.707 -0.1,7.118 0.1,10.394 0.38,8.055 1.32,58.527 v 4.59 c 0,12.797 4.03,19.945 12.09,21.445 2,0.317 3,1.27 3,2.86 0,1.781 -1,2.671 -3,2.671 -0.57,0 -1.47,-0.066 -2.73,-0.191 -9.39,-1.184 -16.24,-1.777 -20.56,-1.777 -2.13,0 -4.82,0.187 -8.08,0.562 -5,0.621 -8.64,0.938 -10.89,0.938 -1.81,0 -2.72,-0.832 -2.72,-2.489 0,-1.339 1.03,-2.07 3.09,-2.199 8.68,-0.625 14.51,-3.527 17.48,-8.707 2.97,-5.179 4.45,-15.101 4.45,-29.769 0,-12.481 -0.28,-25.618 -0.84,-39.41 -0.13,-3.805 -0.84,-5.711 -2.15,-5.711 -1.44,0 -4.27,2.375 -8.51,7.125 l -3.18,3.558 -49.56,55.668 c -0.5,0.625 -2.03,2.438 -4.59,5.438 v 0 z m -126.49,14.578 c 0,-1.848 1.21,-2.77 3.65,-2.77 5.56,0 9.97,-1.609 13.22,-4.828 3.24,-3.219 5.06,-7.73 5.43,-13.543 l 0.47,-19.211 v -7.59 c 0,-17.308 -1.05,-30.586 -3.14,-39.832 -2.09,-9.246 -5.64,-16.273 -10.64,-21.086 -7.43,-7.121 -17.18,-10.683 -29.24,-10.683 -11.81,0 -21.49,3.469 -29.05,10.402 -5,4.563 -8.29,10.043 -9.89,16.449 -1.59,6.403 -2.39,17.164 -2.39,32.286 l -0.18,16.589 1.5,23.618 c 0.31,6.058 1.12,10.132 2.43,12.226 1.31,2.094 3.88,3.516 7.69,4.266 1.87,0.383 3.06,0.761 3.56,1.14 0.5,0.383 0.75,1.082 0.75,2.098 0,1.84 -1.62,2.762 -4.87,2.762 -1.31,0 -3.46,-0.129 -6.45,-0.375 -7.43,-0.692 -14.19,-1.032 -20.31,-1.032 -4.3,0 -10.41,0.375 -18.34,1.125 -1.87,0.184 -3.15,0.282 -3.83,0.282 -2.12,0 -3.18,-0.828 -3.18,-2.485 0,-1.523 1.22,-2.476 3.65,-2.859 3.81,-0.563 7.25,-1.563 10.31,-2.996 2.63,-1.25 4.36,-2.75 5.2,-4.496 0.85,-1.75 1.27,-4.746 1.27,-8.992 l 0.28,-17.043 -1.03,-36.243 c 0,-23.535 5.96,-39.394 17.9,-47.574 8.81,-5.992 21.18,-8.988 37.11,-8.988 22.55,0 38.55,7.273 47.98,21.82 3.94,5.992 6.8,14.516 8.58,25.567 1.78,11.05 2.67,25.597 2.67,43.64 l 0.19,11.52 -0.1,8.144 c 0,9.618 2.44,14.828 7.31,15.641 l 3.57,0.656 c 1.56,0.254 2.34,1.02 2.34,2.293 0,1.656 -0.85,2.488 -2.54,2.488 -0.94,0 -1.97,-0.066 -3.1,-0.191 -2.38,-0.312 -5.13,-0.594 -8.26,-0.84 l -9.2,-0.375 -9.96,0.465 c -3.88,0.191 -6.36,0.375 -7.42,0.566 -1,0.247 -1.72,0.34 -2.16,0.282 -1.19,-0.067 -1.78,-0.828 -1.78,-2.293 v 0 z m -265.93,-16.453 c 0,5.308 1.59,8.464 4.78,9.464 l 6.37,0.75 h 11.44 c 10.12,0 17.44,-1.394 21.97,-4.187 4.53,-2.793 6.8,-7.297 6.8,-13.508 0,-2.82 0.59,-4.203 1.78,-4.14 2.43,0.125 3.65,2.562 3.65,7.308 0,2.375 -0.25,6.281 -0.75,11.719 -0.37,3.683 -0.56,6.246 -0.56,7.683 0,2.063 -0.91,3.094 -2.72,3.094 -0.37,0 -0.81,-0.035 -1.31,-0.094 -4.75,-0.562 -17.34,-0.843 -37.77,-0.843 l -35.52,0.375 -9.46,0.375 c -1.94,0 -3.47,0.027 -4.59,0.093 -1.44,0.122 -2.38,0.184 -2.82,0.184 -2.06,0 -3.09,-0.73 -3.09,-2.195 0,-1.594 0.84,-2.516 2.53,-2.77 7.19,-1 11.92,-2.746 14.2,-5.238 2.28,-2.496 3.42,-7.238 3.42,-14.223 v -74.203 c 0,-5.68 -0.34,-10.168 -1.03,-13.472 -0.75,-3.934 -1.77,-6.661 -3.05,-8.192 -1.28,-1.527 -3.7,-2.976 -7.26,-4.351 -1.44,-0.575 -2.12,-1.434 -2.06,-2.579 0.12,-1.406 0.94,-2.105 2.44,-2.105 1.12,0 2.96,0.094 5.52,0.281 9.31,0.563 16.25,0.844 20.81,0.844 6.81,0 12.21,-0.188 16.21,-0.563 l 10.87,-1.031 c 4.88,-0.5 9.31,-0.75 13.31,-0.75 6.81,0 12.28,1.051 16.4,3.149 4.13,2.097 7.56,5.589 10.31,10.476 3.31,5.766 4.97,11.719 4.97,17.856 0,0.816 -0.27,1.488 -0.8,2.019 -0.53,0.535 -1.11,0.738 -1.73,0.613 -0.31,-0.062 -0.69,-0.468 -1.13,-1.218 -7.81,-15.434 -24.39,-23.149 -49.76,-23.149 -3,0 -5.22,0.5 -6.65,1.496 -1.44,1 -2.69,2.903 -3.75,5.707 -1.38,3.868 -2.06,10.2 -2.06,18.997 v 8.417 c 0,6.739 0.18,11.665 0.56,14.786 0.37,2.742 1.11,4.566 2.2,5.472 1.09,0.903 3.14,1.356 6.14,1.356 h 6.37 c 6.44,0 10.83,-0.219 13.17,-0.656 2.34,-0.438 4.32,-1.407 5.95,-2.907 2.94,-2.75 4.81,-6.777 5.62,-12.086 0.38,-2.5 1.35,-3.687 2.91,-3.562 0.75,0.062 1.25,0.281 1.5,0.656 0.19,0.313 0.28,0.91 0.28,1.785 l -0.09,4.789 c 0,3.571 -0.19,7.762 -0.57,12.586 -0.56,7.387 -0.84,12.082 -0.84,14.086 0,1.125 0.06,2.504 0.19,4.133 0.18,2.254 0.28,3.633 0.28,4.133 0,1.754 -0.69,2.597 -2.06,2.535 -1.32,-0.063 -2.25,-0.656 -2.82,-1.781 l -2.15,-4.59 c -3.37,-6.813 -8.15,-10.219 -14.34,-10.219 h -7.97 l -4.12,-0.094 -2.81,-0.093 c -3.25,0 -5.3,0.781 -6.14,2.343 -0.84,1.563 -1.26,5.25 -1.26,11.059 v 20.34 l 0.09,3.84 z m -114.39,-48.496 c 0.81,-1.282 1.22,-4.977 1.22,-11.086 v -20.586 l -0.1,-5.055 c 0,-6.484 -0.92,-11.32 -2.76,-14.5 -1.85,-3.184 -4.89,-5.117 -9.14,-5.805 -1.56,-0.187 -2.34,-0.953 -2.34,-2.289 0,-2.097 1,-3.144 3,-3.144 1,0 3.4,0.218 7.21,0.656 6.44,0.687 11.62,1.031 15.56,1.031 6.12,0 12.9,-0.437 20.34,-1.312 3.24,-0.375 5.43,-0.563 6.56,-0.563 3.24,0 4.87,0.985 4.87,2.957 0,1.653 -1.16,2.477 -3.47,2.477 -6.43,0 -11.07,1.949 -13.91,5.847 -2.85,3.899 -4.27,10.278 -4.27,19.137 v 80.379 c 0,8.047 3.69,12.695 11.06,13.941 1.81,0.317 2.72,1.176 2.72,2.579 0,1.714 -1.13,2.578 -3.38,2.578 -2.31,0 -5.71,-0.223 -10.21,-0.657 -7.5,-0.816 -12.43,-1.218 -14.81,-1.218 -6.81,0 -12.78,0.39 -17.9,1.183 -3,0.457 -5.06,0.692 -6.18,0.692 -2,0 -3,-0.926 -3,-2.766 0,-1.527 0.87,-2.449 2.62,-2.766 l 4.31,-0.843 c 8.81,-1.625 13.22,-6.438 13.22,-14.434 V 642.43 c 0,-6.934 -0.43,-11.168 -1.27,-12.7 -0.84,-1.531 -3.17,-2.296 -6.98,-2.296 h -43.774 c -5.121,0 -8.141,0.546 -9.039,1.636 -0.91,1.094 -1.359,4.821 -1.359,11.18 v 24.043 c 0,8.043 3.687,12.691 11.058,13.937 1.809,0.317 2.719,1.176 2.719,2.579 0,1.714 -1.129,2.578 -3.379,2.578 -2.309,0 -5.711,-0.223 -10.211,-0.657 -7.559,-0.816 -12.5,-1.218 -14.809,-1.218 -6.808,0 -12.75,0.39 -17.808,1.183 -3,0.457 -5.063,0.692 -6.184,0.692 -2,0 -3,-0.926 -3,-2.766 0,-1.461 0.871,-2.387 2.621,-2.766 6.692,-1.312 11.262,-3.042 13.731,-5.195 2.469,-2.156 3.699,-5.512 3.699,-10.07 v -78.098 l -0.09,-5.054 c 0,-6.497 -0.918,-11.336 -2.758,-14.516 -1.851,-3.188 -4.89,-5.121 -9.14,-5.809 -1.563,-0.187 -2.34,-0.953 -2.34,-2.289 0,-2.097 0.988,-3.144 2.988,-3.144 1,0 3.41,0.218 7.223,0.656 6.437,0.687 11.59,1.031 15.457,1.031 6.191,0 12.973,-0.437 20.34,-1.312 3.312,-0.375 5.531,-0.563 6.66,-0.563 3.245,0 4.875,0.985 4.875,2.957 0,1.653 -1.06,2.477 -3.195,2.477 -6.559,0 -11.278,1.949 -14.149,5.847 -2.871,3.899 -4.308,10.278 -4.308,19.137 v 23.301 c 0,4.926 0.519,7.969 1.546,9.121 1.032,1.156 3.762,1.731 8.204,1.731 h 44.422 c 3.87,0 6.22,-0.637 7.03,-1.918 z m -179.542,54.543 c 2.347,1.464 8.269,2.203 17.757,2.203 7.063,0 12.45,-1.289 16.172,-3.864 3.719,-2.574 6.231,-6.781 7.539,-12.617 0.571,-2.387 1.571,-3.578 3,-3.578 1.692,0 2.532,1.031 2.532,3.094 0,2 -0.223,4.652 -0.653,7.965 -0.558,4 -0.879,6.531 -0.937,7.593 l -0.473,6.746 c -0.187,2.872 -2,4.309 -5.43,4.309 -0.937,0 -3.031,-0.062 -6.281,-0.184 -16.437,-0.816 -31.988,-1.218 -46.668,-1.218 l -22.781,0.281 -19.117,0.187 c -4.492,0 -7.961,0.094 -10.403,0.282 -1.5,0.125 -2.558,0.187 -3.187,0.187 -2.371,0 -3.684,-1.219 -3.934,-3.656 l -0.66,-5.719 -1.117,-8.34 -0.941,-8.152 c -0.559,-3.125 -0.871,-5.562 -0.942,-7.309 -0.117,-1.941 0.852,-2.906 2.91,-2.906 1.442,0 2.5,1.285 3.192,3.856 l 0.75,2.632 c 1.871,6.833 3.351,11.114 4.449,12.836 1.09,1.727 3.289,3.278 6.602,4.657 4.558,1.82 13.089,2.726 25.589,2.726 5.309,0 7.961,-2.469 7.961,-7.402 v -83.223 l 0.098,-4.402 c 0,-5.563 -1.328,-9.949 -3.98,-13.168 -2.661,-3.219 -6.418,-4.984 -11.297,-5.293 -1.871,-0.129 -3.09,-0.398 -3.653,-0.813 -0.558,-0.414 -0.879,-1.316 -0.937,-2.714 -0.063,-1.649 0.867,-2.473 2.808,-2.473 0.809,0 2.309,0.125 4.5,0.375 l 20.711,1.219 c 2.879,0.187 6.118,0.281 9.75,0.281 1.559,0 2.809,-0.031 3.75,-0.094 l 11.707,-0.75 7.032,-0.281 c 1.129,-0.063 1.91,-0.094 2.339,-0.094 1.942,0 2.911,0.731 2.911,2.192 0,2.035 -1.129,3.148 -3.371,3.336 -7.75,0.5 -13.161,2.953 -16.219,7.359 -3.059,4.402 -4.59,11.887 -4.59,22.445 v 70.571 c 0,5.808 1.172,9.449 3.512,10.918 v 0"
         style="fill:#ffffff;fill-opacity:1;fill-rule:nonzero;stroke:none"
         transform="matrix(0.13333333,0,0,-0.13333333,0,91.506667)" />
      <path
         id="path4"
         d="m 1983.17,112.93 c 0,5.308 1.59,8.468 4.78,9.468 l 6.37,0.75 h 11.43 c 10.12,0 17.45,-1.398 21.98,-4.187 4.53,-2.789 6.79,-7.301 6.79,-13.512 0,-2.82 0.6,-4.199 1.79,-4.14 2.43,0.132 3.65,2.562 3.65,7.312 0,2.379 -0.25,6.277 -0.75,11.719 -0.37,3.68 -0.56,6.238 -0.56,7.68 0,2.058 -0.91,3.089 -2.72,3.089 -0.37,0 -0.81,-0.031 -1.31,-0.089 -4.75,-0.559 -17.34,-0.84 -37.77,-0.84 l -35.52,0.371 -9.46,0.379 c -1.94,0 -3.47,0.031 -4.6,0.09 -1.43,0.128 -2.37,0.191 -2.81,0.191 -2.06,0 -3.09,-0.731 -3.09,-2.199 0,-1.59 0.84,-2.512 2.53,-2.774 7.18,-1 11.92,-2.738 14.2,-5.238 2.28,-2.488 3.42,-7.238 3.42,-14.219 V 32.5781 c 0,-5.6797 -0.35,-10.1679 -1.03,-13.4765 -0.75,-3.9297 -1.77,-6.6602 -3.05,-8.1914 -1.28,-1.51957 -3.7,-2.96879 -7.26,-4.35161 -1.44,-0.57031 -2.13,-1.42968 -2.06,-2.57812 0.12,-1.40234 0.93,-2.10156 2.43,-2.10156 1.13,0 2.97,0.08984 5.53,0.28125 C 1965.39,2.71875 1972.33,3 1976.89,3 c 6.81,0 12.21,-0.19141 16.21,-0.55859 l 10.87,-1.03125 c 4.88,-0.500004 9.31,-0.750004 13.31,-0.750004 6.81,0 12.28,1.050784 16.4,3.148434 4.12,2.10157 7.56,5.58985 10.31,10.48051 3.31,5.7617 4.97,11.7109 4.97,17.8515 0,0.8203 -0.27,1.4883 -0.8,2.0196 -0.53,0.5312 -1.11,0.7382 -1.73,0.6093 -0.32,-0.0586 -0.69,-0.4687 -1.13,-1.2187 -7.81,-15.4297 -24.4,-23.1406 -49.76,-23.1406 -3,0 -5.22,0.4882 -6.66,1.4882 -1.43,1 -2.68,2.9024 -3.74,5.711 -1.38,3.8711 -2.07,10.1992 -2.07,18.9922 v 8.4179 c 0,6.7422 0.19,11.6719 0.57,14.7891 0.37,2.7422 1.1,4.5625 2.2,5.4727 1.09,0.8984 3.14,1.3593 6.14,1.3593 h 6.37 c 6.43,0 10.82,-0.2187 13.17,-0.6601 2.34,-0.4414 4.32,-1.4102 5.95,-2.9024 2.93,-2.75 4.81,-6.7773 5.62,-12.0898 0.38,-2.5 1.34,-3.6875 2.91,-3.5664 0.75,0.0664 1.25,0.289 1.5,0.6562 0.18,0.3203 0.28,0.9102 0.28,1.793 l -0.1,4.7891 c 0,3.5586 -0.18,7.7617 -0.56,12.5781 -0.56,7.3906 -0.84,12.082 -0.84,14.0898 0,1.1211 0.06,2.5 0.19,4.1328 0.18,2.25 0.28,3.6289 0.28,4.1289 0,1.75 -0.69,2.6016 -2.07,2.5391 -1.31,-0.0703 -2.24,-0.6601 -2.81,-1.7773 l -2.15,-4.6016 c -3.38,-6.8086 -8.16,-10.2109 -14.34,-10.2109 h -7.97 l -4.12,-0.0899 -2.81,-0.0976 c -3.25,0 -5.3,0.7773 -6.14,2.3476 -0.84,1.5625 -1.27,5.2422 -1.27,11.0508 v 20.34 l 0.1,3.84 z m -128.95,0.121 c 0,8.23 3.15,12.57 9.46,13 2.69,0.129 4.03,0.961 4.03,2.488 0,1.781 -1.87,2.672 -5.63,2.672 -5.07,0 -10.04,-0.25 -14.92,-0.75 -6.58,-0.75 -11.36,-1.133 -14.37,-1.133 -1.88,0 -4.72,0.192 -8.54,0.57 l -4.04,0.282 c -1.56,0.179 -2.78,0.308 -3.66,0.371 -1.19,0.187 -2.09,0.277 -2.72,0.277 -1.88,0 -2.82,-0.949 -2.82,-2.859 0,-1.52 1.19,-2.469 3.57,-2.848 l 5.62,-0.941 c 8.31,-1.309 12.46,-6.95 12.46,-16.918 V 29.1016 c 0,-7.3008 -0.76,-12.5508 -2.29,-15.7618 -1.54,-3.2109 -4.3,-5.37105 -8.3,-6.49996 -1.62,-0.4414 -2.43,-1.23828 -2.43,-2.3789 0,-1.66016 0.9,-2.49219 2.71,-2.49219 0.88,0 2.6,0.15234 5.16,0.45313 8.37,0.94921 16.18,1.42968 23.43,1.42968 4.37,0 8.28,-0.10156 11.71,-0.29297 l 10.22,-0.45703 c 6.37,-0.38281 10.12,-0.60156 11.24,-0.66015 4.31,-0.3125 7.28,-0.47266 8.91,-0.47266 7.87,0 14.09,2.75 18.65,8.25005 5.18,6.25 7.78,13.3398 7.78,21.2695 0,2.5625 -0.58,3.8398 -1.71,3.8398 -0.7,0 -2.41,-1.8867 -5.14,-5.6875 -8.84,-12.4492 -23.85,-18.6718 -45.02,-18.6718 -4.55,0 -7.6,0.4023 -9.16,1.2109 -2.8,1.4414 -4.2,7.9922 -4.2,19.6484 v 81.2229 z m -128.95,0 c 0,8.23 3.15,12.57 9.46,13 2.69,0.129 4.03,0.961 4.03,2.488 0,1.781 -1.87,2.672 -5.63,2.672 -5.07,0 -10.04,-0.25 -14.92,-0.75 -6.58,-0.75 -11.36,-1.133 -14.37,-1.133 -1.88,0 -4.72,0.192 -8.54,0.57 l -4.04,0.282 c -1.56,0.179 -2.78,0.308 -3.66,0.371 -1.19,0.187 -2.09,0.277 -2.72,0.277 -1.88,0 -2.82,-0.949 -2.82,-2.859 0,-1.52 1.19,-2.469 3.57,-2.848 l 5.62,-0.941 c 8.31,-1.309 12.46,-6.95 12.46,-16.918 V 29.1016 c 0,-7.3008 -0.76,-12.5508 -2.29,-15.7618 -1.53,-3.2109 -4.3,-5.37105 -8.3,-6.49996 -1.62,-0.4414 -2.43,-1.23828 -2.43,-2.3789 0,-1.66016 0.9,-2.49219 2.71,-2.49219 0.88,0 2.6,0.15234 5.16,0.45313 8.37,0.94921 16.18,1.42968 23.43,1.42968 4.37,0 8.28,-0.10156 11.71,-0.29297 l 10.22,-0.45703 c 6.37,-0.38281 10.12,-0.60156 11.24,-0.66015 4.32,-0.3125 7.28,-0.47266 8.91,-0.47266 7.87,0 14.09,2.75 18.65,8.25005 5.18,6.25 7.78,13.3398 7.78,21.2695 0,2.5625 -0.57,3.8398 -1.71,3.8398 -0.7,0 -2.41,-1.8867 -5.14,-5.6875 -8.84,-12.4492 -23.85,-18.6718 -45.02,-18.6718 -4.55,0 -7.6,0.4023 -9.16,1.2109 -2.8,1.4414 -4.2,7.9922 -4.2,19.6484 v 81.2229 z m -91.62,-1.699 c 0,5.367 0.64,8.929 1.92,10.679 1.28,1.75 4.17,2.989 8.67,3.739 1.25,0.191 2.03,0.48 2.34,0.859 0.32,0.383 0.47,1.141 0.47,2.293 0,1.527 -1.03,2.289 -3.09,2.289 -3.44,0 -8.37,-0.242 -14.81,-0.723 l -6.84,-0.527 c -5.19,-0.422 -9.53,-0.633 -13.03,-0.633 -5.31,0 -9.09,0.25 -11.34,0.75 -2.25,0.442 -3.93,0.692 -5.06,0.75 -1.5,0.063 -2.25,-0.789 -2.25,-2.558 0,-1.149 0.46,-1.95 1.36,-2.43 0.91,-0.469 2.96,-0.969 6.14,-1.469 5.31,-0.812 8.97,-2.441 10.97,-4.871 2,-2.43 3,-6.52 3,-12.262 V 32.6719 l -0.1,-8.3321 c 0,-5.4296 -0.73,-9.3085 -2.2,-11.6484 -1.47,-2.3398 -4.45,-4.32031 -8.95,-5.9414 l -2.72,-2.19922 0.19,-0.76172 c 0.37,-1.33984 1.25,-2.00781 2.62,-2.00781 1.38,0 3.63,0.29688 6.75,0.89844 3.62,0.64844 8.56,0.98047 14.81,0.98047 5.06,0 11.65,-0.46094 19.77,-1.37891 3.25,-0.33203 5.75,-0.5 7.5,-0.5 4.06,0 6.09,0.91797 6.09,2.76953 0,1.89844 -1.53,2.85938 -4.59,2.85938 -4.69,0 -8.48,1.28125 -11.39,3.83984 -2.9,2.5586 -4.73,6.2383 -5.48,11.0508 l -0.75,9.3594 v 79.6918 z m -159.81,6.457 c 0,4.562 2.31,7.242 6.94,8.062 2.62,0.5 3.93,1.488 3.93,2.949 0,1.719 -0.87,2.578 -2.62,2.578 -1.24,0 -3.96,-0.128 -8.14,-0.378 l -9.82,-0.469 -15.71,0.469 c -4.25,0 -7.96,0.191 -11.14,0.558 -1.37,0.133 -2.31,0.192 -2.8,0.192 -1.75,0 -2.62,-0.86 -2.62,-2.571 0,-1.59 1.25,-2.64 3.75,-3.148 4.37,-0.93 7.82,-3.242 10.35,-6.93 2.53,-3.68 5.95,-11.269 10.26,-22.7499 3.63,-9.8125 8.16,-20.8906 13.59,-33.25 l 22.21,-50.3828 2.35,-5.70705 2.15,-4.78125 c 0.7,-1.5 1.65,-2.25 2.85,-2.25 1.77,0 3.26,1.41016 4.46,4.21875 0.44,1.0625 2.34,5.05078 5.72,11.98045 0.43,0.8203 3.25,7 8.43,18.5508 l 16.03,35.3008 13.96,32.3082 c 4.25,9.551 7.52,15.84 9.8,18.871 2.28,3.032 5.23,4.891 8.85,5.571 1.88,0.379 2.81,1.308 2.81,2.769 0,1.59 -0.56,2.391 -1.68,2.391 -0.87,0 -2.12,-0.133 -3.74,-0.383 -4.18,-0.75 -9.1,-1.117 -14.78,-1.117 -1.87,0 -5.02,0.117 -9.45,0.367 l -9.82,0.57 c -2.68,0.122 -4.42,0.18 -5.23,0.18 -1.56,0 -2.34,-0.726 -2.34,-2.187 0,-1.469 1.09,-2.332 3.28,-2.59 5.06,-0.75 8.95,-2.352 11.67,-4.821 2.71,-2.46 4.07,-5.628 4.07,-9.5 0,-6.808 -3.48,-17.8784 -10.43,-33.2417 l -21.16,-46.8086 c -0.82,-1.8086 -1.57,-2.6914 -2.26,-2.6211 -0.75,0.0625 -1.6,1.2109 -2.54,3.4609 l -20.91,51.211 c -6.85,16.6095 -10.27,27.7185 -10.27,33.3285 v 0 z m -117.22,10.73 c -0.12,-1.648 0.94,-2.641 3.19,-2.949 l 4.22,-0.66 c 5.18,-0.692 7.78,-3.09 7.78,-7.211 0,-2.18 -0.65,-4.297 -1.93,-6.36 -1.28,-2.058 -4.5,-6.05 -9.63,-11.9684 l -9.78,-11.6093 -4.32,-5.0508 c -1,-1.1211 -1.82,-1.7188 -2.44,-1.7813 -1.07,-0.0586 -2.58,1.3125 -4.52,4.1211 l -6.78,9.8203 -6.49,8.8904 c -4.27,6.739 -6.56,11.918 -6.88,15.539 -0.12,1.559 0.57,3.02 2.07,4.391 1.49,1.379 3.34,2.219 5.52,2.527 2.25,0.25 3.38,1.242 3.38,2.961 0,1.653 -0.97,2.481 -2.9,2.481 -1.38,0 -3.37,-0.129 -5.99,-0.379 l -8.7,-0.942 c -3.44,-0.371 -7.49,-0.558 -12.17,-0.558 -4.93,0 -12.51,0.379 -22.74,1.129 -2.43,0.179 -4.18,0.281 -5.24,0.281 -1.99,0 -2.99,-0.922 -2.99,-2.762 0,-1.66 1.19,-2.699 3.56,-3.148 5.87,-1.121 10.62,-3.461 14.25,-7.012 3.62,-3.559 11.26,-13.48 22.93,-29.7577 4.12,-5.8008 7.7,-10.7032 10.76,-14.6915 4.68,-6.1093 7.02,-9.8203 7.02,-11.1289 0,-1.3125 -2.31,-4.4609 -6.93,-9.4492 -3.05,-3.25 -8.17,-9.1836 -15.34,-17.7812 -8.24,-9.9219 -14.76,-16.8789 -19.57,-20.8711 -4.81,-3.9883 -9.65,-6.48831 -14.53,-7.48049 -1.68,-0.39063 -2.49,-1.21875 -2.43,-2.48828 0.06,-0.83204 0.34,-1.3711 0.84,-1.62891 l 2.54,-0.48047 4.22,0.1875 L 1284.96,3 c 3.57,0.19141 6.41,0.28125 8.54,0.28125 7.64,0 15.24,-0.37109 22.82,-1.12109 1.69,-0.19141 2.87,-0.28125 3.56,-0.28125 1.32,0 1.98,0.79297 1.98,2.39062 0,1.58985 -1.04,2.44922 -3.1,2.57031 -9.74,0.75 -14.62,3.67966 -14.62,8.80076 0,4.7383 7.13,15.1875 21.37,31.3477 2.24,2.6211 4.17,4.832 5.79,6.6406 1,1.1211 1.74,1.6797 2.24,1.6797 0.44,0 1.07,-0.5586 1.88,-1.6797 l 4.71,-6.0781 c 7.97,-10.3008 13.49,-17.8399 16.57,-22.6524 3.07,-4.7968 4.61,-8.3203 4.61,-10.5703 0,-4.3086 -2.53,-6.63669 -7.59,-7.01951 -2.31,-0.1875 -3.47,-1.16796 -3.47,-2.95703 0,-1.52343 1.06,-2.29297 3.18,-2.29297 1.56,0 4.09,0.10157 7.58,0.29297 L 1371.31,3 c 2.62,0.19141 5.36,0.28125 8.23,0.28125 4.18,0 9.11,-0.22266 14.79,-0.65234 l 11.79,-0.9375 c 1.74,-0.1211 3.12,-0.19141 4.12,-0.19141 2.24,0 3.36,0.85938 3.36,2.57031 0,1.91016 -1.09,2.96094 -3.28,3.14844 -6.87,0.5 -12.59,2.99215 -17.15,7.48045 -7.24,7.1797 -16.01,18.1211 -26.31,32.8516 -6.49,9.3476 -10.58,15.0898 -12.26,17.2109 -3.62,4.6172 -5.43,7.4883 -5.43,8.6094 0,1.0586 1.4,3.1172 4.21,6.1797 0.69,0.75 4.77,5.5781 12.27,14.5 10.11,12.0972 19.16,21.3082 27.15,27.6092 2.75,2.18 6.9,3.711 12.46,4.578 2.07,0.321 3.1,1.301 3.1,2.961 0,1.653 -0.88,2.481 -2.62,2.481 -1.56,0 -3.53,-0.102 -5.9,-0.282 l -11.5,-0.847 c -3,-0.192 -5.83,-0.281 -8.52,-0.281 -5.11,0 -10.63,0.218 -16.55,0.66 -1.56,0.121 -2.69,0.179 -3.37,0.179 -2,0 -3.09,-0.847 -3.28,-2.57 v 0 z M 1216.2,113.961 c 5.94,-5.492 10.69,-12.91 14.25,-22.2501 3.56,-9.3515 5.34,-18.9218 5.34,-28.7304 0,-16.9922 -3.84,-30.5703 -11.53,-40.7188 -7.68,-10.1523 -17.93,-15.23045 -30.74,-15.23045 -14.18,0 -25.71,6.14065 -34.58,18.41795 -8.87,12.2696 -13.31,28.2227 -13.31,47.8399 0,16.6211 3.53,29.5819 10.59,38.8909 7.06,9.308 16.87,13.968 29.43,13.968 11.75,0 21.93,-4.058 30.55,-12.187 v 0 z m -53.56,13.539 c -9.34,-3.781 -17.04,-9.02 -23.1,-15.711 -5.25,-5.687 -9.4,-12.7382 -12.46,-21.1406 -3.06,-8.4101 -4.6,-16.8671 -4.6,-25.3671 0,-19.8204 6.06,-35.6602 18.19,-47.5118 C 1152.79,5.92969 1168.97,0 1189.21,0 c 21.18,0 37.8,6.82031 49.86,20.4492 12.37,13.9414 18.56,30.9492 18.56,51.0196 0,18.4414 -6,33.3402 -18,44.6792 -11.99,11.352 -27.74,17.032 -47.23,17.032 -10.5,0 -20.42,-1.899 -29.76,-5.68 z m -154.09,-12.691 -6.46,7.589 c -3.613,4.313 -5.985,6.891 -7.106,7.731 -1.129,0.84 -2.648,1.269 -4.589,1.269 -1.379,0 -3.098,-0.097 -5.168,-0.289 -5.571,-0.558 -10.801,-0.839 -15.692,-0.839 l -3.949,-0.09 -6.481,0.281 c -2.128,0 -3.187,-0.891 -3.187,-2.68 0,-1.461 0.957,-2.261 2.898,-2.383 14.18,-1 21.27,-11.097 21.27,-30.2964 V 54.5313 l -0.648,-22.2618 c 0,-7.6601 -1.051,-13.539 -3.141,-17.6211 -2.102,-4.0781 -5.422,-6.77731 -9.981,-8.08981 -1.808,-0.50781 -2.718,-1.39843 -2.718,-2.66796 0,-1.53125 0.847,-2.28907 2.527,-2.28907 1.012,0 2.602,0.16797 4.793,0.52735 4.949,0.89062 10.578,1.33984 16.906,1.33984 6.383,0 12.206,-0.4375 17.466,-1.30859 1.69,-0.25 2.91,-0.37891 3.66,-0.37891 1.94,0 2.91,0.95703 2.91,2.85938 0,1.39843 -0.93,2.19921 -2.81,2.39062 -10.124,0.9375 -16.214,4.89845 -18.273,11.89065 -1.941,6.5586 -2.91,19.539 -2.91,38.9492 v 36.3281 l 0.098,2.711 c 0,2.8086 0.75,4.2108 2.242,4.2108 0.559,0 1.59,-0.812 3.09,-2.4296 L 1078.56,3.94141 c 1.18,-1.3125 2.34,-2 3.46,-2.0625 1.27,-0.0586 1.9,0.78125 1.9,2.53125 l -0.38,11.69924 -0.1,7.1211 0.1,10.3906 0.38,8.0586 1.33,58.5313 v 4.59 c 0,12.789 4.03,19.937 12.09,21.437 1.99,0.321 2.99,1.274 2.99,2.864 0,1.777 -1,2.668 -3,2.668 -0.56,0 -1.47,-0.059 -2.72,-0.192 -9.39,-1.18 -16.25,-1.777 -20.57,-1.777 -2.13,0 -4.82,0.187 -8.07,0.558 -5.01,0.629 -8.64,0.942 -10.9,0.942 -1.81,0 -2.72,-0.832 -2.72,-2.481 0,-1.34 1.03,-2.082 3.09,-2.199 8.69,-0.633 14.51,-3.531 17.48,-8.711 2.97,-5.18 4.45,-15.101 4.45,-29.7694 0,-12.4804 -0.28,-25.6211 -0.84,-39.4101 -0.12,-3.8086 -0.84,-5.711 -2.15,-5.711 -1.43,0 -4.27,2.3711 -8.51,7.1211 l -3.18,3.5586 -49.56,55.6718 c -0.5,0.629 -2.03,2.438 -4.58,5.438 v 0 z m -168.484,-8.25 c 0,7.25 0.661,11.953 1.969,14.101 1.313,2.16 4.653,3.961 10.031,5.391 1.559,0.39 2.34,1.148 2.34,2.301 0,1.718 -0.91,2.539 -2.718,2.476 -1.122,-0.058 -2.5,-0.18 -4.122,-0.367 -5.878,-0.633 -12.468,-0.941 -19.781,-0.941 -8.558,0 -16.09,0.339 -22.578,1.031 -1.57,0.187 -3.133,0.277 -4.691,0.277 -1.75,0 -2.621,-0.726 -2.621,-2.187 0,-1.461 0.171,-2.379 0.511,-2.762 0.352,-0.379 1.27,-0.668 2.77,-0.859 4.871,-0.5 8.601,-1.622 11.199,-3.372 2.59,-1.738 4.352,-4.296 5.293,-7.668 l 0.848,-5.332 L 818.418,105 V 29.8594 c 0,-7.918 -0.863,-13.5196 -2.582,-16.7891 -1.711,-3.28124 -4.82,-5.26171 -9.32,-5.94139 -1.629,-0.32813 -2.442,-1.09766 -2.442,-2.32032 0,-1.82812 1.223,-2.75 3.66,-2.75 2.434,0 5.653,0.19141 9.653,0.57032 6.25,0.62109 12.871,0.92968 19.871,0.92968 5.25,0 9.558,-0.27734 12.93,-0.83984 2.75,-0.5 4.718,-0.75 5.91,-0.75 2.058,0 3.09,0.95313 3.09,2.85938 0,1.65234 -1.723,2.60156 -5.161,2.86328 -5.179,0.36718 -8.82,2.68749 -10.91,6.96879 -2.101,4.2695 -3.14,11.4492 -3.14,21.5586 v 4.0195 c 0,5.4219 0.199,8.9922 0.609,10.7109 0.398,1.711 1.422,3.3789 3.039,5 l 4.031,3.9414 2.809,2.7188 c 1.133,1.1211 2.07,1.6797 2.812,1.6797 1.129,0 2.571,-1.4297 4.321,-4.3086 2,-3.4297 7.25,-10.7891 15.726,-22.0703 8.492,-11.2813 15.434,-20.1289 20.821,-26.5704 2.121,-2.62105 3.3,-4.0898 3.55,-4.39839 2.621,-3.25 5.551,-4.88282 8.789,-4.88282 0.942,0 3.434,0.26172 7.481,0.75 2.191,0.25 4.281,0.38282 6.269,0.38282 4.243,0 9.422,-0.3125 15.532,-0.94141 1.121,-0.12109 2.019,-0.19141 2.711,-0.19141 1.871,0 2.839,0.76954 2.898,2.29297 0.063,1.58985 -0.687,2.59766 -2.25,3.04688 l -1.969,0.57031 c -8.992,2.49215 -15.961,6.24215 -20.898,11.23045 -7.012,7.1094 -18.34,21.3906 -33.992,42.8516 l -6.77,9.168 c -2.808,3.9296 -4.219,6.6523 -4.219,8.1406 0,2.1211 2.629,5.4023 7.891,9.832 1.758,1.4883 5.02,4.4883 9.777,8.9805 10.27,9.6681 18.192,16.4691 23.75,20.3981 5.563,3.93 10.532,6.231 14.903,6.918 2.75,0.453 4.129,1.371 4.129,2.774 0,1.84 -1.102,2.758 -3.289,2.758 -2.5,0 -6.954,-0.372 -13.333,-1.122 -2.949,-0.32 -5.417,-0.468 -7.417,-0.468 -2.692,0 -7.391,0.371 -14.083,1.121 -2.699,0.308 -5.328,0.469 -7.89,0.469 -2.32,0 -3.481,-0.801 -3.481,-2.391 0,-1.719 1,-2.578 3,-2.578 2.692,0 4.84,-0.563 6.473,-1.68 1.617,-1.133 2.438,-2.633 2.438,-4.5 0,-5.621 -8.61,-16.152 -25.829,-31.5819 l -13.089,-11.6289 -9.172,-8.2383 c -2.438,-1.8828 -3.93,-2.8125 -4.489,-2.8125 -1.058,0.0625 -1.589,1.2422 -1.589,3.5625 v 34.0191 l 0.089,3.368 v 0"
         style="fill:#ffffff;fill-opacity:1;fill-rule:nonzero;stroke:none"
         transform="matrix(0.13333333,0,0,-0.13333333,0,91.506667)" />
      <path
         id="path5"
         d="M 682.734,3.58984 V 686.328 H 0 V 3.58984 h 682.734 v 0"
         style="fill:#f47116;fill-opacity:1;fill-rule:nonzero;stroke:none"
         transform="matrix(0.13333333,0,0,-0.13333333,0,91.506667)" />
      <path
         id="path6"
         d="M 596.566,600.223 V 427.961 h -63.8 c 0,31.719 -31.411,57.418 -70.168,57.418 -28.332,0 -52.715,-13.731 -63.805,-33.5 V 236.57 c 0,-45.742 35.594,-82.832 79.543,-82.929 h 0.199 V 89.8398 H 204.203 v 63.8012 h 0.188 c 43.953,0.097 79.566,37.187 79.566,82.929 v 215.309 c -11.098,19.769 -35.48,33.5 -63.805,33.5 -38.754,0 -70.175,-25.699 -70.175,-57.418 H 86.1719 V 600.223 H 596.566 v 0"
         style="fill:#ffffff;fill-opacity:1;fill-rule:nonzero;stroke:none"
         transform="matrix(0.13333333,0,0,-0.13333333,0,91.506667)" />
    </g>
  </g>
</svg>
