<?xml version="1.0" encoding="UTF-8" standalone="no"?>
<svg
   viewBox="0 0 1256.2914 316.26904"
   height="316.26904"
   width="1256.2914"
   xml:space="preserve"
   id="svg2"
   version="1.1"
   xmlns="http://www.w3.org/2000/svg"
   xmlns:svg="http://www.w3.org/2000/svg"
   xmlns:rdf="http://www.w3.org/1999/02/22-rdf-syntax-ns#"
   xmlns:cc="http://creativecommons.org/ns#"
   xmlns:dc="http://purl.org/dc/elements/1.1/"><metadata
     id="metadata8"><rdf:RDF><cc:Work
         rdf:about=""><dc:format>image/svg+xml</dc:format><dc:type
           rdf:resource="http://purl.org/dc/dcmitype/StillImage" /></cc:Work></rdf:RDF></metadata><defs
     id="defs6"><clipPath
       id="clipPath14"
       clipPathUnits="userSpaceOnUse"><path
         id="path12"
         d="M 0,0 H 1024 V 768 H 0 Z" /></clipPath><clipPath
       id="clipPath24"
       clipPathUnits="userSpaceOnUse"><path
         id="path22"
         d="M 0,0 H 1024 V 768 H 0 Z" /></clipPath><clipPath
       id="clipPath64"
       clipPathUnits="userSpaceOnUse"><path
         id="path62"
         d="M 173.4942,372.5085 H 294.8806 V 493.8949 H 173.4942 Z" /></clipPath><clipPath
       id="clipPath74"
       clipPathUnits="userSpaceOnUse"><path
         id="path72"
         d="M 180.6342,379.6485 H 287.7406 V 486.7549 H 180.6342 Z" /></clipPath><clipPath
       id="clipPath84"
       clipPathUnits="userSpaceOnUse"><path
         id="path82"
         d="m 38.27514,372.5085 h 121.3864 V 493.8949 H 38.27514 Z" /></clipPath><clipPath
       id="clipPath94"
       clipPathUnits="userSpaceOnUse"><path
         id="path92"
         d="m 45.41511,379.6485 h 107.1064 V 486.7549 H 45.41511 Z" /></clipPath><clipPath
       id="clipPath104"
       clipPathUnits="userSpaceOnUse"><path
         id="path102"
         d="M 105.8082,490.3239 H 227.1946 V 611.7103 H 105.8082 Z" /></clipPath><clipPath
       id="clipPath114"
       clipPathUnits="userSpaceOnUse"><path
         id="path112"
         d="M 112.9481,497.4638 H 220.0545 V 604.5702 H 112.9481 Z" /></clipPath><clipPath
       id="clipPath124"
       clipPathUnits="userSpaceOnUse"><path
         id="path122"
         d="M 193.9014,602.0435 V 499.9906 h -54.8 v 102.0529 z" /></clipPath><clipPath
       id="clipPath130"
       clipPathUnits="userSpaceOnUse"><path
         id="path128"
         d="M 0,0 H 1024 V 768 H 0 Z" /></clipPath><clipPath
       id="clipPath144"
       clipPathUnits="userSpaceOnUse"><path
         id="path142"
         d="m 217.37,488.7685 72.1623,-72.1623 -38.7495,-38.7494 -72.1622,72.1623 z" /></clipPath><clipPath
       id="clipPath150"
       clipPathUnits="userSpaceOnUse"><path
         id="path148"
         d="M 0,0 H 1024 V 768 H 0 Z" /></clipPath><clipPath
       id="clipPath164"
       clipPathUnits="userSpaceOnUse"><path
         id="path162"
         d="M 154.5352,450.0191 82.37289,377.8568 43.62344,416.6062 115.7857,488.7685 Z" /></clipPath><clipPath
       id="clipPath170"
       clipPathUnits="userSpaceOnUse"><path
         id="path168"
         d="M 0,0 H 1024 V 768 H 0 Z" /></clipPath></defs><g
     clip-path="url(#clipPath14)"
     transform="matrix(1.3333333,0,0,-1.3333333,-52.366852,814.28035)"
     id="g10"><g
       id="g16" /><g
       id="g18"><g
         clip-path="url(#clipPath24)"
         id="g20"><g
           transform="translate(551.4487,416.7969)"
           id="g28"
           style="fill:#4d4d4d"><text
   id="text32"
   style="font-variant:normal;font-weight:normal;font-size:200px;font-family:LucidaGrande;-inkscape-font-specification:LucidaGrande;writing-mode:lr-tb;fill:#4d4d4d;fill-opacity:1;fill-rule:nonzero;stroke:none"
   transform="scale(1,-1)"><tspan
     id="tspan30"
     y="0"
     x="0"
     style="fill:#4d4d4d">(</tspan></text>
</g><g
           transform="translate(690.4487,416.7969)"
           id="g34"
           style="fill:#4d4d4d"><text
   id="text38"
   style="font-variant:normal;font-weight:normal;font-size:200px;font-family:LucidaGrande;-inkscape-font-specification:LucidaGrande;writing-mode:lr-tb;fill:#4d4d4d;fill-opacity:1;fill-rule:nonzero;stroke:none"
   transform="scale(1,-1)"><tspan
     id="tspan36"
     y="0"
     x="0"
     style="fill:#4d4d4d">)</tspan></text>
</g><g
           transform="translate(326.7098,424.7969)"
           id="g40"
           style="fill:#f2f2f2"><text
   id="text44"
   style="font-variant:normal;font-weight:bold;font-size:200px;font-family:LucidaGrande;-inkscape-font-specification:LucidaGrande-Bold;writing-mode:lr-tb;fill:#f2f2f2;fill-opacity:1;fill-rule:nonzero;stroke:none"
   transform="scale(1,-1)"><tspan
     id="tspan42"
     y="0"
     x="0 114.26"
     style="fill:#f2f2f2">Su</tspan></text>
</g><g
           transform="translate(588.4806,424.7969)"
           id="g46"
           style="fill:#f2f2f2"><text
   id="text50"
   style="font-variant:normal;font-weight:bold;font-size:200px;font-family:LucidaGrande;-inkscape-font-specification:LucidaGrande-Bold;writing-mode:lr-tb;fill:#f2f2f2;fill-opacity:1;fill-rule:nonzero;stroke:none"
   transform="scale(1,-1)"><tspan
     id="tspan48"
     y="0"
     x="0"
     style="fill:#f2f2f2">n</tspan></text>
</g><g
           transform="translate(735.9935,424.7969)"
           id="g52"
           style="fill:#f2f2f2"><text
   id="text56"
   style="font-variant:normal;font-weight:bold;font-size:200px;font-family:LucidaGrande;-inkscape-font-specification:LucidaGrande-Bold;writing-mode:lr-tb;fill:#f2f2f2;fill-opacity:1;fill-rule:nonzero;stroke:none"
   transform="scale(1,-1)"><tspan
     id="tspan54"
     y="0"
     x="0 131.34"
     style="fill:#f2f2f2">ny</tspan></text>
</g></g></g><g
       id="g58"><g
         clip-path="url(#clipPath64)"
         id="g60"><path
           id="path66"
           style="fill:#fff99b;fill-opacity:0.8599;fill-rule:nonzero;stroke:none"
           d="m 276.3969,475.4111 c 23.3116,-23.3116 23.3116,-61.1072 0,-84.4189 -23.3117,-23.3116 -61.1073,-23.3116 -84.419,0 -23.3116,23.3117 -23.3116,61.1073 0,84.4189 23.3117,23.3117 61.1073,23.3117 84.419,0 z" /></g></g><g
       id="g68"><g
         clip-path="url(#clipPath74)"
         id="g70"><path
           id="path76"
           style="fill:#9357b0;fill-opacity:1;fill-rule:nonzero;stroke:none"
           d="m 271.3481,470.3624 c 20.5234,-20.5233 20.5234,-53.7982 0,-74.3215 -20.5233,-20.5233 -53.7981,-20.5233 -74.3214,0 -20.5234,20.5233 -20.5234,53.7982 0,74.3215 20.5233,20.5233 53.7981,20.5233 74.3214,0 z" /></g></g><g
       id="g78"><g
         clip-path="url(#clipPath84)"
         id="g80"><path
           id="path86"
           style="fill:#fff99b;fill-opacity:0.8599;fill-rule:nonzero;stroke:none"
           d="m 141.1778,475.4111 c 23.3116,-23.3116 23.3116,-61.1072 0,-84.4189 -23.3117,-23.3116 -61.10729,-23.3116 -84.41893,0 -23.31164,23.3117 -23.31164,61.1073 0,84.4189 23.31164,23.3117 61.10723,23.3117 84.41893,0 z" /></g></g><g
       id="g88"><g
         clip-path="url(#clipPath94)"
         id="g90"><path
           id="path96"
           style="fill:#ca3932;fill-opacity:1;fill-rule:nonzero;stroke:none"
           d="m 136.1291,470.3624 c 20.5233,-20.5233 20.5233,-53.7982 0,-74.3215 -20.5233,-20.5233 -53.7982,-20.5233 -74.32151,0 -20.52331,20.5233 -20.52331,53.7982 0,74.3215 20.52331,20.5233 53.79821,20.5233 74.32151,0 z" /></g></g><g
       id="g98"><g
         clip-path="url(#clipPath104)"
         id="g100"><path
           id="path106"
           style="fill:#fff99b;fill-opacity:0.8599;fill-rule:nonzero;stroke:none"
           d="m 208.7108,593.2265 c 23.3117,-23.3116 23.3117,-61.1072 0,-84.4189 -23.3116,-23.3116 -61.1073,-23.3116 -84.4189,0 -23.3116,23.3117 -23.3116,61.1073 0,84.4189 23.3116,23.3117 61.1073,23.3117 84.4189,0 z" /></g></g><g
       id="g108"><g
         clip-path="url(#clipPath114)"
         id="g110"><path
           id="path116"
           style="fill:#389622;fill-opacity:1;fill-rule:nonzero;stroke:none"
           d="m 203.6621,588.1778 c 20.5233,-20.5233 20.5233,-53.7982 0,-74.3215 -20.5233,-20.5233 -53.7982,-20.5233 -74.3215,0 -20.5233,20.5233 -20.5233,53.7982 0,74.3215 20.5233,20.5233 53.7982,20.5233 74.3215,0 z" /></g></g><g
       id="g118"><g
         clip-path="url(#clipPath124)"
         id="g120"><g
           clip-path="url(#clipPath130)"
           id="g126"><g
             transform="matrix(0,-1,-1,0,166.5014,601.0435)"
             id="g132"><path
               id="path134"
               style="fill:none;stroke:#e5e5e5;stroke-width:14;stroke-linecap:butt;stroke-linejoin:miter;stroke-miterlimit:4;stroke-dasharray:none;stroke-opacity:1"
               d="m 32.6,0 h 7 60.4529" /></g><path
             id="path136"
             style="fill:#e5e5e5;fill-opacity:1;fill-rule:nonzero;stroke:none"
             d="m 192.9014,548.2435 -26.4,52.8 -26.4,-52.8 26.4,13.2 z" /></g></g></g><g
       id="g138"><g
         clip-path="url(#clipPath144)"
         id="g140"><g
           clip-path="url(#clipPath150)"
           id="g146"><g
             transform="matrix(0.7071068,-0.7071068,-0.7071068,-0.7071068,198.7024,468.6867)"
             id="g152"><path
               id="path154"
               style="fill:none;stroke:#e5e5e5;stroke-width:14;stroke-linecap:butt;stroke-linejoin:miter;stroke-miterlimit:4;stroke-dasharray:none;stroke-opacity:1"
               d="m 32.6,0 h 7 60.4529" /></g><path
             id="path156"
             style="fill:#e5e5e5;fill-opacity:1;fill-rule:nonzero;stroke:none"
             d="m 254.7052,450.0191 -56.0028,18.6676 18.6676,-56.0029 9.3338,28.0014 z" /></g></g></g><g
       id="g158"><g
         clip-path="url(#clipPath164)"
         id="g160"><g
           clip-path="url(#clipPath170)"
           id="g166"><g
             transform="matrix(-0.7071068,-0.7071068,-0.7071068,0.7071068,134.4533,468.6867)"
             id="g172"><path
               id="path174"
               style="fill:none;stroke:#e5e5e5;stroke-width:14;stroke-linecap:butt;stroke-linejoin:miter;stroke-miterlimit:4;stroke-dasharray:none;stroke-opacity:1"
               d="m 32.6,0 h 7 60.4529" /></g><path
             id="path176"
             style="fill:#e5e5e5;fill-opacity:1;fill-rule:nonzero;stroke:none"
             d="m 115.7857,412.6838 18.6676,56.0029 -56.00282,-18.6676 28.00142,-9.3339 z" /></g></g></g></g></svg>
